{
.formatVersion = 3;
axes = (
{
name = Weight;
tag = wght;
}
);
classes = (
{
code = "Decyr Elcyr vecyr gecyr decyr zhecyr zecyr icyr ishortcyr kacyr elcyr pecyr tecyr tsecyr shacyr shchacyr hardcyr ylongcyr softcyr yucyr igravecyr";
name = loclCYR_ss02;
},
{
code = "Decyr.loclBGR Elcyr.loclBGR vecyr.loclBGR gecyr.loclBGR decyr.loclBGR zhecyr.loclBGR zecyr.loclBGR icyr.loclBGR ishortcyr.loclBGR kacyr.loclBGR elcyr.loclBGR pecyr.loclBGR tecyr.loclBGR tsecyr.loclBGR shacyr.loclBGR shchacyr.loclBGR hardcyr.loclBGR ylongcyr.loclBGR softcyr.loclBGR yucyr.loclBGR igravecyr.loclBGR";
name = loclBGR_ss02;
},
{
code = "zero.numr one.numr two.numr three.numr four.numr five.numr six.numr seven.numr eight.numr nine.numr";
name = numr;
},
{
code = "gravecomb acutecomb circumflexcomb brevecomb dieresiscomb macroncomb dotaccentcomb hungarumlautcomb tildecomb ringcomb caroncomb commaturnedabovecomb";
name = ccmp;
},
{
code = "zero one two three four five six seven eight nine";
name = ordn_sinf_subs_sups_numr_dnom;
},
{
code = "zero.superior onesuperior twosuperior threesuperior four.superior five.superior six.superior seven.superior eight.superior nine.superior";
name = sups;
},
{
code = "zero.inferior one.inferior two.inferior three.inferior four.inferior five.inferior six.inferior seven.inferior eight.inferior nine.inferior";
name = sinf_subs;
},
{

glyphs = (
{
glyphname = .notdef;
layers = (
{
layerId = "F7413D4C-EAF4-4E43-8F2C-0DFA69218E69";
shapes = (
{
closed = 1;
nodes = (
(100,0,l),
(1552,0,l),
(1552,1448,l),
(100,1448,l)
);
},
{
closed = 1;
nodes = (
(876,1334,l),
(1381,1334,l),
(1381,590,l),
(876,590,l)
);
},
{
closed = 1;
nodes = (
(775,1334,l),
(775,590,l),
(627,590,l),
(627,731,l),
(417,1044,l),
(417,590,l),
(270,590,l),
(270,1334,l),
(417,1334,l),
(627,1017,l),
(627,1334,l)
);
},
{
closed = 1;
nodes = (
(270,445,l),
(495,445,l),
(495,380,l),
(335,380,l),
(335,179,l),
(429,179,l),
(429,246,l),
(384,246,l),
(384,313,l),
(495,313,l),
(495,114,l),
(270,114,l)
);
},
{
closed = 1;
nodes = (
(543,445,l),
(609,445,l),
(609,179,l),
(743,179,l),
(743,114,l),
(543,114,l)
);
},
{
closed = 1;
nodes = (
(657,445,l),
(723,445,l),
(723,313,l),
(797,313,l),
(797,445,l),
(862,445,l),
(862,114,l),
(797,114,l),
(797,246,l),
(657,246,l)
);
},
{
closed = 1;
nodes = (
(916,445,l),
(1123,445,l),
(1123,246,l),
(981,246,l),
(981,114,l),
(916,114,l)
);
},
{
closed = 1;
nodes = (
(1177,445,l),
(1242,445,l),
(1242,313,l),
(1316,313,l),
(1316,445,l),
(1381,445,l),
(1381,114,l),
(1316,114,l),
(1316,246,l),
(1242,246,l),
(1242,114,l),
(1177,114,l)
);
},
{
closed = 1;
nodes = (
(1025,1186,l),
(1025,737,l),
(1235,737,l),
(1235,1186,l)
);
},
{
closed = 1;
nodes = (
(981,380,l),
(981,313,l),
(1056,313,l),
(1056,380,l)
);
}
);
width = 1652;
},
{
layerId = "FF7C99D0-C175-48E4-AC69-2B77C3BA1C9F";
shapes = (
{
closed = 1;
nodes = (
(100,0,l),
(1552,0,l),
(1552,1448,l),
(100,1448,l)
);
},
{
closed = 1;
nodes = (
(876,1334,l),
(1381,1334,l),
(1381,590,l),
(876,590,l)
);
},
{
closed = 1;
nodes = (
(775,1334,l),
(775,590,l),
(627,590,l),
(627,731,l),
(417,1044,l),
(417,590,l),
(270,590,l),
(270,1334,l),
(417,1334,l),
(627,1017,l),
(627,1334,l)
);
},
{
closed = 1;
nodes = (
(270,445,l),
(495,445,l),
(495,380,l),
(335,380,l),
(335,179,l),
(429,179,l),
(429,246,l),
(384,246,l),
(384,313,l),
(495,313,l),
(495,114,l),
(270,114,l)
);
},
{
closed = 1;
nodes = (
(543,445,l),
(609,445,l),
(609,179,l),
(743,179,l),
(743,114,l),
(543,114,l)
);
},
{
closed = 1;
nodes = (
(657,445,l),
(723,445,l),
(723,313,l),
(797,313,l),
(797,445,l),
(862,445,l),
(862,114,l),
(797,114,l),
(797,246,l),
(657,246,l)
);
},
{
closed = 1;
nodes = (
(916,445,l),
(1123,445,l),
(1123,246,l),
(981,246,l),
(981,114,l),
(916,114,l)
);
},
{
closed = 1;
nodes = (
(1177,445,l),
(1242,445,l),
(1242,313,l),
(1316,313,l),
(1316,445,l),
(1381,445,l),
(1381,114,l),
(1316,114,l),
(1316,246,l),
(1242,246,l),
(1242,114,l),
(1177,114,l)
);
},
{
closed = 1;
nodes = (
(1025,1186,l),
(1025,737,l),
(1235,737,l),
(1235,1186,l)
);
},
{
closed = 1;
nodes = (
(981,380,l),
(981,313,l),
(1056,313,l),
(1056,380,l)
);
}
);
width = 1652;
},
{
layerId = "FD60B6D8-DC1B-493D-A036-B8A9A3BDE096";
shapes = (
{
closed = 1;
nodes = (
(100,0,l),
(1552,0,l),
(1552,1448,l),
(100,1448,l)
);
},
{
closed = 1;
nodes = (
(876,1334,l),
(1381,1334,l),
(1381,590,l),
(876,590,l)
);
},
{
closed = 1;
nodes = (
(775,1334,l),
(775,590,l),
(627,590,l),
(627,731,l),
(417,1044,l),
(417,590,l),
(270,590,l),
(270,1334,l),
(417,1334,l),
(627,1017,l),
(627,1334,l)
);
},
{
closed = 1;
nodes = (
(270,445,l),
(495,445,l),
(495,380,l),
(335,380,l),
(335,179,l),
(429,179,l),
(429,246,l),
(384,246,l),
(384,313,l),
(495,313,l),
(495,114,l),
(270,114,l)
);
},
{
closed = 1;
nodes = (
(543,445,l),
(609,445,l),
(609,179,l),
(743,179,l),
(743,114,l),
(543,114,l)
);
},
{
closed = 1;
nodes = (
(657,445,l),
(723,445,l),
(723,313,l),
(797,313,l),
(797,445,l),
(862,445,l),
(862,114,l),
(797,114,l),
(797,246,l),
(657,246,l)
);
},
{
closed = 1;
nodes = (
(916,445,l),
(1123,445,l),
(1123,246,l),
(981,246,l),
(981,114,l),
(916,114,l)
);
},
{
closed = 1;
nodes = (
(1177,445,l),
(1242,445,l),
(1242,313,l),
(1316,313,l),
(1316,445,l),
(1381,445,l),
(1381,114,l),
(1316,114,l),
(1316,246,l),
(1242,246,l),
(1242,114,l),
(1177,114,l)
);
},
{
closed = 1;
nodes = (
(1025,1186,l),
(1025,737,l),
(1235,737,l),
(1235,1186,l)
);
},
{
closed = 1;
nodes = (
(981,380,l),
(981,313,l),
(1056,313,l),
(1056,380,l)
);
}
);
width = 1652;
},
{
layerId = "B769F827-5E5D-44DC-BEA8-1B95CFBF39E3";
shapes = (
{
closed = 1;
nodes = (
(100,0,l),
(1552,0,l),
(1552,1448,l),
(100,1448,l)
);
},
{
closed = 1;
nodes = (
(876,1334,l),
(1381,1334,l),
(1381,590,l),
(876,590,l)
);
},
{
closed = 1;
nodes = (
(775,1334,l),
(775,590,l),
(627,590,l),
(627,731,l),
(417,1044,l),
(417,590,l),
(270,590,l),
(270,1334,l),
(417,1334,l),
(627,1017,l),
(627,1334,l)
);
},
{
closed = 1;
nodes = (
(270,445,l),
(495,445,l),
(495,380,l),
(335,380,l),
(335,179,l),
(429,179,l),
(429,246,l),
(384,246,l),
(384,313,l),
(495,313,l),
(495,114,l),
(270,114,l)
);
},
{
closed = 1;
nodes = (
(543,445,l),
(609,445,l),
(609,179,l),
(743,179,l),
(743,114,l),
(543,114,l)
);
},
{
closed = 1;
nodes = (
(657,445,l),
(723,445,l),
(723,313,l),
(797,313,l),
(797,445,l),
(862,445,l),
(862,114,l),
(797,114,l),
(797,246,l),
(657,246,l)
);
},
{
closed = 1;
nodes = (
(916,445,l),
(1123,445,l),
(1123,246,l),
(981,246,l),
(981,114,l),
(916,114,l)
);
},
{
closed = 1;
nodes = (
(1177,445,l),
(1242,445,l),
(1242,313,l),
(1316,313,l),
(1316,445,l),
(1381,445,l),
(1381,114,l),
(1316,114,l),
(1316,246,l),
(1242,246,l),
(1242,114,l),
(1177,114,l)
);
},
{
closed = 1;
nodes = (
(1025,1186,l),
(1025,737,l),
(1235,737,l),
(1235,1186,l)
);
},
{
closed = 1;
nodes = (
(981,380,l),
(981,313,l),
(1056,313,l),
(1056,380,l)
);
}
);
width = 1652;
}
);
},
{
glyphname = exclam;
layers = (
{
layerId = "F7413D4C-EAF4-4E43-8F2C-0DFA69218E69";
shapes = (
{
closed = 1;
nodes = (
(432,454,l),
(461,1467,l,{name = .av01;}),
(191,1467,l,{name = .sh01;}),
(220,454,l)
);
},
{
closed = 1;
nodes = (
(474,0,l,{name = .dv01;}),
(474,293,l,{name = .dv02;}),
(178,293,l,{name = .dh01;}),
(178,0,l)
);
}
);
width = 651;
},
{
layerId = "FF7C99D0-C175-48E4-AC69-2B77C3BA1C9F";
shapes = (
{
closed = 1;
nodes = (
(420,438,l),
(449,1468,l),
(202,1468,l),
(230,438,l)
);
},
{
closed = 1;
nodes = (
(462,0,l),
(462,270,l),
(188,270,l),
(188,0,l)
);
}
);
width = 650;
},
{
layerId = "FD60B6D8-DC1B-493D-A036-B8A9A3BDE096";
shapes = (
{
closed = 1;
nodes = (
(384,395,l),
(413,1469,l),
(234,1469,l),
(262,395,l)
);
},
{
closed = 1;
nodes = (
(426,0,l),
(426,203,l),
(220,203,l),
(220,0,l)
);
}
);
width = 646;
},
{
layerId = "B769F827-5E5D-44DC-BEA8-1B95CFBF39E3";
shapes = (
{
closed = 1;
nodes = (
(372,381,l),
(401,1469,l),
(244,1469,l),
(272,381,l)
);
},
{
closed = 1;
nodes = (
(414,0,l),
(414,181,l),
(230,181,l),
(230,0,l)
);
}
);
width = 645;
}
);
unicode = 33;
},
{
glyphname = quotedbl;
layers = (
{
layerId = "F7413D4C-EAF4-4E43-8F2C-0DFA69218E69";
shapes = (
{
closed = 1;
nodes = (
(430,849,l,{name = .av03;}),
(430,1447,l,{name = .av01;}),
(198,1447,l,{name = .sh01;}),
(198,849,l)
);
},
{
closed = 1;
nodes = (
(801,849,l,{name = .av04;}),
(801,1447,l,{name = .av02;}),
(569,1447,l,{name = .ah01;}),
(569,849,l)
);
}
);
width = 997;
},
{
layerId = "FF7C99D0-C175-48E4-AC69-2B77C3BA1C9F";
shapes = (
{
closed = 1;
nodes = (
(418,887,l),
(418,1447,l),
(208,1447,l),
(208,887,l)
);
},
{
closed = 1;
nodes = (
(774,887,l),
(774,1447,l),
(564,1447,l),
(564,887,l)
);
}
);
width = 981;
},
{
layerId = "FD60B6D8-DC1B-493D-A036-B8A9A3BDE096";
shapes = (
{
closed = 1;
nodes = (
(382,997,l),
(382,1447,l),
(240,1447,l),
(240,997,l)
);
},
{
closed = 1;
nodes = (
(697,997,l),
(697,1447,l),
(552,1447,l),
(552,997,l)
);
}
);
width = 936;
},
{
layerId = "B769F827-5E5D-44DC-BEA8-1B95CFBF39E3";
shapes = (
{
closed = 1;
nodes = (
(370,1034,l),
(370,1447,l),
(250,1447,l),
(250,1034,l)
);
},
{
closed = 1;
nodes = (
(671,1034,l),
(671,1447,l),
(548,1447,l),
(548,1034,l)
);
}
);
width = 921;
}
);
unicode = 34;
},
{
glyphname = numbersign;
layers = (
{
layerId = "F7413D4C-EAF4-4E43-8F2C-0DFA69218E69";
shapes = (
{
closed = 1;
nodes = (
(882,0,l,{name = .av03;}),
(976,404,l,{name = .dv01;}),
(1264,404,l),
(1264,611,l),
(1018,611,l,{name = .dv02;}),
(1067,857,l,{name = .sv01;}),
(1348,857,l,{name = .sv02;}),
(1348,1053,l,{name = .sv03;}),
(1110,1053,l,{name = .sv04;}),
(1206,1468,l,{name = .av01;}),
(987,1468,l),
(893,1021,l,{name = .dv04;}),
(659,1021,l),
(758,1468,l,{name = .av02;}),
(538,1468,l),
(441,1064,l,{name = .dv06;}),
(155,1064,l),
(155,857,l,{name = .sv05;}),
(399,857,l,{name = .dv05;}),
(349,611,l,{name = .sv06;}),
(71,611,l,{name = .sv08;}),
(71,416,l,{name = .sv07;}),
(307,416,l),
(215,0,l,{name = .av04;}),
(433,0,l),
(525,446,l,{name = .sv10;}),
(759,446,l),
(663,0,l)
);
},
{
closed = 1;
nodes = (
(800,611,l,{name = .sv11;}),
(567,611,l,{name = .sv09;}),
(616,857,l),
(851,857,l,{name = .dv03;})
);
}
);
width = 1419;
},
{
layerId = "FF7C99D0-C175-48E4-AC69-2B77C3BA1C9F";
shapes = (
{
closed = 1;
nodes = (
(870,0,l),
(965,416,l),
(1250,416,l),
(1250,600,l),
(1002,600,l),
(1057,868,l),
(1334,868,l),
(1334,1044,l),
(1095,1044,l),
(1191,1468,l),
(994,1468,l),
(900,1021,l),
(644,1021,l),
(742,1468,l),
(545,1468,l),
(449,1053,l),
(164,1053,l),
(164,868,l),
(411,868,l),
(356,600,l),
(80,600,l),
(80,424,l),
(318,424,l),
(226,0,l),
(422,0,l),
(514,446,l),
(770,446,l),
(675,0,l)
);
},
{
closed = 1;
nodes = (
(807,600,l),
(552,600,l),
(606,868,l),
(862,868,l)
);
}
);
width = 1415;
},
{
layerId = "FD60B6D8-DC1B-493D-A036-B8A9A3BDE096";
shapes = (
{
closed = 1;
nodes = (
(839,0,l),
(934,450,l),
(1213,450,l),
(1213,566,l),
(959,566,l),
(1027,903,l),
(1297,903,l),
(1297,1021,l),
(1052,1021,l),
(1145,1468,l),
(1017,1468,l),
(923,1020,l),
(599,1020,l),
(697,1468,l),
(568,1468,l),
(472,1021,l),
(193,1021,l),
(193,903,l),
(446,903,l),
(379,566,l),
(109,566,l),
(109,447,l),
(354,447,l),
(261,0,l),
(390,0,l),
(482,447,l),
(806,447,l),
(712,0,l)
);
},
{
closed = 1;
nodes = (
(831,566,l),
(507,566,l),
(575,903,l),
(898,903,l)
);
}
);
width = 1405;
},
{
layerId = "B769F827-5E5D-44DC-BEA8-1B95CFBF39E3";
shapes = (
{
closed = 1;
nodes = (
(828,0,l),
(924,461,l),
(1200,461,l),
(1200,555,l),
(944,555,l),
(1017,914,l),
(1284,914,l),
(1284,1013,l),
(1037,1013,l),
(1130,1468,l),
(1025,1468,l),
(931,1020,l),
(584,1020,l),
(682,1468,l),
(575,1468,l),
(479,1010,l),
(202,1010,l),
(202,914,l),
(458,914,l),
(387,555,l),
(118,555,l),
(118,455,l),
(366,455,l),
(273,0,l),
(379,0,l),
(471,447,l),
(818,447,l),
(724,0,l)
);
},
{
closed = 1;
nodes = (
(839,555,l),
(492,555,l),
(565,914,l),
(910,914,l)
);
}
);
width = 1401;
}
);
unicode = 35;
},
{
glyphname = dollar;
layers = (
{
layerId = "F7413D4C-EAF4-4E43-8F2C-0DFA69218E69";
shapes = (
{
closed = 1;
nodes = (
(67,400,l),
(103,174,o),
(286,31,o),
(497,-12,c,{name = .sv02;}),
(497,-252,l),
(732,-252,l,{name = .dv01;}),
(732,-17,l,{name = .sv01;}),
(957,12,o),
(1147,180,o),
(1147,417,cs,{name = .dh05;}),
(1147,703,o),
(970,779,o),
(728,879,cs),
(673,901,ls),
(517,965,o),
(451,994,o),
(451,1083,cs,{name = .dh02;}),
(451,1173,o),
(542,1218,o),
(621,1218,cs,{name = .dv03;}),
(718,1218,o),
(792,1175,o),
(841,1089,c),
(1076,1226,l),
(1003,1358,o),
(889,1437,o),
(732,1466,c),
(732,1699,l,{name = .dv04;}),
(497,1699,l,{name = .dh03;}),
(497,1460,l),
(311,1415,o),
(163,1274,o),
(163,1074,cs,{name = .dh01;}),
(163,817,o),
(353,735,o),
(553,648,cs),
(615,621,ls),
(701,584,o),
(859,512,o),
(859,419,cs,{name = .dh04;}),
(859,299,o),
(793,241,o),
(634,241,cs,{name = .dv02;}),
(473,241,o),
(370,316,o),
(348,458,c)
);
}
);
width = 1229;
},
{
layerId = "FF7C99D0-C175-48E4-AC69-2B77C3BA1C9F";
shapes = (
{
closed = 1;
nodes = (
(82,394,l),
(124,166,o),
(289,29,o),
(512,-12,c),
(512,-252,l),
(718,-252,l),
(718,-16,l),
(956,11,o),
(1133,178,o),
(1133,420,cs),
(1133,675,o),
(946,774,o),
(737,860,cs),
(680,884,ls),
(583,924,o),
(436,995,o),
(436,1091,cs),
(436,1192,o),
(530,1243,o),
(621,1243,cs),
(715,1243,o),
(801,1200,o),
(854,1105,c),
(1064,1229,l),
(990,1362,o),
(875,1440,o),
(718,1466,c),
(718,1699,l),
(512,1699,l),
(512,1461,l),
(328,1422,o),
(178,1283,o),
(178,1080,cs),
(178,831,o),
(376,741,o),
(571,658,cs),
(628,634,ls),
(732,589,o),
(875,515,o),
(875,413,cs),
(875,282,o),
(795,216,o),
(634,216,cs),
(481,216,o),
(357,289,o),
(334,449,c)
);
}
);
width = 1229;
},
{
layerId = "FD60B6D8-DC1B-493D-A036-B8A9A3BDE096";
shapes = (
{
closed = 1;
nodes = (
(124,376,l),
(165,151,o),
(330,13,o),
(555,-12,c),
(555,-253,l),
(672,-253,l),
(672,-15,l),
(915,3,o),
(1087,159,o),
(1087,404,cs),
(1087,637,o),
(907,734,o),
(723,817,cs),
(665,842,ls),
(528,905,o),
(390,976,o),
(390,1113,cs),
(390,1237,o),
(500,1318,o),
(618,1318,cs),
(737,1318,o),
(833,1257,o),
(892,1152,c),
(1024,1239,l),
(947,1377,o),
(831,1451,o),
(672,1466,c),
(672,1699,l),
(555,1699,l),
(555,1463,l),
(363,1433,o),
(220,1300,o),
(220,1097,cs),
(220,896,o),
(396,791,o),
(596,697,cs),
(651,671,ls),
(794,603,o),
(918,534,o),
(918,393,cs),
(918,221,o),
(803,142,o),
(631,142,cs),
(453,142,o),
(311,237,o),
(287,420,c)
);
}
);
width = 1229;
},
{
layerId = "B769F827-5E5D-44DC-BEA8-1B95CFBF39E3";
shapes = (
{
closed = 1;
nodes = (
(138,370,l),
(179,146,o),
(344,7,o),
(569,-12,c),
(569,-253,l),
(656,-253,l),
(656,-15,l),
(901,0,o),
(1072,153,o),
(1072,398,cs),
(1072,624,o),
(894,720,o),
(718,802,cs),
(660,828,ls),
(509,898,o),
(375,969,o),
(375,1120,cs),
(375,1252,o),
(490,1343,o),
(617,1343,cs),
(744,1343,o),
(843,1276,o),
(904,1168,c),
(1011,1242,l),
(933,1382,o),
(816,1454,o),
(656,1466,c),
(656,1699,l),
(569,1699,l),
(569,1464,l),
(375,1436,o),
(234,1306,o),
(234,1103,cs),
(234,918,o),
(402,807,o),
(604,710,cs),
(659,683,ls),
(815,608,o),
(932,540,o),
(932,386,cs),
(932,201,o),
(805,117,o),
(630,117,cs),
(444,117,o),
(296,219,o),
(271,410,c)
);
}
);
width = 1229;
}
);
unicode = 36;
},
{
glyphname = percent;
layers = (
{
layerId = "F7413D4C-EAF4-4E43-8F2C-0DFA69218E69";
shapes = (
{
closed = 1;
nodes = (
(1394,-19,o),
(1514,123,o),
(1514,335,cs,{name = .dh04;}),
(1514,525,o),
(1382,676,o),
(1215,676,cs,{name = .dv02;}),
(1042,676,o),
(918,532,o),
(918,329,cs,{name = .dh01;}),
(918,126,o),
(1042,-19,o),
(1215,-19,cs,{name = .dv05;})
);
},
{
closed = 1;
nodes = (
(1161,180,o),
(1121,243,o),
(1121,329,cs,{name = .dh02;}),
(1121,416,o),
(1159,475,o),
(1215,475,cs,{name = .dv01;}),
(1273,475,o),
(1309,419,o),
(1309,328,cs,{name = .dh03;}),
(1309,247,o),
(1266,180,o),
(1215,180,cs,{name = .dv06;})
);
},
{
closed = 1;
nodes = (
(254,-28,l,{name = .ih01;}),
(494,-28,l,{name = .av02;}),
(1317,1504,l,{name = .av01;}),
(1076,1504,l)
);
},
{
closed = 1;
nodes = (
(546,773,o),
(666,915,o),
(666,1127,cs,{name = .dh04;}),
(666,1317,o),
(534,1468,o),
(367,1468,cs,{name = .dv02;}),
(194,1468,o),
(70,1324,o),
(70,1121,cs,{name = .dh01;}),
(70,918,o),
(194,773,o),
(367,773,cs,{name = .dv05;})
);
},
{
closed = 1;
nodes = (
(313,972,o),
(273,1035,o),
(273,1121,cs,{name = .dh02;}),
(273,1208,o),
(311,1267,o),
(367,1267,cs,{name = .dv01;}),
(425,1267,o),
(461,1211,o),
(461,1120,cs,{name = .dh03;}),
(461,1039,o),
(418,972,o),
(367,972,cs,{name = .dv06;})
);
}
);
width = 1584;
},
{
layerId = "FF7C99D0-C175-48E4-AC69-2B77C3BA1C9F";
shapes = (
{
closed = 1;
nodes = (
(1387,-20,o),
(1505,123,o),
(1505,320,cs),
(1505,521,o),
(1384,664,o),
(1215,664,cs),
(1045,664,o),
(931,527,o),
(931,322,cs),
(931,118,o),
(1049,-20,o),
(1222,-20,cs)
);
},
{
closed = 1;
nodes = (
(1156,157,o),
(1111,225,o),
(1111,322,cs),
(1111,416,o),
(1155,486,o),
(1215,486,cs),
(1276,486,o),
(1321,417,o),
(1321,322,cs),
(1321,229,o),
(1276,157,o),
(1218,157,cs)
);
},
{
closed = 1;
nodes = (
(274,-20,l),
(490,-20,l),
(1300,1489,l),
(1084,1489,l)
);
},
{
closed = 1;
nodes = (
(540,784,o),
(658,927,o),
(658,1124,cs),
(658,1325,o),
(537,1468,o),
(368,1468,cs),
(198,1468,o),
(84,1331,o),
(84,1126,cs),
(84,922,o),
(202,784,o),
(375,784,cs)
);
},
{
closed = 1;
nodes = (
(309,961,o),
(264,1029,o),
(264,1126,cs),
(264,1220,o),
(308,1290,o),
(368,1290,cs),
(429,1290,o),
(474,1221,o),
(474,1126,cs),
(474,1033,o),
(429,961,o),
(371,961,cs)
);
}
);
width = 1589;
},
{
layerId = "FD60B6D8-DC1B-493D-A036-B8A9A3BDE096";
shapes = (
{
closed = 1;
nodes = (
(1378,-20,o),
(1482,113,o),
(1482,302,cs),
(1482,492,o),
(1374,629,o),
(1225,629,cs),
(1075,629,o),
(973,497,o),
(973,303,cs),
(973,112,o),
(1079,-20,o),
(1231,-20,cs)
);
},
{
closed = 1;
nodes = (
(1144,87,o),
(1087,174,o),
(1087,303,cs),
(1087,429,o),
(1144,519,o),
(1225,519,cs),
(1304,519,o),
(1363,428,o),
(1363,304,cs),
(1363,179,o),
(1306,87,o),
(1229,87,cs)
);
},
{
closed = 1;
nodes = (
(339,-1,l),
(479,-1,l),
(1254,1446,l),
(1113,1446,l)
);
},
{
closed = 1;
nodes = (
(529,819,o),
(633,952,o),
(633,1141,cs),
(633,1331,o),
(525,1468,o),
(376,1468,cs),
(226,1468,o),
(124,1336,o),
(124,1142,cs),
(124,951,o),
(230,819,o),
(382,819,cs)
);
},
{
closed = 1;
nodes = (
(295,926,o),
(238,1013,o),
(238,1142,cs),
(238,1268,o),
(295,1358,o),
(376,1358,cs),
(455,1358,o),
(514,1267,o),
(514,1143,cs),
(514,1018,o),
(457,926,o),
(380,926,cs)
);
}
);
width = 1606;
},
{
layerId = "B769F827-5E5D-44DC-BEA8-1B95CFBF39E3";
shapes = (
{
closed = 1;
nodes = (
(1374,-20,o),
(1473,109,o),
(1473,296,cs),
(1473,482,o),
(1369,617,o),
(1227,617,cs),
(1084,617,o),
(986,487,o),
(986,296,cs),
(986,109,o),
(1087,-20,o),
(1233,-20,cs)
);
},
{
closed = 1;
nodes = (
(1139,63,o),
(1078,157,o),
(1078,296,cs),
(1078,433,o),
(1139,530,o),
(1227,530,cs),
(1312,530,o),
(1376,431,o),
(1376,298,cs),
(1376,162,o),
(1315,63,o),
(1231,63,cs)
);
},
{
closed = 1;
nodes = (
(359,6,l),
(474,6,l),
(1237,1431,l),
(1121,1431,l)
);
},
{
closed = 1;
nodes = (
(525,831,o),
(624,960,o),
(624,1147,cs),
(624,1333,o),
(520,1468,o),
(378,1468,cs),
(235,1468,o),
(137,1338,o),
(137,1147,cs),
(137,960,o),
(238,831,o),
(384,831,cs)
);
},
{
closed = 1;
nodes = (
(290,914,o),
(229,1008,o),
(229,1147,cs),
(229,1284,o),
(290,1381,o),
(378,1381,cs),
(463,1381,o),
(527,1282,o),
(527,1149,cs),
(527,1013,o),
(466,914,o),
(382,914,cs)
);
}
);
width = 1610;
}
);
unicode = 37;
},
{
glyphname = ampersand;
layers = (
{
layerId = "F7413D4C-EAF4-4E43-8F2C-0DFA69218E69";
shapes = (
{
closed = 1;
nodes = (
(67,124,o),
(256,-20,o),
(548,-20,cs,{name = .dv01;}),
(723,-20,o),
(868,28,o),
(990,127,c),
(1178,-85,l,{name = .av01;}),
(1377,94,l),
(1164,331,l),
(1228,434,o),
(1264,552,o),
(1271,686,c),
(993,714,l),
(993,643,o),
(987,597,o),
(971,546,c,{name = .ih01;}),
(797,736,l),
(969,852,o),
(1049,973,o),
(1049,1119,cs,{name = .dh04;}),
(1049,1328,o),
(890,1468,o),
(654,1468,cs,{name = .dv04;}),
(403,1468,o),
(230,1324,o),
(230,1116,cs,{name = .ih02;}),
(230,996,o),
(285,885,o),
(394,783,c,{name = .ih03;}),
(166,655,o),
(67,523,o),
(67,347,cs,{name = .dh01;})
);
},
{
closed = 1;
nodes = (
(540,992,o),
(505,1060,o),
(505,1112,cs,{name = .sh01;}),
(505,1197,o),
(560,1251,o),
(648,1251,cs,{name = .dv03;}),
(734,1251,o),
(784,1201,o),
(784,1114,cs,{name = .dh03;}),
(784,1040,o),
(729,974,o),
(612,908,c)
);
},
{
closed = 1;
nodes = (
(341,444,o),
(401,497,o),
(573,600,c),
(825,315,l),
(744,245,o),
(653,211,o),
(551,211,cs,{name = .dv02;}),
(426,211,o),
(341,273,o),
(341,364,cs,{name = .dh02;})
);
}
);
width = 1417;
},
{
layerId = "FF7C99D0-C175-48E4-AC69-2B77C3BA1C9F";
shapes = (
{
closed = 1;
nodes = (
(82,124,o),
(272,-20,o),
(556,-20,cs),
(724,-20,o),
(873,35,o),
(992,140,c),
(1183,-78,l),
(1359,80,l),
(1144,322,l),
(1209,434,o),
(1245,555,o),
(1252,688,c),
(1009,713,l),
(1009,644,o),
(997,577,o),
(974,512,c),
(769,741,l),
(949,863,o),
(1030,982,o),
(1030,1126,cs),
(1030,1328,o),
(873,1468,o),
(646,1468,cs),
(410,1468,o),
(246,1326,o),
(246,1124,cs),
(246,1011,o),
(303,897,o),
(417,783,c),
(183,644,o),
(82,510,o),
(82,338,cs)
);
},
{
closed = 1;
nodes = (
(527,988,o),
(486,1064,o),
(486,1120,cs),
(486,1217,o),
(545,1273,o),
(648,1273,cs),
(746,1273,o),
(799,1220,o),
(799,1122,cs),
(799,1041,o),
(741,973,o),
(608,894,c)
);
},
{
closed = 1;
nodes = (
(323,436,o),
(406,533,o),
(572,621,c),
(846,308,l),
(764,228,o),
(666,188,o),
(550,188,cs),
(410,188,o),
(323,244,o),
(323,334,cs)
);
}
);
width = 1415;
},
{
layerId = "FD60B6D8-DC1B-493D-A036-B8A9A3BDE096";
shapes = (
{
closed = 1;
nodes = (
(126,108,o),
(289,-20,o),
(546,-20,cs),
(734,-20,o),
(882,46,o),
(998,178,c),
(1200,-58,l),
(1307,37,l),
(1084,296,l),
(1149,409,o),
(1188,541,o),
(1200,691,c),
(1056,707,l),
(1045,592,o),
(1022,495,o),
(984,411,c),
(689,756,l),
(894,894,o),
(975,1005,o),
(975,1148,cs),
(975,1339,o),
(842,1468,o),
(645,1468,cs),
(436,1468,o),
(291,1339,o),
(291,1151,cs),
(291,1036,o),
(353,917,o),
(483,782,c),
(227,618,o),
(126,485,o),
(126,311,cs)
);
},
{
closed = 1;
nodes = (
(493,962,o),
(433,1069,o),
(433,1145,cs),
(433,1265,o),
(513,1337,o),
(647,1337,cs),
(766,1337,o),
(843,1262,o),
(843,1147,cs),
(843,1046,o),
(767,957,o),
(596,853,c)
);
},
{
closed = 1;
nodes = (
(269,441,o),
(357,549,o),
(571,680,c),
(908,286,l),
(820,176,o),
(700,119,o),
(547,119,cs),
(377,119,o),
(269,195,o),
(269,313,cs)
);
}
);
width = 1412;
},
{
layerId = "B769F827-5E5D-44DC-BEA8-1B95CFBF39E3";
shapes = (
{
closed = 1;
nodes = (
(141,103,o),
(295,-20,o),
(543,-20,cs),
(737,-20,o),
(885,49,o),
(1000,191,c),
(1206,-51,l),
(1289,22,l),
(1064,287,l),
(1129,401,o),
(1169,536,o),
(1182,692,c),
(1071,705,l),
(1057,574,o),
(1030,468,o),
(987,377,c),
(662,761,l),
(876,904,o),
(957,1013,o),
(957,1155,cs),
(957,1342,o),
(831,1468,o),
(645,1468,cs),
(445,1468,o),
(306,1343,o),
(306,1160,cs),
(306,1044,o),
(370,923,o),
(505,782,c),
(241,609,o),
(141,477,o),
(141,302,cs)
);
},
{
closed = 1;
nodes = (
(481,953,o),
(415,1070,o),
(415,1153,cs),
(415,1281,o),
(502,1358,o),
(647,1358,cs),
(772,1358,o),
(857,1276,o),
(857,1155,cs),
(857,1048,o),
(775,951,o),
(592,839,c)
);
},
{
closed = 1;
nodes = (
(251,442,o),
(341,554,o),
(570,700,c),
(928,278,l),
(839,158,o),
(711,96,o),
(546,96,cs),
(366,96,o),
(251,178,o),
(251,306,cs)
);
}
);
width = 1411;
}
);
unicode = 38;
},
{
glyphname = quotesingle;
layers = (
{
layerId = "F7413D4C-EAF4-4E43-8F2C-0DFA69218E69";
shapes = (
{
closed = 1;
nodes = (
(430,879,l,{name = .av02;}),
(430,1477,l,{name = .av01;}),
(198,1477,l,{name = .dh01;}),
(198,879,l)
);
}
);
width = 626;
},
{
layerId = "FF7C99D0-C175-48E4-AC69-2B77C3BA1C9F";
shapes = (
{
closed = 1;
nodes = (
(418,916,l),
(418,1477,l),
(208,1477,l),
(208,916,l)
);
}
);
width = 625;
},
{
layerId = "FD60B6D8-DC1B-493D-A036-B8A9A3BDE096";
shapes = (
{
closed = 1;
nodes = (
(382,1027,l),
(382,1477,l),
(240,1477,l),
(240,1027,l)
);
}
);
width = 621;
},
{
layerId = "B769F827-5E5D-44DC-BEA8-1B95CFBF39E3";
shapes = (
{
closed = 1;
nodes = (
(370,1064,l),
(370,1477,l),
(250,1477,l),
(250,1064,l)
);
}
);
width = 620;
}
);
unicode = 39;
},
{
glyphname = parenleft;
layers = (
{
layerId = "F7413D4C-EAF4-4E43-8F2C-0DFA69218E69";
shapes = (
{
closed = 1;
nodes = (
(60,373,o),
(171,64,o),
(377,-158,c),
(632,-158,l,{name = .av02;}),
(420,126,o),
(330,374,o),
(330,724,cs,{name = .dh02;}),
(330,1075,o),
(420,1321,o),
(632,1606,c,{name = .av01;}),
(377,1606,l),
(170,1385,o),
(60,1081,o),
(60,724,cs,{name = .dh01;})
);
}
);
width = 632;
},
{
layerId = "FF7C99D0-C175-48E4-AC69-2B77C3BA1C9F";
shapes = (
{
closed = 1;
nodes = (
(80,416,o),
(189,104,o),
(380,-128,c),
(601,-128,l),
(417,138,o),
(318,410,o),
(318,724,cs),
(318,1038,o),
(418,1310,o),
(601,1576,c),
(380,1576,l),
(189,1343,o),
(80,1071,o),
(80,724,cs)
);
}
);
width = 601;
},
{
layerId = "FD60B6D8-DC1B-493D-A036-B8A9A3BDE096";
shapes = (
{
closed = 1;
nodes = (
(110,448,o),
(214,131,o),
(367,-47,c),
(504,-47,l),
(344,164,o),
(251,450,o),
(251,724,cs),
(251,1000,o),
(339,1267,o),
(504,1495,c),
(367,1495,l),
(206,1294,o),
(110,1010,o),
(110,724,cs)
);
}
);
width = 504;
},
{
layerId = "B769F827-5E5D-44DC-BEA8-1B95CFBF39E3";
shapes = (
{
closed = 1;
nodes = (
(120,458,o),
(222,140,o),
(363,-20,c),
(471,-20,l),
(320,173,o),
(228,463,o),
(228,724,cs),
(228,987,o),
(313,1253,o),
(471,1468,c),
(363,1468,l),
(212,1277,o),
(120,990,o),
(120,724,cs)
);
}
);
width = 471;
}
);
unicode = 40;
},
{
glyphname = asterisk;
layers = (
{
layerId = "F7413D4C-EAF4-4E43-8F2C-0DFA69218E69";
shapes = (
{
closed = 1;
nodes = (
(575,849,l,{name = .av02;}),
(758,965,l),
(601,1116,l,{name = .iv01;}),
(826,1144,l),
(759,1333,l),
(552,1255,l,{name = .iv02;}),
(581,1447,l,{name = .av01;}),
(355,1447,l),
(384,1255,l,{name = .iv03;}),
(177,1333,l),
(106,1144,l),
(332,1116,l,{name = .iv04;}),
(175,965,l),
(357,849,l,{name = .av03;}),
(468,1054,l,{name = .iv05;})
);
}
);
width = 933;
},
{
layerId = "FF7C99D0-C175-48E4-AC69-2B77C3BA1C9F";
shapes = (
{
closed = 1;
nodes = (
(574,854,l),
(736,958,l),
(574,1122,l),
(807,1153,l),
(746,1325,l),
(532,1241,l),
(562,1447,l),
(362,1447,l),
(392,1241,l),
(178,1325,l),
(116,1153,l),
(348,1122,l),
(186,958,l),
(348,854,l),
(462,1067,l)
);
}
);
width = 923;
},
{
layerId = "FD60B6D8-DC1B-493D-A036-B8A9A3BDE096";
shapes = (
{
closed = 1;
nodes = (
(571,871,l),
(672,942,l),
(495,1142,l),
(749,1182,l),
(710,1300,l),
(476,1199,l),
(507,1447,l),
(385,1447,l),
(418,1199,l),
(182,1300,l),
(145,1182,l),
(398,1142,l),
(221,942,l),
(320,871,l),
(446,1107,l)
);
}
);
width = 894;
},
{
layerId = "B769F827-5E5D-44DC-BEA8-1B95CFBF39E3";
shapes = (
{
closed = 1;
nodes = (
(570,876,l),
(650,936,l),
(468,1148,l),
(730,1192,l),
(698,1292,l),
(457,1185,l),
(488,1447,l),
(393,1447,l),
(426,1185,l),
(183,1292,l),
(155,1192,l),
(415,1148,l),
(233,936,l),
(311,876,l),
(440,1120,l)
);
}
);
width = 884;
}
);
unicode = 42;
},
{
glyphname = plus;
layers = (
{
layerId = "F7413D4C-EAF4-4E43-8F2C-0DFA69218E69";
shapes = (
{
closed = 1;
nodes = (
(745,109,l,{name = .av02;}),
(745,532,l,{name = .dv01;}),
(1213,532,l),
(1213,745,l),
(745,745,l,{name = .dv02;}),
(745,1170,l,{name = .av01;}),
(535,1170,l,{name = .dh01;}),
(535,745,l,{name = .sv01;}),
(67,745,l),
(67,532,l,{name = .sv02;}),
(535,532,l,{name = .sh01;}),
(535,109,l)
);
}
);
width = 1279;
},
{
layerId = "FF7C99D0-C175-48E4-AC69-2B77C3BA1C9F";
shapes = (
{
closed = 1;
nodes = (
(736,109,l),
(736,545,l),
(1204,545,l),
(1204,734,l),
(736,734,l),
(736,1170,l),
(548,1170,l),
(548,734,l),
(80,734,l),
(80,545,l),
(548,545,l),
(548,109,l)
);
}
);
width = 1283;
},
{
layerId = "FD60B6D8-DC1B-493D-A036-B8A9A3BDE096";
shapes = (
{
closed = 1;
nodes = (
(708,109,l),
(708,580,l),
(1177,580,l),
(1177,701,l),
(708,701,l),
(708,1169,l),
(587,1169,l),
(587,701,l),
(119,701,l),
(119,580,l),
(587,580,l),
(587,109,l)
);
}
);
width = 1296;
},
{
layerId = "B769F827-5E5D-44DC-BEA8-1B95CFBF39E3";
shapes = (
{
closed = 1;
nodes = (
(699,109,l),
(699,592,l),
(1168,592,l),
(1168,690,l),
(699,690,l),
(699,1169,l),
(600,1169,l),
(600,690,l),
(132,690,l),
(132,592,l),
(600,592,l),
(600,109,l)
);
}
);
width = 1300;
}
);
unicode = 43;
},
{
glyphname = comma;
layers = (
{
layerId = "F7413D4C-EAF4-4E43-8F2C-0DFA69218E69";
shapes = (
{
closed = 1;
nodes = (
(301,-304,l,{name = .av02;}),
(565,270,l,{name = .av01;}),
(250,270,l),
(113,-304,l)
);
}
);
width = 652;
},
{
layerId = "FF7C99D0-C175-48E4-AC69-2B77C3BA1C9F";
shapes = (
{
closed = 1;
nodes = (
(269,-311,l),
(530,270,l),
(243,270,l),
(103,-311,l)
);
}
);
width = 614;
},
{
layerId = "FD60B6D8-DC1B-493D-A036-B8A9A3BDE096";
shapes = (
{
closed = 1;
nodes = (
(241,-332,l),
(492,268,l),
(287,268,l),
(142,-332,l)
);
}
);
width = 614;
},
{
layerId = "B769F827-5E5D-44DC-BEA8-1B95CFBF39E3";
shapes = (
{
closed = 1;
nodes = (
(231,-339,l),
(479,267,l),
(302,267,l),
(155,-339,l)
);
}
);
width = 614;
}
);
unicode = 44;
},
{
glyphname = hyphen;
layers = (
{
layerId = "F7413D4C-EAF4-4E43-8F2C-0DFA69218E69";
shapes = (
{
closed = 1;
nodes = (
(759,498,l,{name = .dv01;}),
(759,709,l,{name = .dv02;}),
(138,709,l),
(138,498,l)
);
}
);
width = 897;
},
{
layerId = "FF7C99D0-C175-48E4-AC69-2B77C3BA1C9F";
shapes = (
{
closed = 1;
nodes = (
(742,520,l),
(742,709,l),
(144,709,l),
(144,520,l)
);
}
);
width = 887;
},
{
layerId = "FD60B6D8-DC1B-493D-A036-B8A9A3BDE096";
shapes = (
{
closed = 1;
nodes = (
(696,586,l),
(696,708,l),
(164,708,l),
(164,586,l)
);
}
);
width = 859;
},
{
layerId = "B769F827-5E5D-44DC-BEA8-1B95CFBF39E3";
shapes = (
{
closed = 1;
nodes = (
(680,608,l),
(680,707,l),
(171,707,l),
(171,608,l)
);
}
);
width = 850;
}
);
leftKerningGroup = minus;
rightKerningGroup = minus1;
unicode = 45;
},
{
glyphname = period;
layers = (
{
layerId = "F7413D4C-EAF4-4E43-8F2C-0DFA69218E69";
shapes = (
{
closed = 1;
nodes = (
(462,0,l,{name = .dv01;}),
(462,293,l,{name = .dv02;}),
(196,293,l,{name = .dh01;}),
(196,0,l)
);
}
);
width = 657;
},
{
layerId = "FF7C99D0-C175-48E4-AC69-2B77C3BA1C9F";
shapes = (
{
closed = 1;
nodes = (
(432,0,l),
(432,270,l),
(181,270,l),
(181,0,l)
);
}
);
width = 614;
},
{
layerId = "FD60B6D8-DC1B-493D-A036-B8A9A3BDE096";
shapes = (
{
closed = 1;
nodes = (
(435,0,l),
(435,203,l),
(230,203,l),
(230,0,l)
);
}
);
width = 614;
},
{
layerId = "B769F827-5E5D-44DC-BEA8-1B95CFBF39E3";
shapes = (
{
closed = 1;
nodes = (
(436,0,l),
(436,181,l),
(246,181,l),
(246,0,l)
);
}
);
width = 614;
}
);
leftKerningGroup = period;
rightKerningGroup = period1;
unicode = 46;
},
{
glyphname = slash;
layers = (
{
layerId = "F7413D4C-EAF4-4E43-8F2C-0DFA69218E69";
shapes = (
{
closed = 1;
nodes = (
(203,-440,l,{name = .av02;}),
(1012,1552,l,{name = .av01;}),
(754,1552,l),
(-53,-440,l)
);
}
);
width = 958;
},
{
layerId = "FF7C99D0-C175-48E4-AC69-2B77C3BA1C9F";
shapes = (
{
closed = 1;
nodes = (
(195,-440,l),
(994,1552,l),
(761,1552,l),
(-38,-440,l)
);
}
);
width = 956;
},
{
layerId = "FD60B6D8-DC1B-493D-A036-B8A9A3BDE096";
shapes = (
{
closed = 1;
nodes = (
(170,-441,l),
(944,1552,l),
(783,1552,l),
(8,-441,l)
);
}
);
width = 951;
},
{
layerId = "B769F827-5E5D-44DC-BEA8-1B95CFBF39E3";
shapes = (
{
closed = 1;
nodes = (
(162,-441,l),
(927,1552,l),
(790,1552,l),
(23,-441,l)
);
}
);
width = 949;
}
);
unicode = 47;
},
{
glyphname = zero;
layers = (
{
layerId = "F7413D4C-EAF4-4E43-8F2C-0DFA69218E69";
shapes = (
{
closed = 1;
nodes = (
(1022,-20,o),
(1210,364,o),
(1210,723,cs,{name = .sh01;}),
(1210,1082,o),
(1012,1470,o),
(609,1470,cs,{name = .dv04;}),
(203,1470,o),
(22,1091,o),
(22,724,cs,{name = .sh02;}),
(22,355,o),
(209,-20,o),
(624,-20,cs,{name = .dv01;})
);
},
{
closed = 1;
nodes = (
(397,255,o),
(308,531,o),
(308,710,cs,{name = .sh03;}),
(308,889,o),
(368,1190,o),
(604,1190,cs),
(828,1190,o),
(910,919,o),
(910,738,cs,{name = .ah01;}),
(910,553,o),
(849,255,o),
(617,255,cs,{name = .dv02;})
);
}
);
width = 1229;
},
{
layerId = "FF7C99D0-C175-48E4-AC69-2B77C3BA1C9F";
shapes = (
{
closed = 1;
nodes = (
(999,-20,o),
(1151,395,o),
(1151,722,cs),
(1151,1067,o),
(981,1470,o),
(608,1470,cs),
(210,1470,o),
(77,1045,o),
(77,724,cs),
(77,378,o),
(231,-20,o),
(621,-20,cs)
);
},
{
closed = 1;
nodes = (
(387,226,o),
(323,535,o),
(323,712,cs),
(323,905,o),
(384,1219,o),
(604,1219,cs),
(823,1219,o),
(892,924,o),
(892,742,cs),
(892,573,o),
(845,226,o),
(615,226,cs)
);
}
);
width = 1229;
},
{
layerId = "FD60B6D8-DC1B-493D-A036-B8A9A3BDE096";
shapes = (
{
closed = 1;
nodes = (
(981,-20,o),
(1133,413,o),
(1133,722,cs),
(1133,1044,o),
(986,1470,o),
(607,1470,cs),
(220,1470,o),
(94,1038,o),
(94,723,cs),
(94,393,o),
(220,-20,o),
(611,-20,cs)
);
},
{
closed = 1;
nodes = (
(323,133,o),
(255,494,o),
(255,720,cs),
(255,940,o),
(329,1311,o),
(606,1311,cs),
(881,1311,o),
(960,945,o),
(960,727,cs),
(960,515,o),
(886,133,o),
(609,133,cs)
);
}
);
width = 1229;
},
{
layerId = "B769F827-5E5D-44DC-BEA8-1B95CFBF39E3";
shapes = (
{
closed = 1;
nodes = (
(975,-20,o),
(1127,419,o),
(1127,722,cs),
(1127,1036,o),
(987,1470,o),
(607,1470,cs),
(223,1470,o),
(100,1036,o),
(100,722,cs),
(100,398,o),
(216,-20,o),
(607,-20,cs)
);
},
{
closed = 1;
nodes = (
(301,102,o),
(232,480,o),
(232,722,cs),
(232,951,o),
(311,1342,o),
(606,1342,cs),
(900,1342,o),
(982,952,o),
(982,722,cs),
(982,496,o),
(900,102,o),
(607,102,cs)
);
}
);
width = 1229;
}
);
unicode = 48;
},
{
glyphname = one;
layers = (
{
layerId = "F7413D4C-EAF4-4E43-8F2C-0DFA69218E69";
shapes = (
{
closed = 1;
nodes = (
(561,0,l),
(847,0,l,{name = .av01;}),
(847,1447,l,{name = .av02;}),
(570,1447,l),
(570,1403,ls,{name = .sh01;}),
(570,1312,o),
(524,1256,o),
(423,1256,cs),
(179,1256,l,{name = .dv02;}),
(179,1036,l,{name = .dv01;}),
(561,1036,l,{name = .dh01;})
);
}
);
width = 1229;
},
{
layerId = "FF7C99D0-C175-48E4-AC69-2B77C3BA1C9F";
shapes = (
{
closed = 1;
nodes = (
(574,0,l),
(830,0,l),
(830,1447,l),
(585,1447,l),
(585,1407,ls),
(585,1309,o),
(529,1252,o),
(430,1252,cs),
(191,1252,l),
(191,1055,l),
(574,1055,l)
);
}
);
width = 1229;
},
{
layerId = "FD60B6D8-DC1B-493D-A036-B8A9A3BDE096";
shapes = (
{
closed = 1;
nodes = (
(615,0,l),
(783,0,l),
(783,1447,l),
(628,1447,l),
(628,1430,ls),
(628,1308,o),
(566,1241,o),
(450,1241,cs),
(227,1241,l),
(227,1108,l),
(615,1108,l)
);
}
);
width = 1229;
},
{
layerId = "B769F827-5E5D-44DC-BEA8-1B95CFBF39E3";
shapes = (
{
closed = 1;
nodes = (
(628,0,l),
(767,0,l),
(767,1447,l),
(642,1447,l),
(642,1437,ls),
(642,1307,o),
(578,1237,o),
(456,1237,cs),
(239,1237,l),
(239,1126,l),
(628,1126,l)
);
}
);
width = 1229;
}
);
unicode = 49;
},
{
glyphname = two;
layers = (
{
layerId = "F7413D4C-EAF4-4E43-8F2C-0DFA69218E69";
shapes = (
{
closed = 1;
nodes = (
(37,0,l),
(1164,0,l,{name = .dv01;}),
(1164,264,l,{name = .dv02;}),
(529,264,l),
(934,536,o),
(1094,752,o),
(1094,1033,cs,{name = .dh02;}),
(1094,1283,o),
(865,1466,o),
(624,1466,cs,{name = .dv04;}),
(311,1466,o),
(93,1200,o),
(93,921,c),
(377,904,l),
(377,1060,o),
(440,1205,o),
(616,1205,cs,{name = .dv03;}),
(736,1205,o),
(805,1133,o),
(805,1015,cs,{name = .dh01;}),
(805,742,o),
(246,309,o),
(29,219,c,{name = .iv01;}),
(37,224,l,{name = .iv02;})
);
}
);
width = 1229;
},
{
layerId = "FF7C99D0-C175-48E4-AC69-2B77C3BA1C9F";
shapes = (
{
closed = 1;
nodes = (
(53,0,l),
(1150,0,l),
(1150,234,l),
(481,234,l),
(734,388,o),
(1079,733,o),
(1079,1038,cs),
(1079,1301,o),
(862,1466,o),
(613,1466,cs),
(324,1466,o),
(127,1244,o),
(111,972,c),
(365,948,l),
(373,1097,o),
(445,1233,o),
(615,1233,cs),
(756,1233,o),
(819,1142,o),
(819,1023,cs),
(819,736,o),
(377,408,o),
(138,258,cs),
(53,206,l)
);
}
);
width = 1229;
},
{
layerId = "FD60B6D8-DC1B-493D-A036-B8A9A3BDE096";
shapes = (
{
closed = 1;
nodes = (
(100,0,l),
(1108,0,l),
(1108,145,l),
(339,145,l),
(619,343,o),
(1037,684,o),
(1037,1052,cs),
(1037,1309,o),
(859,1466,o),
(608,1466,cs),
(330,1466,o),
(168,1258,o),
(164,993,c),
(327,977,l),
(329,1151,o),
(416,1316,o),
(613,1316,cs),
(778,1316,o),
(865,1201,o),
(865,1047,cs),
(865,720,o),
(412,350,o),
(153,184,cs),
(100,150,l)
);
}
);
width = 1229;
},
{
layerId = "B769F827-5E5D-44DC-BEA8-1B95CFBF39E3";
shapes = (
{
closed = 1;
nodes = (
(115,0,l),
(1094,0,l),
(1094,115,l),
(291,115,l),
(581,328,o),
(1023,667,o),
(1023,1057,cs),
(1023,1311,o),
(858,1466,o),
(606,1466,cs),
(332,1466,o),
(182,1262,o),
(182,1000,c),
(314,986,l),
(314,1169,o),
(406,1343,o),
(612,1343,cs),
(785,1343,o),
(880,1221,o),
(880,1055,cs),
(880,714,o),
(424,330,o),
(158,159,cs),
(115,131,l)
);
}
);
width = 1229;
}
);
unicode = 50;
},
{
glyphname = three;
layers = (
{
layerId = "F7413D4C-EAF4-4E43-8F2C-0DFA69218E69";
shapes = (
{
closed = 1;
nodes = (
(44,472,l,{name = .dh01;}),
(44,142,o),
(313,-20,o),
(611,-20,cs,{name = .dv01;}),
(874,-20,o),
(1150,142,o),
(1150,438,cs,{name = .dh04;}),
(1150,594,o),
(1083,710,o),
(959,788,c),
(1029,861,o),
(1071,962,o),
(1071,1068,cs,{name = .ih01;}),
(1071,1311,o),
(841,1468,o),
(601,1468,cs,{name = .dv04;}),
(340,1468,o),
(114,1300,o),
(114,1023,c,{name = .ih02;}),
(389,1005,l,{name = .sh01;}),
(389,1137,o),
(486,1196,o),
(598,1196,cs,{name = .dv03;}),
(720,1196,o),
(791,1138,o),
(791,1032,cs,{name = .sh02;}),
(791,950,o),
(747,889,o),
(641,889,cs),
(454,889,l,{name = .dv06;}),
(454,646,l,{name = .dv05;}),
(641,646,ls),
(765,646,o),
(870,593,o),
(870,456,cs,{name = .dh03;}),
(870,319,o),
(746,249,o),
(602,249,cs,{name = .dv02;}),
(438,249,o),
(323,341,o),
(323,487,c,{name = .dh02;})
);
}
);
width = 1229;
},
{
layerId = "FF7C99D0-C175-48E4-AC69-2B77C3BA1C9F";
shapes = (
{
closed = 1;
nodes = (
(58,457,l),
(58,136,o),
(308,-20,o),
(598,-20,cs),
(883,-20,o),
(1133,131,o),
(1133,432,cs),
(1133,580,o),
(1068,707,o),
(929,786,c),
(1007,856,o),
(1055,956,o),
(1055,1074,cs),
(1055,1331,o),
(822,1468,o),
(591,1468,cs),
(327,1468,o),
(128,1303,o),
(128,1038,c),
(373,1021,l),
(379,1153,o),
(466,1227,o),
(596,1227,cs),
(714,1227,o),
(805,1167,o),
(805,1042,cs),
(805,934,o),
(741,877,o),
(635,877,cs),
(468,877,l),
(468,658,l),
(635,658,ls),
(792,658,o),
(885,577,o),
(885,446,cs),
(885,283,o),
(740,218,o),
(600,218,cs),
(432,218,o),
(306,310,o),
(306,472,c)
);
}
);
width = 1229;
},
{
layerId = "FD60B6D8-DC1B-493D-A036-B8A9A3BDE096";
shapes = (
{
closed = 1;
nodes = (
(100,411,l),
(100,120,o),
(325,-20,o),
(593,-20,cs),
(864,-20,o),
(1084,126,o),
(1084,413,cs),
(1084,585,o),
(1001,718,o),
(838,780,c),
(950,851,o),
(1006,961,o),
(1006,1097,cs),
(1006,1330,o),
(806,1468,o),
(588,1468,cs),
(356,1468,o),
(169,1326,o),
(169,1085,c),
(323,1068,l),
(324,1221,o),
(443,1317,o),
(590,1317,cs),
(735,1317,o),
(847,1220,o),
(847,1071,cs),
(847,930,o),
(758,840,o),
(620,840,cs),
(509,840,l),
(509,695,l),
(601,695,ls),
(782,695,o),
(927,612,o),
(927,415,cs),
(927,229,o),
(764,127,o),
(594,127,cs),
(413,127,o),
(256,234,o),
(256,426,c)
);
}
);
width = 1229;
},
{
layerId = "B769F827-5E5D-44DC-BEA8-1B95CFBF39E3";
shapes = (
{
closed = 1;
nodes = (
(114,396,l),
(114,114,o),
(331,-20,o),
(591,-20,cs),
(857,-20,o),
(1067,124,o),
(1067,407,cs),
(1067,587,o),
(979,721,o),
(807,778,c),
(931,849,o),
(989,962,o),
(989,1104,cs),
(989,1330,o),
(801,1468,o),
(587,1468,cs),
(366,1468,o),
(182,1334,o),
(182,1101,c),
(306,1084,l),
(306,1244,o),
(435,1347,o),
(588,1347,cs),
(742,1347,o),
(861,1237,o),
(861,1081,cs),
(861,929,o),
(763,828,o),
(615,828,cs),
(522,828,l),
(522,707,l),
(589,707,ls),
(779,707,o),
(941,623,o),
(941,404,cs),
(941,211,o),
(772,97,o),
(592,97,cs),
(407,97,o),
(239,209,o),
(239,410,c)
);
}
);
width = 1229;
}
);
unicode = 51;
},
{
glyphname = four;
layers = (
{
layerId = "F7413D4C-EAF4-4E43-8F2C-0DFA69218E69";
shapes = (
{
closed = 1;
nodes = (
(-2,325,l,{name = .sv01;}),
(668,325,l,{name = .dh01;}),
(668,0,l),
(953,0,l,{name = .av01;}),
(953,325,l,{name = .dv01;}),
(1185,325,l),
(1185,592,l),
(953,592,l,{name = .dv02;}),
(953,1447,l,{name = .av02;}),
(712,1447,l),
(-2,493,l)
);
},
{
closed = 1;
nodes = (
(376,592,l,{name = .iv01;}),
(668,1000,l,{name = .iv02;}),
(668,592,l,{name = .sv02;})
);
}
);
width = 1229;
},
{
layerId = "FF7C99D0-C175-48E4-AC69-2B77C3BA1C9F";
shapes = (
{
closed = 1;
nodes = (
(40,339,l),
(683,339,l),
(683,0,l),
(939,0,l),
(939,339,l),
(1161,339,l),
(1161,578,l),
(939,578,l),
(939,1447,l),
(719,1447,l),
(40,488,l)
);
},
{
closed = 1;
nodes = (
(371,578,l),
(683,1030,l),
(683,578,l)
);
}
);
width = 1229;
},
{
layerId = "FD60B6D8-DC1B-493D-A036-B8A9A3BDE096";
shapes = (
{
closed = 1;
nodes = (
(71,386,l),
(732,386,l),
(732,0,l),
(897,0,l),
(897,386,l),
(1124,386,l),
(1124,532,l),
(897,532,l),
(897,1447,l),
(746,1447,l),
(71,481,l)
);
},
{
closed = 1;
nodes = (
(271,532,l),
(732,1186,l),
(732,532,l)
);
}
);
width = 1229;
},
{
layerId = "B769F827-5E5D-44DC-BEA8-1B95CFBF39E3";
shapes = (
{
closed = 1;
nodes = (
(81,401,l),
(748,401,l),
(748,0,l),
(883,0,l),
(883,401,l),
(1111,401,l),
(1111,516,l),
(883,516,l),
(883,1447,l),
(755,1447,l),
(81,479,l)
);
},
{
closed = 1;
nodes = (
(237,516,l),
(748,1238,l),
(748,516,l)
);
}
);
width = 1229;
}
);
unicode = 52;
},
{
glyphname = five;
layers = (
{
layerId = "F7413D4C-EAF4-4E43-8F2C-0DFA69218E69";
shapes = (
{
closed = 1;
nodes = (
(67,432,l),
(122,154,o),
(329,-20,o),
(604,-20,cs,{name = .dv01;}),
(923,-20,o),
(1150,200,o),
(1150,510,cs),
(1150,807,o),
(952,1010,o),
(656,1010,cs,{name = .dv06;}),
(589,1010,o),
(525,997,o),
(438,968,c),
(482,1178,l,{name = .dv03;}),
(1085,1178,l),
(1085,1447,l),
(251,1447,l,{name = .dv04;}),
(106,676,l),
(371,618,l),
(413,690,o),
(512,744,o),
(601,744,cs,{name = .dv05;}),
(752,744,o),
(855,645,o),
(855,501,cs,{name = .dh01;}),
(855,346,o),
(758,245,o),
(612,245,cs),
(474,245,o),
(370,343,o),
(338,504,c)
);
}
);
width = 1229;
},
{
layerId = "FF7C99D0-C175-48E4-AC69-2B77C3BA1C9F";
shapes = (
{
closed = 1;
nodes = (
(84,420,l),
(143,160,o),
(356,-20,o),
(606,-20,cs),
(894,-20,o),
(1137,214,o),
(1137,493,cs),
(1137,770,o),
(915,994,o),
(644,994,cs),
(567,994,o),
(492,975,o),
(420,937,c),
(472,1208,l),
(1072,1208,l),
(1072,1447,l),
(266,1447,l),
(126,686,l),
(360,627,l),
(412,709,o),
(508,761,o),
(606,761,cs),
(762,761,o),
(872,651,o),
(872,495,cs),
(872,342,o),
(751,214,o),
(606,214,cs),
(463,214,o),
(365,309,o),
(325,486,c)
);
}
);
width = 1229;
},
{
layerId = "FD60B6D8-DC1B-493D-A036-B8A9A3BDE096";
shapes = (
{
closed = 1;
nodes = (
(134,383,l),
(190,138,o),
(375,-20,o),
(610,-20,cs),
(881,-20,o),
(1098,200,o),
(1098,474,cs),
(1098,742,o),
(901,949,o),
(646,949,cs),
(528,949,o),
(438,916,o),
(364,844,c),
(441,1298,l),
(1033,1298,l),
(1033,1447,l),
(310,1447,l),
(182,715,l),
(329,651,l),
(391,749,o),
(498,805,o),
(623,805,cs),
(803,805,o),
(928,670,o),
(928,475,cs),
(928,274,o),
(792,127,o),
(608,127,cs),
(438,127,o),
(325,235,o),
(285,433,c)
);
}
);
width = 1229;
},
{
layerId = "B769F827-5E5D-44DC-BEA8-1B95CFBF39E3";
shapes = (
{
closed = 1;
nodes = (
(150,371,l),
(205,130,o),
(381,-20,o),
(611,-20,cs),
(876,-20,o),
(1085,195,o),
(1085,468,cs),
(1085,733,o),
(896,934,o),
(647,934,cs),
(515,934,o),
(420,896,o),
(345,813,c),
(430,1328,l),
(1020,1328,l),
(1020,1447,l),
(325,1447,l),
(201,725,l),
(318,659,l),
(384,762,o),
(494,819,o),
(629,819,cs),
(817,819,o),
(946,676,o),
(946,468,cs),
(946,251,o),
(806,98,o),
(608,98,cs),
(430,98,o),
(312,210,o),
(272,415,c)
);
}
);
width = 1229;
}
);
unicode = 53;
},
{
glyphname = six;
layers = (
{
layerId = "F7413D4C-EAF4-4E43-8F2C-0DFA69218E69";
shapes = (
{
closed = 1;
nodes = (
(899,-20,o),
(1158,201,o),
(1158,482,cs),
(1158,774,o),
(916,986,o),
(631,986,cs),
(606,986,o),
(566,983,o),
(542,980,c),
(599,961,l),
(927,1447,l,{name = .av01;}),
(591,1447,l),
(153,741,ls),
(98,653,o),
(73,575,o),
(73,471,cs),
(73,175,o),
(352,-20,o),
(627,-20,cs,{name = .dv01;})
);
},
{
closed = 1;
nodes = (
(497,253,o),
(357,345,o),
(357,485,cs,{name = .sh04;}),
(357,621,o),
(474,730,o),
(609,730,cs),
(751,730,o),
(874,633,o),
(874,485,cs),
(874,357,o),
(749,253,o),
(625,253,cs,{name = .dv02;})
);
}
);
width = 1229;
},
{
layerId = "FF7C99D0-C175-48E4-AC69-2B77C3BA1C9F";
shapes = (
{
closed = 1;
nodes = (
(898,-20,o),
(1144,193,o),
(1144,486,cs),
(1144,775,o),
(898,971,o),
(620,971,cs),
(581,971,o),
(515,967,o),
(474,961,c),
(570,945,l),
(899,1447,l),
(601,1447,l),
(167,734,ls),
(119,655,o),
(89,572,o),
(89,478,cs),
(89,191,o),
(333,-20,o),
(615,-20,cs)
);
},
{
closed = 1;
nodes = (
(471,222,o),
(343,336,o),
(343,484,cs),
(343,636,o),
(471,746,o),
(617,746,cs),
(764,746,o),
(891,632,o),
(891,484,cs),
(891,333,o),
(762,222,o),
(617,222,cs)
);
}
);
width = 1229;
},
{
layerId = "FD60B6D8-DC1B-493D-A036-B8A9A3BDE096";
shapes = (
{
closed = 1;
nodes = (
(885,-20,o),
(1096,195,o),
(1096,471,cs),
(1096,743,o),
(879,927,o),
(618,927,cs),
(562,927,o),
(493,917,o),
(439,900,c),
(478,887,l),
(810,1447,l),
(626,1447,l),
(201,712,ls),
(154,631,o),
(131,552,o),
(131,458,cs),
(131,196,o),
(345,-20,o),
(608,-20,cs)
);
},
{
closed = 1;
nodes = (
(439,132,o),
(295,282,o),
(295,459,cs),
(295,644,o),
(427,786,o),
(613,786,cs),
(793,786,o),
(935,646,o),
(935,467,cs),
(935,291,o),
(798,132,o),
(617,132,cs)
);
}
);
width = 1229;
},
{
layerId = "B769F827-5E5D-44DC-BEA8-1B95CFBF39E3";
shapes = (
{
closed = 1;
nodes = (
(881,-20,o),
(1080,195,o),
(1080,466,cs),
(1080,732,o),
(873,912,o),
(617,912,cs),
(556,912,o),
(486,900,o),
(427,880,c),
(447,868,l),
(780,1447,l),
(634,1447,l),
(212,705,ls),
(166,623,o),
(145,545,o),
(145,451,cs),
(145,197,o),
(349,-20,o),
(606,-20,cs)
);
},
{
closed = 1;
nodes = (
(428,102,o),
(279,264,o),
(279,451,cs),
(279,647,o),
(412,799,o),
(612,799,cs),
(803,799,o),
(949,651,o),
(949,461,cs),
(949,277,o),
(810,102,o),
(617,102,cs)
);
}
);
width = 1229;
}
);
unicode = 54;
},
{
glyphname = seven;
layers = (
{
layerId = "F7413D4C-EAF4-4E43-8F2C-0DFA69218E69";
shapes = (
{
closed = 1;
nodes = (
(191,0,l),
(512,0,l,{name = .av01;}),
(1160,1298,l),
(1160,1447,l),
(89,1447,l,{name = .dv02;}),
(89,1181,l,{name = .dv01;}),
(806,1181,l)
);
}
);
width = 1229;
},
{
layerId = "FF7C99D0-C175-48E4-AC69-2B77C3BA1C9F";
shapes = (
{
closed = 1;
nodes = (
(215,0,l),
(502,0,l),
(1144,1315,l),
(1144,1447,l),
(99,1447,l),
(99,1210,l),
(829,1210,l)
);
}
);
width = 1229;
},
{
layerId = "FD60B6D8-DC1B-493D-A036-B8A9A3BDE096";
shapes = (
{
closed = 1;
nodes = (
(283,0,l),
(471,0,l),
(1097,1363,l),
(1097,1447,l),
(128,1447,l),
(128,1298,l),
(900,1298,l)
);
}
);
width = 1229;
},
{
layerId = "B769F827-5E5D-44DC-BEA8-1B95CFBF39E3";
shapes = (
{
closed = 1;
nodes = (
(306,0,l),
(460,0,l),
(1081,1379,l),
(1081,1447,l),
(137,1447,l),
(137,1327,l),
(924,1327,l)
);
}
);
width = 1229;
}
);
unicode = 55;
},
{
glyphname = eight;
layers = (
{
layerId = "F7413D4C-EAF4-4E43-8F2C-0DFA69218E69";
shapes = (
{
closed = 1;
nodes = (
(928,-20,o),
(1164,167,o),
(1164,424,cs,{name = .sh01;}),
(1164,578,o),
(1099,697,o),
(968,782,c),
(1049,860,o),
(1092,960,o),
(1092,1070,cs,{name = .dh04;}),
(1092,1290,o),
(878,1468,o),
(613,1468,cs),
(353,1468,o),
(137,1286,o),
(137,1067,cs,{name = .ih02;}),
(137,956,o),
(178,861,o),
(261,782,c),
(134,697,o),
(65,570,o),
(65,421,cs,{name = .dh01;}),
(65,171,o),
(298,-20,o),
(604,-20,cs,{name = .dv01;})
);
},
{
closed = 1;
nodes = (
(502,894,o),
(424,962,o),
(424,1062,cs,{name = .sh02;}),
(424,1165,o),
(495,1227,o),
(611,1227,cs),
(737,1227,o),
(813,1165,o),
(813,1061,cs,{name = .dh03;}),
(813,959,o),
(736,894,o),
(617,894,cs,{name = .dv06;})
);
},
{
closed = 1;
nodes = (
(450,229,o),
(349,309,o),
(349,436,cs,{name = .dh02;}),
(349,562,o),
(451,642,o),
(611,642,cs,{name = .dv05;}),
(774,642,o),
(876,562,o),
(876,433,cs,{name = .ih01;}),
(876,308,o),
(773,229,o),
(611,229,cs,{name = .dv02;})
);
}
);
width = 1229;
},
{
layerId = "FF7C99D0-C175-48E4-AC69-2B77C3BA1C9F";
shapes = (
{
closed = 1;
nodes = (
(932,-20,o),
(1149,157,o),
(1149,418,cs),
(1149,575,o),
(1075,702,o),
(939,782,c),
(1028,858,o),
(1076,961,o),
(1076,1076,cs),
(1076,1300,o),
(878,1468,o),
(614,1468,cs),
(347,1468,o),
(153,1302,o),
(153,1074,cs),
(153,958,o),
(200,857,o),
(290,782,c),
(154,702,o),
(80,573,o),
(80,416,cs),
(80,159,o),
(299,-20,o),
(614,-20,cs)
);
},
{
closed = 1;
nodes = (
(491,879,o),
(409,954,o),
(409,1069,cs),
(409,1180,o),
(490,1252,o),
(618,1252,cs),
(748,1252,o),
(828,1181,o),
(828,1065,cs),
(828,952,o),
(746,879,o),
(618,879,cs)
);
},
{
closed = 1;
nodes = (
(442,202,o),
(334,291,o),
(334,430,cs),
(334,570,o),
(441,658,o),
(612,658,cs),
(782,658,o),
(891,568,o),
(891,428,cs),
(891,289,o),
(783,202,o),
(612,202,cs)
);
}
);
width = 1229;
},
{
layerId = "FD60B6D8-DC1B-493D-A036-B8A9A3BDE096";
shapes = (
{
closed = 1;
nodes = (
(908,-20,o),
(1104,146,o),
(1104,396,cs),
(1104,576,o),
(1019,706,o),
(854,781,c),
(969,849,o),
(1031,960,o),
(1031,1095,cs),
(1031,1312,o),
(857,1468,o),
(616,1468,cs),
(371,1468,o),
(197,1314,o),
(197,1098,cs),
(197,960,o),
(258,851,o),
(376,781,c),
(208,703,o),
(124,575,o),
(124,400,cs),
(124,147,o),
(319,-20,o),
(614,-20,cs)
);
},
{
closed = 1;
nodes = (
(464,834,o),
(363,935,o),
(363,1090,cs),
(363,1227,o),
(471,1327,o),
(618,1327,cs),
(768,1327,o),
(873,1225,o),
(873,1078,cs),
(873,935,o),
(769,834,o),
(620,834,cs)
);
},
{
closed = 1;
nodes = (
(417,119,o),
(287,237,o),
(287,413,cs),
(287,586,o),
(420,705,o),
(614,705,cs),
(802,705,o),
(935,585,o),
(935,412,cs),
(935,239,o),
(804,119,o),
(614,119,cs)
);
}
);
width = 1229;
},
{
layerId = "B769F827-5E5D-44DC-BEA8-1B95CFBF39E3";
shapes = (
{
closed = 1;
nodes = (
(900,-20,o),
(1089,142,o),
(1089,389,cs),
(1089,576,o),
(1000,707,o),
(826,780,c),
(949,846,o),
(1016,959,o),
(1016,1101,cs),
(1016,1316,o),
(850,1468,o),
(616,1468,cs),
(379,1468,o),
(211,1318,o),
(211,1106,cs),
(211,961,o),
(277,849,o),
(404,780,c),
(226,703,o),
(138,576,o),
(138,394,cs),
(138,143,o),
(326,-20,o),
(614,-20,cs)
);
},
{
closed = 1;
nodes = (
(455,819,o),
(348,928,o),
(348,1097,cs),
(348,1242,o),
(464,1352,o),
(618,1352,cs),
(775,1352,o),
(888,1239,o),
(888,1082,cs),
(888,929,o),
(776,819,o),
(621,819,cs)
);
},
{
closed = 1;
nodes = (
(409,91,o),
(271,219,o),
(271,407,cs),
(271,591,o),
(413,721,o),
(614,721,cs),
(809,721,o),
(950,590,o),
(950,407,cs),
(950,222,o),
(811,91,o),
(614,91,cs)
);
}
);
width = 1229;
}
);
unicode = 56;
},
{
glyphname = nine;
layers = (
{
layerId = "F7413D4C-EAF4-4E43-8F2C-0DFA69218E69";
shapes = (
{
closed = 1;
nodes = (
(330,1468,o),
(71,1247,o),
(71,966,cs),
(71,674,o),
(313,462,o),
(598,462,cs),
(623,462,o),
(663,465,o),
(687,468,c),
(630,487,l),
(302,1,l,{name = .av01;}),
(638,1,l),
(1076,707,ls),
(1131,795,o),
(1156,873,o),
(1156,977,cs),
(1156,1273,o),
(877,1468,o),
(602,1468,cs,{name = .dv01;})
);
},
{
closed = 1;
nodes = (
(732,1195,o),
(872,1103,o),
(872,963,cs,{name = .sh04;}),
(872,827,o),
(755,718,o),
(620,718,cs),
(478,718,o),
(355,815,o),
(355,963,cs),
(355,1091,o),
(480,1195,o),
(604,1195,cs,{name = .dv02;})
);
}
);
width = 1229;
},
{
layerId = "FF7C99D0-C175-48E4-AC69-2B77C3BA1C9F";
shapes = (
{
closed = 1;
nodes = (
(331,1468,o),
(85,1255,o),
(85,962,cs),
(85,673,o),
(331,477,o),
(609,477,cs),
(648,477,o),
(714,481,o),
(755,487,c),
(659,503,l),
(330,1,l),
(628,1,l),
(1062,714,ls),
(1110,793,o),
(1140,876,o),
(1140,970,cs),
(1140,1257,o),
(896,1468,o),
(614,1468,cs)
);
},
{
closed = 1;
nodes = (
(758,1226,o),
(886,1112,o),
(886,964,cs),
(886,812,o),
(758,702,o),
(612,702,cs),
(465,702,o),
(338,816,o),
(338,964,cs),
(338,1115,o),
(467,1226,o),
(612,1226,cs)
);
}
);
width = 1229;
},
{
layerId = "FD60B6D8-DC1B-493D-A036-B8A9A3BDE096";
shapes = (
{
closed = 1;
nodes = (
(344,1468,o),
(133,1253,o),
(133,977,cs),
(133,705,o),
(350,521,o),
(611,521,cs),
(667,521,o),
(736,531,o),
(790,548,c),
(751,561,l),
(419,1,l),
(603,1,l),
(1028,736,ls),
(1075,817,o),
(1098,896,o),
(1098,990,cs),
(1098,1252,o),
(884,1468,o),
(621,1468,cs)
);
},
{
closed = 1;
nodes = (
(790,1316,o),
(934,1166,o),
(934,989,cs),
(934,804,o),
(802,662,o),
(616,662,cs),
(436,662,o),
(294,802,o),
(294,981,cs),
(294,1157,o),
(431,1316,o),
(612,1316,cs)
);
}
);
width = 1229;
},
{
layerId = "B769F827-5E5D-44DC-BEA8-1B95CFBF39E3";
shapes = (
{
closed = 1;
nodes = (
(348,1468,o),
(149,1253,o),
(149,982,cs),
(149,716,o),
(356,536,o),
(612,536,cs),
(673,536,o),
(743,548,o),
(802,568,c),
(782,580,l),
(449,1,l),
(595,1,l),
(1017,743,ls),
(1063,825,o),
(1084,903,o),
(1084,997,cs),
(1084,1251,o),
(880,1468,o),
(623,1468,cs)
);
},
{
closed = 1;
nodes = (
(801,1346,o),
(950,1184,o),
(950,997,cs),
(950,801,o),
(817,649,o),
(617,649,cs),
(426,649,o),
(280,797,o),
(280,987,cs),
(280,1171,o),
(419,1346,o),
(612,1346,cs)
);
}
);
width = 1229;
}
);
unicode = 57;
},
{
glyphname = colon;
layers = (
{
layerId = "F7413D4C-EAF4-4E43-8F2C-0DFA69218E69";
shapes = (
{
closed = 1;
nodes = (
(495,684,l,{name = .dv03;}),
(495,977,l,{name = .dv04;}),
(200,977,l,{name = .dh01;}),
(200,684,l)
);
},
{
closed = 1;
nodes = (
(495,0,l,{name = .dv01;}),
(495,293,l,{name = .dv02;}),
(200,293,l,{name = .sh01;}),
(200,0,l)
);
}
);
width = 693;
},
{
layerId = "FF7C99D0-C175-48E4-AC69-2B77C3BA1C9F";
shapes = (
{
closed = 1;
nodes = (
(443,707,l),
(443,977,l),
(171,977,l),
(171,707,l)
);
},
{
closed = 1;
nodes = (
(443,0,l),
(443,270,l),
(171,270,l),
(171,0,l)
);
}
);
width = 614;
},
{
layerId = "FD60B6D8-DC1B-493D-A036-B8A9A3BDE096";
shapes = (
{
closed = 1;
nodes = (
(437,773,l),
(437,976,l),
(232,976,l),
(232,773,l)
);
},
{
closed = 1;
nodes = (
(437,0,l),
(437,203,l),
(232,203,l),
(232,0,l)
);
}
);
width = 614;
},
{
layerId = "B769F827-5E5D-44DC-BEA8-1B95CFBF39E3";
shapes = (
{
closed = 1;
nodes = (
(435,795,l),
(435,976,l),
(252,976,l),
(252,795,l)
);
},
{
closed = 1;
nodes = (
(435,0,l),
(435,181,l),
(252,181,l),
(252,0,l)
);
}
);
width = 614;
}
);
unicode = 58;
},
{
glyphname = semicolon;
layers = (
{
layerId = "F7413D4C-EAF4-4E43-8F2C-0DFA69218E69";
shapes = (
{
closed = 1;
nodes = (
(490,684,l,{name = .dv01;}),
(490,977,l,{name = .dv02;}),
(196,977,l,{name = .dh01;}),
(196,684,l)
);
},
{
closed = 1;
nodes = (
(293,-304,l,{name = .av01;}),
(557,270,l),
(242,270,l),
(104,-304,l)
);
}
);
width = 681;
},
{
layerId = "FF7C99D0-C175-48E4-AC69-2B77C3BA1C9F";
shapes = (
{
closed = 1;
nodes = (
(451,707,l),
(451,977,l),
(178,977,l),
(178,707,l)
);
},
{
closed = 1;
nodes = (
(245,-311,l),
(506,270,l),
(218,270,l),
(79,-311,l)
);
}
);
width = 614;
},
{
layerId = "FD60B6D8-DC1B-493D-A036-B8A9A3BDE096";
shapes = (
{
closed = 1;
nodes = (
(450,773,l),
(450,976,l),
(244,976,l),
(244,773,l)
);
},
{
closed = 1;
nodes = (
(221,-332,l),
(472,268,l),
(268,268,l),
(122,-332,l)
);
}
);
width = 614;
},
{
layerId = "B769F827-5E5D-44DC-BEA8-1B95CFBF39E3";
shapes = (
{
closed = 1;
nodes = (
(450,795,l),
(450,976,l),
(266,976,l),
(266,795,l)
);
},
{
closed = 1;
nodes = (
(213,-339,l),
(461,267,l),
(284,267,l),
(136,-339,l)
);
}
);
width = 614;
}
);
unicode = 59;
},
{
glyphname = less;
layers = (
{
layerId = "F7413D4C-EAF4-4E43-8F2C-0DFA69218E69";
shapes = (
{
closed = 1;
nodes = (
(1064,150,l,{name = .av02;}),
(1181,351,l),
(478,690,l,{name = .iv01;}),
(1181,1029,l),
(1064,1230,l,{name = .av01;}),
(28,690,l,{name = .iv02;})
);
}
);
width = 1275;
},
{
layerId = "FF7C99D0-C175-48E4-AC69-2B77C3BA1C9F";
shapes = (
{
closed = 1;
nodes = (
(1055,156,l),
(1160,338,l),
(451,690,l),
(1160,1042,l),
(1055,1225,l),
(46,690,l)
);
}
);
width = 1267;
},
{
layerId = "FD60B6D8-DC1B-493D-A036-B8A9A3BDE096";
shapes = (
{
closed = 1;
nodes = (
(1029,173,l),
(1101,297,l),
(368,690,l),
(1101,1083,l),
(1029,1207,l),
(102,690,l)
);
}
);
width = 1245;
},
{
layerId = "B769F827-5E5D-44DC-BEA8-1B95CFBF39E3";
shapes = (
{
closed = 1;
nodes = (
(1020,178,l),
(1081,283,l),
(340,690,l),
(1081,1096,l),
(1020,1201,l),
(120,690,l)
);
}
);
width = 1237;
}
);
unicode = 60;
},
{
glyphname = equal;
layers = (
{
layerId = "F7413D4C-EAF4-4E43-8F2C-0DFA69218E69";
shapes = (
{
closed = 1;
nodes = (
(1086,763,l,{name = .dv03;}),
(1086,996,l,{name = .dv04;}),
(214,996,l),
(214,763,l)
);
},
{
closed = 1;
nodes = (
(1086,379,l,{name = .dv01;}),
(1086,613,l,{name = .dv02;}),
(214,613,l),
(214,379,l)
);
}
);
width = 1299;
},
{
layerId = "FF7C99D0-C175-48E4-AC69-2B77C3BA1C9F";
shapes = (
{
closed = 1;
nodes = (
(1074,770,l),
(1074,981,l),
(224,981,l),
(224,770,l)
);
},
{
closed = 1;
nodes = (
(1074,394,l),
(1074,606,l),
(224,606,l),
(224,394,l)
);
}
);
width = 1298;
},
{
layerId = "FD60B6D8-DC1B-493D-A036-B8A9A3BDE096";
shapes = (
{
closed = 1;
nodes = (
(1039,792,l),
(1039,937,l),
(256,937,l),
(256,792,l)
);
},
{
closed = 1;
nodes = (
(1039,439,l),
(1039,583,l),
(256,583,l),
(256,439,l)
);
}
);
width = 1295;
},
{
layerId = "B769F827-5E5D-44DC-BEA8-1B95CFBF39E3";
shapes = (
{
closed = 1;
nodes = (
(1027,799,l),
(1027,922,l),
(266,922,l),
(266,799,l)
);
},
{
closed = 1;
nodes = (
(1027,454,l),
(1027,575,l),
(266,575,l),
(266,454,l)
);
}
);
width = 1294;
}
);
unicode = 61;
},
{
glyphname = greater;
layers = (
{
layerId = "F7413D4C-EAF4-4E43-8F2C-0DFA69218E69";
shapes = (
{
closed = 1;
nodes = (
(211,150,l,{name = .av02;}),
(1247,690,l,{name = .iv01;}),
(211,1230,l,{name = .av01;}),
(94,1029,l),
(797,690,l,{name = .iv02;}),
(94,351,l)
);
}
);
width = 1275;
},
{
layerId = "FF7C99D0-C175-48E4-AC69-2B77C3BA1C9F";
shapes = (
{
closed = 1;
nodes = (
(212,156,l),
(1221,690,l),
(212,1225,l),
(106,1042,l),
(816,690,l),
(106,338,l)
);
}
);
width = 1267;
},
{
layerId = "FD60B6D8-DC1B-493D-A036-B8A9A3BDE096";
shapes = (
{
closed = 1;
nodes = (
(215,173,l),
(1142,690,l),
(215,1207,l),
(144,1083,l),
(877,690,l),
(144,297,l)
);
}
);
width = 1245;
},
{
layerId = "B769F827-5E5D-44DC-BEA8-1B95CFBF39E3";
shapes = (
{
closed = 1;
nodes = (
(216,178,l),
(1116,690,l),
(216,1201,l),
(156,1096,l),
(897,690,l),
(156,283,l)
);
}
);
width = 1237;
}
);
unicode = 62;
},
{
glyphname = question;
layers = (
{
layerId = "F7413D4C-EAF4-4E43-8F2C-0DFA69218E69";
shapes = (
{
closed = 1;
nodes = (
(615,450,l),
(615,536,ls,{name = .sh01;}),
(615,603,o),
(642,635,o),
(741,685,cs),
(890,760,o),
(966,887,o),
(966,1064,cs),
(966,1309,o),
(777,1468,o),
(488,1468,cs),
(193,1468,o),
(31,1281,o),
(31,992,c,{name = .dh01;}),
(273,992,l,{name = .dh02;}),
(273,1160,o),
(336,1238,o),
(497,1238,cs,{name = .dv03;}),
(618,1238,o),
(730,1193,o),
(730,1059,cs),
(730,967,o),
(676,929,o),
(602,887,cs),
(443,797,o),
(381,709,o),
(381,571,cs,{name = .ih01;}),
(381,450,l)
);
},
{
closed = 1;
nodes = (
(649,0,l,{name = .dv01;}),
(649,293,l,{name = .dv02;}),
(353,293,l,{name = .dh03;}),
(353,0,l)
);
}
);
width = 1014;
},
{
layerId = "FF7C99D0-C175-48E4-AC69-2B77C3BA1C9F";
shapes = (
{
closed = 1;
nodes = (
(608,434,l),
(608,581,ls),
(608,627,o),
(641,654,o),
(722,698,cs),
(876,781,o),
(956,871,o),
(956,1059,cs),
(956,1324,o),
(747,1468,o),
(493,1468,cs),
(229,1468,o),
(46,1306,o),
(46,1015,c),
(266,1015,l),
(266,1179,o),
(344,1261,o),
(501,1261,cs),
(634,1261,o),
(738,1210,o),
(738,1063,cs),
(738,955,o),
(672,915,o),
(589,870,cs),
(443,790,o),
(396,724,o),
(396,583,cs),
(396,434,l)
);
},
{
closed = 1;
nodes = (
(642,0,l),
(642,270,l),
(369,270,l),
(369,0,l)
);
}
);
width = 1021;
},
{
layerId = "FD60B6D8-DC1B-493D-A036-B8A9A3BDE096";
shapes = (
{
closed = 1;
nodes = (
(586,391,l),
(586,614,ls),
(586,692,o),
(640,727,o),
(712,767,cs),
(825,829,o),
(935,915,o),
(935,1092,cs),
(935,1338,o),
(736,1468,o),
(506,1468,cs),
(285,1468,o),
(90,1320,o),
(90,1082,c),
(244,1082,l),
(244,1238,o),
(367,1328,o),
(514,1328,cs),
(662,1328,o),
(785,1257,o),
(785,1095,cs),
(785,966,o),
(712,917,o),
(631,871,cs),
(526,812,o),
(442,749,o),
(442,616,cs),
(442,391,l)
);
},
{
closed = 1;
nodes = (
(620,0,l),
(620,203,l),
(414,203,l),
(414,0,l)
);
}
);
width = 1044;
},
{
layerId = "B769F827-5E5D-44DC-BEA8-1B95CFBF39E3";
shapes = (
{
closed = 1;
nodes = (
(579,377,l),
(579,625,ls),
(579,713,o),
(639,751,o),
(709,790,cs),
(808,845,o),
(928,930,o),
(928,1103,cs),
(928,1343,o),
(732,1468,o),
(510,1468,cs),
(303,1468,o),
(105,1324,o),
(105,1104,c),
(236,1104,l),
(236,1257,o),
(375,1350,o),
(518,1350,cs),
(671,1350,o),
(800,1272,o),
(800,1106,cs),
(800,970,o),
(725,917,o),
(645,871,cs),
(554,819,o),
(457,757,o),
(457,627,cs),
(457,377,l)
);
},
{
closed = 1;
nodes = (
(612,0,l),
(612,181,l),
(429,181,l),
(429,0,l)
);
}
);
width = 1052;
}
);
unicode = 63;
},
{
glyphname = at;
layers = (
{
layerId = "F7413D4C-EAF4-4E43-8F2C-0DFA69218E69";
shapes = (
{
closed = 1;
nodes = (
(86,-16,o),
(519,-356,o),
(1015,-356,cs,{name = .dv01;}),
(1133,-356,o),
(1228,-339,o),
(1336,-302,c),
(1263,-100,l),
(1179,-128,o),
(1093,-140,o),
(1004,-140,cs,{name = .dv02;}),
(624,-140,o),
(297,137,o),
(297,538,cs,{name = .dh02;}),
(297,960,o),
(611,1262,o),
(1033,1262,cs,{name = .dv03;}),
(1468,1262,o),
(1755,981,o),
(1755,558,cs,{name = .dh05;}),
(1755,386,o),
(1693,131,o),
(1479,131,cs),
(1403,131,o),
(1392,170,o),
(1392,239,cs),
(1392,349,o),
(1442,581,o),
(1480,743,cs),
(1489,782,ls),
(1508,861,o),
(1533,963,o),
(1547,1043,c),
(1331,1043,l),
(1315,973,l,{name = .iv01;}),
(1255,1054,o),
(1167,1094,o),
(1052,1094,cs,{name = .dv08;}),
(730,1094,o),
(548,728,o),
(548,445,cs,{name = .dh03;}),
(548,241,o),
(664,37,o),
(892,37,cs,{name = .dv05;}),
(1006,37,o),
(1106,73,o),
(1191,144,c,{name = .iv02;}),
(1222,-9,o),
(1323,-85,o),
(1483,-85,cs),
(1813,-85,o),
(1964,267,o),
(1964,553,cs,{name = .dh06;}),
(1964,1048,o),
(1589,1468,o),
(1031,1468,cs,{name = .dv04;}),
(499,1468,o),
(86,1080,o),
(86,534,cs,{name = .dh01;})
);
},
{
closed = 1;
nodes = (
(804,251,o),
(751,315,o),
(751,445,cs,{name = .dh04;}),
(751,644,o),
(870,880,o),
(1082,880,cs,{name = .dv07;}),
(1196,880,o),
(1244,812,o),
(1244,689,cs),
(1244,500,o),
(1132,251,o),
(914,251,cs,{name = .dv06;})
);
}
);
width = 2047;
},
{
layerId = "FF7C99D0-C175-48E4-AC69-2B77C3BA1C9F";
shapes = (
{
closed = 1;
nodes = (
(102,18,o),
(491,-356,o),
(1023,-356,cs),
(1139,-356,o),
(1245,-338,o),
(1342,-302,c),
(1273,-116,l),
(1194,-143,o),
(1112,-156,o),
(1025,-156,cs),
(598,-156,o),
(298,130,o),
(298,537,cs),
(298,967,o),
(608,1275,o),
(1042,1275,cs),
(1460,1275,o),
(1770,971,o),
(1770,562,cs),
(1770,306,o),
(1652,126,o),
(1483,126,cs),
(1409,126,o),
(1386,154,o),
(1386,242,cs),
(1386,311,o),
(1395,381,o),
(1411,455,cs),
(1480,762,ls),
(1497,840,o),
(1527,969,o),
(1542,1036,c),
(1341,1036,l),
(1321,948,l),
(1269,1037,o),
(1174,1086,o),
(1055,1086,cs),
(787,1086,o),
(558,796,o),
(558,455,cs),
(558,205,o),
(693,44,o),
(902,44,cs),
(1010,44,o),
(1117,87,o),
(1202,164,c),
(1216,8,o),
(1319,-78,o),
(1489,-78,cs),
(1765,-78,o),
(1965,189,o),
(1965,558,cs),
(1965,1080,o),
(1571,1466,o),
(1040,1466,cs),
(497,1466,o),
(102,1072,o),
(102,532,cs)
);
},
{
closed = 1;
nodes = (
(804,244,o),
(746,315,o),
(746,457,cs),
(746,711,o),
(899,921,o),
(1084,921,cs),
(1198,921,o),
(1254,851,o),
(1254,712,cs),
(1254,455,o),
(1103,244,o),
(919,244,cs)
);
}
);
width = 2063;
},
{
layerId = "FD60B6D8-DC1B-493D-A036-B8A9A3BDE096";
shapes = (
{
closed = 1;
nodes = (
(150,9,o),
(523,-357,o),
(1049,-357,cs),
(1161,-357,o),
(1264,-340,o),
(1359,-304,c),
(1305,-162,l),
(1227,-189,o),
(1141,-202,o),
(1051,-202,cs),
(605,-202,o),
(299,97,o),
(299,531,cs),
(299,993,o),
(618,1321,o),
(1070,1321,cs),
(1504,1321,o),
(1820,1003,o),
(1820,567,cs),
(1820,281,o),
(1693,90,o),
(1505,90,cs),
(1420,90,o),
(1373,147,o),
(1373,247,cs),
(1373,325,o),
(1384,404,o),
(1407,505,cs),
(1457,728,ls),
(1484,845,o),
(1508,946,o),
(1525,1014,c),
(1369,1014,l),
(1349,914,l),
(1304,1011,o),
(1203,1064,o),
(1064,1064,cs),
(798,1064,o),
(571,781,o),
(571,447,cs),
(571,215,o),
(699,66,o),
(898,66,cs),
(1033,66,o),
(1151,121,o),
(1237,224,c),
(1221,61,o),
(1334,-56,o),
(1510,-56,cs),
(1781,-56,o),
(1969,200,o),
(1969,571,cs),
(1969,1088,o),
(1589,1466,o),
(1069,1466,cs),
(538,1466,o),
(150,1071,o),
(150,527,cs)
);
},
{
closed = 1;
nodes = (
(799,220,o),
(733,299,o),
(733,456,cs),
(733,718,o),
(896,937,o),
(1092,937,cs),
(1220,937,o),
(1287,856,o),
(1287,702,cs),
(1287,439,o),
(1126,220,o),
(930,220,cs)
);
}
);
width = 2114;
},
{
layerId = "B769F827-5E5D-44DC-BEA8-1B95CFBF39E3";
shapes = (
{
closed = 1;
nodes = (
(166,6,o),
(534,-357,o),
(1058,-357,cs),
(1168,-357,o),
(1270,-340,o),
(1365,-305,c),
(1315,-177,l),
(1238,-204,o),
(1151,-217,o),
(1060,-217,cs),
(607,-217,o),
(299,86,o),
(299,529,cs),
(299,1002,o),
(621,1336,o),
(1079,1336,cs),
(1518,1336,o),
(1836,1014,o),
(1836,568,cs),
(1836,272,o),
(1707,78,o),
(1512,78,cs),
(1424,78,o),
(1369,144,o),
(1369,249,cs),
(1369,329,o),
(1380,412,o),
(1405,522,cs),
(1449,717,ls),
(1479,847,o),
(1501,938,o),
(1519,1007,c),
(1378,1007,l),
(1358,902,l),
(1315,1002,o),
(1213,1057,o),
(1067,1057,cs),
(801,1057,o),
(575,776,o),
(575,444,cs),
(575,218,o),
(701,73,o),
(897,73,cs),
(1040,73,o),
(1162,132,o),
(1249,244,c),
(1222,78,o),
(1339,-49,o),
(1517,-49,cs),
(1786,-49,o),
(1970,204,o),
(1970,575,cs),
(1970,1091,o),
(1595,1466,o),
(1079,1466,cs),
(551,1466,o),
(166,1070,o),
(166,525,cs)
);
},
{
closed = 1;
nodes = (
(797,212,o),
(728,294,o),
(728,456,cs),
(728,720,o),
(895,942,o),
(1095,942,cs),
(1227,942,o),
(1298,857,o),
(1298,699,cs),
(1298,434,o),
(1133,212,o),
(934,212,cs)
);
}
);
width = 2131;
}
);
unicode = 64;
},
{
glyphname = A;
layers = (
{
anchors = (
{
name = top;
position = "{696, 1620}";
},
{
name = ogonek;
position = "{1390, 0}";
},
{
name = center;
position = "{696, 1550}";
},
{
name = bottom;
position = "{696, -150}";
}
);
layerId = "F7413D4C-EAF4-4E43-8F2C-0DFA69218E69";
shapes = (
{
closed = 1;
nodes = (
(-4,0,l,{name = .av02;}),
(312,0,l),
(717,1050,l),
(655,1050,l),
(1057,0,l),
(1391,0,l,{name = .av01;}),
(803,1448,l,{name = .av03;}),
(587,1448,l)
);
},
{
closed = 1;
nodes = (
(365,314,l),
(1027,314,l),
(927,559,l),
(463,559,l)
);
}
);
width = 1388;
},
{
anchors = (
{
name = top;
position = "{690, 1620}";
},
{
name = ogonek;
position = "{1363, 0}";
},
{
name = center;
position = "{690, 1555}";
},
{
name = bottom;
position = "{690, -150}";
}
);
layerId = "FF7C99D0-C175-48E4-AC69-2B77C3BA1C9F";
shapes = (
{
closed = 1;
nodes = (
(12,0,l),
(296,0,l),
(721,1095,l),
(649,1095,l),
(1072,0,l),
(1363,0,l),
(786,1448,l),
(592,1448,l)
);
},
{
closed = 1;
nodes = (
(378,314,l),
(1002,314,l),
(914,537,l),
(466,537,l)
);
}
);
width = 1376;
},
{
anchors = (
{
name = top;
position = "{675, 1620}";
},
{
name = ogonek;
position = "{1281, 0}";
},
{
name = center;
position = "{675, 1551}";
},
{
name = bottom;
position = "{675, -150}";
}
);
layerId = "FD60B6D8-DC1B-493D-A036-B8A9A3BDE096";
shapes = (
{
closed = 1;
nodes = (
(61,0,l,{name = .av02;}),
(246,0,l),
(698,1228,l),
(650,1228,l),
(1097,0,l),
(1281,0,l,{name = .av01;}),
(738,1448,l),
(608,1448,l)
);
},
{
closed = 1;
nodes = (
(326,360,l,{name = .dv01;}),
(1019,360,l),
(962,506,l,{name = .av03;}),
(383,506,l,{name = .dv02;})
);
}
);
width = 1342;
},
{
anchors = (
{
name = top;
position = "{670, 1620}";
},
{
name = ogonek;
position = "{1254, 0}";
},
{
name = center;
position = "{670, 1549}";
},
{
name = bottom;
position = "{670, -150}";
}
);
layerId = "B769F827-5E5D-44DC-BEA8-1B95CFBF39E3";
shapes = (
{
closed = 1;
nodes = (
(77,0,l,{name = .av02;}),
(229,0,l),
(690,1272,l),
(650,1272,l),
(1105,0,l),
(1254,0,l,{name = .av01;}),
(722,1448,l),
(613,1448,l)
);
},
{
closed = 1;
nodes = (
(309,375,l,{name = .dv01;}),
(1025,375,l),
(978,495,l,{name = .av03;}),
(355,495,l,{name = .dv02;})
);
}
);
width = 1331;
}
);
leftKerningGroup = A;
rightKerningGroup = A1;
unicode = 65;
},
{
glyphname = B;
layers = (
{
layerId = "F7413D4C-EAF4-4E43-8F2C-0DFA69218E69";
shapes = (
{
closed = 1;
nodes = (
(177,0,l),
(778,0,ls,{name = .dv01;}),
(1065,0,o),
(1244,168,o),
(1244,437,cs,{name = .sh01;}),
(1244,569,o),
(1123,763,o),
(994,784,c,{name = .iv01;}),
(993,766,l),
(1099,801,o),
(1172,937,o),
(1172,1047,cs,{name = .dh04;}),
(1172,1316,o),
(955,1448,o),
(710,1448,cs,{name = .dv04;}),
(177,1448,l,{name = .dh01;})
);
},
{
closed = 1;
nodes = (
(467,881,l,{name = .dv06;}),
(467,1186,l,{name = .dh02;}),
(715,1186,ls,{name = .dv03;}),
(807,1186,o),
(912,1141,o),
(912,1034,cs,{name = .dh03;}),
(912,918,o),
(842,881,o),
(742,881,cs)
);
},
{
closed = 1;
nodes = (
(467,279,l,{name = .sh02;}),
(467,632,l,{name = .dv05;}),
(759,632,ls),
(852,632,o),
(958,568,o),
(958,465,cs,{name = .ih01;}),
(958,334,o),
(885,279,o),
(773,279,cs,{name = .dv02;})
);
}
);
width = 1315;
},
{
layerId = "FF7C99D0-C175-48E4-AC69-2B77C3BA1C9F";
shapes = (
{
closed = 1;
nodes = (
(186,0,l),
(751,0,ls),
(1027,0,o),
(1223,174,o),
(1223,420,cs),
(1223,599,o),
(1125,736,o),
(962,784,c),
(962,761,l),
(1075,805,o),
(1151,925,o),
(1151,1057,cs),
(1151,1297,o),
(973,1448,o),
(688,1448,cs),
(186,1448,l)
);
},
{
closed = 1;
nodes = (
(446,864,l),
(446,1213,l),
(692,1213,ls),
(827,1213,o),
(912,1146,o),
(912,1042,cs),
(912,923,o),
(846,864,o),
(713,864,cs)
);
},
{
closed = 1;
nodes = (
(446,248,l),
(446,640,l),
(744,640,ls),
(873,640,o),
(967,560,o),
(967,449,cs),
(967,317,o),
(894,248,o),
(755,248,cs)
);
}
);
width = 1305;
},
{
layerId = "FD60B6D8-DC1B-493D-A036-B8A9A3BDE096";
shapes = (
{
closed = 1;
nodes = (
(215,0,l),
(699,0,ls),
(985,0,o),
(1160,148,o),
(1160,389,cs),
(1160,595,o),
(1062,727,o),
(871,779,c),
(872,751,l),
(1016,807,o),
(1088,921,o),
(1088,1086,cs),
(1088,1308,o),
(910,1448,o),
(625,1448,cs),
(215,1448,l)
);
},
{
closed = 1;
nodes = (
(382,815,l),
(382,1296,l),
(628,1296,ls),
(817,1296,o),
(914,1217,o),
(914,1065,cs),
(914,906,o),
(810,815,o),
(628,815,cs)
);
},
{
closed = 1;
nodes = (
(382,158,l),
(382,663,l),
(704,663,ls),
(890,663,o),
(992,570,o),
(992,400,cs),
(992,240,o),
(894,158,o),
(703,158,cs)
);
}
);
width = 1278;
},
{
layerId = "B769F827-5E5D-44DC-BEA8-1B95CFBF39E3";
shapes = (
{
closed = 1;
nodes = (
(225,0,l),
(682,0,ls),
(971,0,o),
(1139,139,o),
(1139,379,cs),
(1139,593,o),
(1041,724,o),
(840,777,c),
(842,748,l),
(996,808,o),
(1067,920,o),
(1067,1096,cs),
(1067,1312,o),
(889,1448,o),
(604,1448,cs),
(225,1448,l)
);
},
{
closed = 1;
nodes = (
(360,798,l),
(360,1323,l),
(606,1323,ls),
(814,1323,o),
(915,1240,o),
(915,1073,cs),
(915,900,o),
(798,798,o),
(599,798,cs)
);
},
{
closed = 1;
nodes = (
(360,128,l),
(360,671,l),
(691,671,ls),
(895,671,o),
(1000,573,o),
(1000,384,cs),
(1000,214,o),
(894,128,o),
(686,128,cs)
);
}
);
width = 1269;
}
);
leftKerningGroup = B;
unicode = 66;
},
{
glyphname = C;
layers = (
{
anchors = (
{
name = top;
position = "{783, 1620}";
}
);
layerId = "F7413D4C-EAF4-4E43-8F2C-0DFA69218E69";
shapes = (
{
closed = 1;
nodes = (
(1084,-20,o),
(1316,117,o),
(1427,385,c),
(1161,493,l),
(1092,328,o),
(956,236,o),
(783,236,cs,{name = .dv02;}),
(489,236,o),
(381,446,o),
(381,724,cs,{name = .dh02;}),
(381,990,o),
(514,1212,o),
(783,1212,cs),
(968,1212,o),
(1111,1110,o),
(1156,959,c),
(1429,1066,l),
(1309,1344,o),
(1081,1468,o),
(783,1468,cs,{name = .dv04;}),
(308,1468,o),
(70,1128,o),
(70,724,cs,{name = .dh01;}),
(70,309,o),
(347,-20,o),
(783,-20,cs,{name = .dv01;})
);
}
);
width = 1493;
},
{
anchors = (
{
name = top;
position = "{782, 1620}";
}
);
layerId = "FF7C99D0-C175-48E4-AC69-2B77C3BA1C9F";
shapes = (
{
closed = 1;
nodes = (
(1075,-20,o),
(1325,112,o),
(1417,380,c),
(1177,479,l),
(1113,334,o),
(982,210,o),
(784,210,cs),
(469,210,o),
(342,452,o),
(342,734,cs),
(342,1020,o),
(487,1238,o),
(780,1238,cs),
(990,1238,o),
(1122,1111,o),
(1172,973,c),
(1415,1070,l),
(1319,1335,o),
(1075,1468,o),
(782,1468,cs),
(343,1468,o),
(84,1160,o),
(84,724,cs),
(84,285,o),
(344,-20,o),
(784,-20,cs)
);
}
);
width = 1466;
},
{
anchors = (
{
name = top;
position = "{778, 1620}";
}
);
layerId = "FD60B6D8-DC1B-493D-A036-B8A9A3BDE096";
shapes = (
{
closed = 1;
nodes = (
(1050,-20,o),
(1268,116,o),
(1371,364,c),
(1215,432,l),
(1147,239,o),
(988,136,o),
(779,136,cs),
(426,136,o),
(296,423,o),
(296,734,cs),
(296,1041,o),
(437,1312,o),
(775,1312,cs),
(983,1312,o),
(1154,1212,o),
(1213,1020,c),
(1369,1087,l),
(1262,1338,o),
(1052,1468,o),
(777,1468,cs),
(339,1468,o),
(124,1133,o),
(124,724,cs),
(124,311,o),
(338,-20,o),
(779,-20,cs)
);
}
);
width = 1456;
},
{
anchors = (
{
name = top;
position = "{776, 1620}";
}
);
layerId = "B769F827-5E5D-44DC-BEA8-1B95CFBF39E3";
shapes = (
{
closed = 1;
nodes = (
(1042,-20,o),
(1249,117,o),
(1355,358,c),
(1227,416,l),
(1158,207,o),
(990,111,o),
(777,111,cs),
(412,111,o),
(281,413,o),
(281,734,cs),
(281,1048,o),
(420,1337,o),
(773,1337,cs),
(981,1337,o),
(1164,1246,o),
(1226,1036,c),
(1353,1093,l),
(1243,1339,o),
(1044,1468,o),
(775,1468,cs),
(337,1468,o),
(137,1124,o),
(137,724,cs),
(137,320,o),
(336,-20,o),
(777,-20,cs)
);
}
);
width = 1453;
}
);
leftKerningGroup = C;
rightKerningGroup = C1;
unicode = 67;
},
{
glyphname = D;
layers = (
{
layerId = "F7413D4C-EAF4-4E43-8F2C-0DFA69218E69";
shapes = (
{
closed = 1;
nodes = (
(177,0,l),
(610,0,ls,{name = .dv01;}),
(1104,0,o),
(1372,269,o),
(1372,713,cs,{name = .sh01;}),
(1372,1202,o),
(1093,1448,o),
(612,1448,cs,{name = .dv04;}),
(177,1448,l,{name = .sh02;})
);
},
{
closed = 1;
nodes = (
(467,266,l,{name = .sv01;}),
(467,1180,l,{name = .sh03;}),
(613,1180,ls,{name = .dv03;}),
(946,1180,o),
(1081,1062,o),
(1081,724,cs,{name = .ah01;}),
(1081,386,o),
(909,266,o),
(585,266,cs,{name = .dv02;})
);
}
);
width = 1444;
},
{
layerId = "FF7C99D0-C175-48E4-AC69-2B77C3BA1C9F";
shapes = (
{
closed = 1;
nodes = (
(186,0,l),
(604,0,ls),
(1066,0,o),
(1359,237,o),
(1359,713,cs),
(1359,1188,o),
(1096,1448,o),
(606,1448,cs),
(186,1448,l)
);
},
{
closed = 1;
nodes = (
(446,239,l),
(446,1209,l),
(602,1209,ls),
(939,1209,o),
(1099,1089,o),
(1099,724,cs),
(1099,376,o),
(915,239,o),
(579,239,cs)
);
}
);
width = 1443;
},
{
layerId = "FD60B6D8-DC1B-493D-A036-B8A9A3BDE096";
shapes = (
{
closed = 1;
nodes = (
(215,0,l),
(587,0,ls),
(1046,0,o),
(1321,247,o),
(1321,713,cs),
(1321,1181,o),
(1064,1448,o),
(589,1448,cs),
(215,1448,l)
);
},
{
closed = 1;
nodes = (
(386,155,l),
(386,1295,l),
(585,1295,ls),
(958,1295,o),
(1150,1101,o),
(1150,724,cs),
(1150,354,o),
(926,155,o),
(562,155,cs)
);
}
);
width = 1442;
},
{
layerId = "B769F827-5E5D-44DC-BEA8-1B95CFBF39E3";
shapes = (
{
closed = 1;
nodes = (
(225,0,l),
(581,0,ls),
(1039,0,o),
(1308,250,o),
(1308,713,cs),
(1308,1179,o),
(1053,1448,o),
(583,1448,cs),
(225,1448,l)
);
},
{
closed = 1;
nodes = (
(366,127,l),
(366,1324,l),
(579,1324,ls),
(964,1324,o),
(1167,1105,o),
(1167,724,cs),
(1167,347,o),
(929,127,o),
(556,127,cs)
);
}
);
width = 1442;
}
);
leftKerningGroup = B;
rightKerningGroup = D;
unicode = 68;
},
{
glyphname = E;
layers = (
{
anchors = (
{
name = top;
position = "{663, 1618}";
},
{
name = ogonek;
position = "{1147, 0}";
}
);
layerId = "F7413D4C-EAF4-4E43-8F2C-0DFA69218E69";
shapes = (
{
closed = 1;
nodes = (
(1147,0,l,{name = .dv01;}),
(1147,276,l,{name = .dv02;}),
(467,276,l,{name = .sh01;}),
(467,589,l,{name = .dv05;}),
(1116,589,l,{name = .sv01;}),
(1116,859,l,{name = .sv02;}),
(467,859,l,{name = .dv06;}),
(467,1179,l,{name = .dv03;}),
(1147,1179,l),
(1147,1448,l,{name = .av01;}),
(177,1448,l,{name = .dv04;}),
(177,0,l)
);
}
);
width = 1277;
},
{
anchors = (
{
name = top;
position = "{674, 1618}";
},
{
name = ogonek;
position = "{1149, 0}";
}
);
layerId = "FF7C99D0-C175-48E4-AC69-2B77C3BA1C9F";
shapes = (
{
closed = 1;
nodes = (
(1149,0,l),
(1149,246,l),
(446,246,l),
(446,605,l),
(1101,605,l),
(1101,844,l),
(446,844,l),
(446,1209,l),
(1149,1209,l),
(1149,1448,l),
(186,1448,l),
(186,0,l)
);
}
);
width = 1275;
},
{
anchors = (
{
name = top;
position = "{686, 1618}";
},
{
name = ogonek;
position = "{1154, 0}";
}
);
layerId = "FD60B6D8-DC1B-493D-A036-B8A9A3BDE096";
shapes = (
{
closed = 1;
nodes = (
(1154,0,l),
(1154,156,l),
(386,156,l),
(386,653,l),
(1058,653,l),
(1058,797,l),
(386,797,l),
(386,1300,l),
(1154,1300,l),
(1154,1448,l),
(215,1448,l),
(215,0,l)
);
}
);
width = 1271;
},
{
anchors = (
{
name = top;
position = "{690, 1618}";
},
{
name = ogonek;
position = "{1156, 0}";
}
);
layerId = "B769F827-5E5D-44DC-BEA8-1B95CFBF39E3";
shapes = (
{
closed = 1;
nodes = (
(1156,0,l),
(1156,126,l),
(366,126,l),
(366,669,l),
(1043,669,l),
(1043,781,l),
(366,781,l),
(366,1330,l),
(1156,1330,l),
(1156,1448,l),
(225,1448,l),
(225,0,l)
);
}
);
width = 1270;
}
);
leftKerningGroup = B;
rightKerningGroup = E;
unicode = 69;
},
{
glyphname = F;
layers = (
{
anchors = (
{
name = top;
position = "{682, 1618}";
}
);
layerId = "F7413D4C-EAF4-4E43-8F2C-0DFA69218E69";
shapes = (
{
closed = 1;
nodes = (
(467,0,l,{name = .av01;}),
(467,589,l,{name = .dv03;}),
(1143,589,l),
(1143,859,l),
(467,859,l,{name = .dv04;}),
(467,1179,l,{name = .dv01;}),
(1233,1179,l),
(1233,1448,l),
(177,1448,l,{name = .dv02;}),
(177,0,l)
);
}
);
width = 1277;
},
{
anchors = (
{
name = top;
position = "{682, 1618}";
}
);
layerId = "FF7C99D0-C175-48E4-AC69-2B77C3BA1C9F";
shapes = (
{
closed = 1;
nodes = (
(446,0,l),
(446,605,l),
(1122,605,l),
(1122,844,l),
(446,844,l),
(446,1209,l),
(1212,1209,l),
(1212,1448,l),
(186,1448,l),
(186,0,l)
);
}
);
width = 1265;
},
{
anchors = (
{
name = top;
position = "{682, 1618}";
}
);
layerId = "FD60B6D8-DC1B-493D-A036-B8A9A3BDE096";
shapes = (
{
closed = 1;
nodes = (
(386,0,l),
(386,653,l),
(1062,653,l),
(1062,797,l),
(386,797,l),
(386,1300,l),
(1153,1300,l),
(1153,1448,l),
(215,1448,l),
(215,0,l)
);
}
);
width = 1231;
},
{
anchors = (
{
name = top;
position = "{682, 1618}";
}
);
layerId = "B769F827-5E5D-44DC-BEA8-1B95CFBF39E3";
shapes = (
{
closed = 1;
nodes = (
(366,0,l),
(366,669,l),
(1042,669,l),
(1042,781,l),
(366,781,l),
(366,1330,l),
(1133,1330,l),
(1133,1448,l),
(225,1448,l),
(225,0,l)
);
}
);
width = 1219;
}
);
leftKerningGroup = B;
unicode = 70;
},
{
glyphname = G;
layers = (
{
anchors = (
{
name = top;
position = "{785, 1618}";
}
);
layerId = "F7413D4C-EAF4-4E43-8F2C-0DFA69218E69";
shapes = (
{
closed = 1;
nodes = (
(961,-20,o),
(1113,50,o),
(1200,185,c,{name = .iv01;}),
(1230,0,l),
(1457,0,l),
(1457,798,l),
(747,798,l,{name = .dv06;}),
(747,562,l,{name = .dv05;}),
(1175,562,l),
(1139,368,o),
(977,237,o),
(786,237,cs,{name = .dv02;}),
(532,237,o),
(358,416,o),
(358,724,cs,{name = .dh02;}),
(358,1032,o),
(532,1212,o),
(784,1212,cs,{name = .dv03;}),
(980,1212,o),
(1116,1130,o),
(1172,939,c),
(1428,1044,l),
(1313,1314,o),
(1078,1468,o),
(784,1468,cs,{name = .dv04;}),
(362,1468,o),
(71,1165,o),
(71,724,cs,{name = .dh01;}),
(71,284,o),
(362,-20,o),
(786,-20,cs,{name = .dv01;})
);
}
);
width = 1579;
},
{
anchors = (
{
name = top;
position = "{783, 1618}";
}
);
layerId = "FF7C99D0-C175-48E4-AC69-2B77C3BA1C9F";
shapes = (
{
closed = 1;
nodes = (
(965,-20,o),
(1135,69,o),
(1213,204,c),
(1236,0,l),
(1442,0,l),
(1442,782,l),
(761,782,l),
(761,572,l),
(1190,572,l),
(1159,353,o),
(998,210,o),
(785,210,cs),
(510,210,o),
(359,392,o),
(359,724,cs),
(359,1045,o),
(517,1238,o),
(781,1238,cs),
(979,1238,o),
(1121,1137,o),
(1184,953,c),
(1414,1050,l),
(1294,1319,o),
(1069,1468,o),
(783,1468,cs),
(357,1468,o),
(85,1178,o),
(85,724,cs),
(85,270,o),
(358,-20,o),
(785,-20,cs)
);
}
);
width = 1571;
},
{
anchors = (
{
name = top;
position = "{786, 1618}";
}
);
layerId = "FD60B6D8-DC1B-493D-A036-B8A9A3BDE096";
shapes = (
{
closed = 1;
nodes = (
(994,-20,o),
(1179,92,o),
(1250,265,c),
(1254,0,l),
(1393,0,l),
(1393,736,l),
(801,736,l),
(801,602,l),
(1233,602,l),
(1225,324,o),
(1042,136,o),
(779,136,cs),
(470,136,o),
(299,344,o),
(299,724,cs),
(299,1096,o),
(474,1312,o),
(775,1312,cs),
(973,1312,o),
(1132,1205,o),
(1214,1016,c),
(1368,1084,l),
(1255,1336,o),
(1050,1468,o),
(777,1468,cs),
(368,1468,o),
(124,1191,o),
(124,724,cs),
(124,254,o),
(366,-20,o),
(779,-20,cs)
);
}
);
width = 1550;
},
{
anchors = (
{
name = top;
position = "{787, 1618}";
}
);
layerId = "B769F827-5E5D-44DC-BEA8-1B95CFBF39E3";
shapes = (
{
closed = 1;
nodes = (
(1004,-20,o),
(1194,99,o),
(1262,285,c),
(1260,0,l),
(1376,0,l),
(1376,720,l),
(814,720,l),
(814,612,l),
(1247,612,l),
(1247,314,o),
(1056,111,o),
(777,111,cs),
(457,111,o),
(279,328,o),
(279,724,cs),
(279,1113,o),
(460,1337,o),
(773,1337,cs),
(971,1337,o),
(1136,1227,o),
(1224,1037,c),
(1353,1095,l),
(1242,1341,o),
(1044,1468,o),
(775,1468,cs),
(371,1468,o),
(137,1195,o),
(137,724,cs),
(137,249,o),
(369,-20,o),
(777,-20,cs)
);
}
);
width = 1543;
}
);
leftKerningGroup = G;
rightKerningGroup = G1;
unicode = 71;
},
{
glyphname = H;
layers = (
{
anchors = (
{
name = top;
position = "{771, 1581}";
}
);
layerId = "F7413D4C-EAF4-4E43-8F2C-0DFA69218E69";
shapes = (
{
closed = 1;
nodes = (
(1361,0,l,{name = .av03;}),
(1361,1448,l,{name = .av01;}),
(1071,1448,l,{name = .ah01;}),
(1071,858,l),
(467,858,l,{name = .dv02;}),
(467,1448,l,{name = .av02;}),
(177,1448,l,{name = .sh01;}),
(177,0,l,{name = .av04;}),
(467,0,l,{name = .sh02;}),
(467,588,l,{name = .dv01;}),
(1071,588,l,{name = .sh03;}),
(1071,0,l)
);
}
);
width = 1538;
},
{
anchors = (
{
name = top;
position = "{763, 1618}";
}
);
layerId = "FF7C99D0-C175-48E4-AC69-2B77C3BA1C9F";
shapes = (
{
closed = 1;
nodes = (
(1340,0,l),
(1340,1448,l),
(1080,1448,l),
(1080,843,l),
(446,843,l),
(446,1448,l),
(186,1448,l),
(186,0,l),
(446,0,l),
(446,604,l),
(1080,604,l),
(1080,0,l)
);
}
);
width = 1527;
},
{
anchors = (
{
name = top;
position = "{747, 1618}";
}
);
layerId = "FD60B6D8-DC1B-493D-A036-B8A9A3BDE096";
shapes = (
{
closed = 1;
nodes = (
(1281,0,l),
(1281,1448,l),
(1110,1448,l),
(1110,796,l),
(385,796,l),
(385,1448,l),
(215,1448,l),
(215,0,l),
(385,0,l),
(385,652,l),
(1110,652,l),
(1110,0,l)
);
}
);
width = 1496;
},
{
anchors = (
{
name = top;
position = "{742, 1618}";
}
);
layerId = "B769F827-5E5D-44DC-BEA8-1B95CFBF39E3";
shapes = (
{
closed = 1;
nodes = (
(1261,0,l),
(1261,1448,l),
(1120,1448,l),
(1120,780,l),
(365,780,l),
(365,1448,l),
(225,1448,l),
(225,0,l),
(365,0,l),
(365,668,l),
(1120,668,l),
(1120,0,l)
);
}
);
width = 1485;
}
);
leftKerningGroup = B;
rightKerningGroup = H;
unicode = 72;
},
{
glyphname = I;
layers = (
{
anchors = (
{
name = top;
position = "{322, 1618}";
},
{
name = ogonek;
position = "{467, 0}";
}
);
layerId = "F7413D4C-EAF4-4E43-8F2C-0DFA69218E69";
shapes = (
{
closed = 1;
nodes = (
(467,0,l,{name = .av02;}),
(467,1448,l,{name = .av01;}),
(177,1448,l,{name = .dh01;}),
(177,0,l)
);
}
);
width = 644;
},
{
anchors = (
{
name = top;
position = "{316, 1618}";
},
{
name = ogonek;
position = "{446, 0}";
}
);
layerId = "FF7C99D0-C175-48E4-AC69-2B77C3BA1C9F";
shapes = (
{
closed = 1;
nodes = (
(446,0,l),
(446,1448,l),
(186,1448,l),
(186,0,l)
);
}
);
width = 632;
},
{
anchors = (
{
name = top;
position = "{310, 1618}";
},
{
name = ogonek;
position = "{395, 0}";
}
);
layerId = "FD60B6D8-DC1B-493D-A036-B8A9A3BDE096";
shapes = (
{
closed = 1;
nodes = (
(395,0,l),
(395,1448,l),
(225,1448,l),
(225,0,l)
);
}
);
width = 620;
},
{
anchors = (
{
name = top;
position = "{295, 1618}";
},
{
name = ogonek;
position = "{365, 0}";
}
);
layerId = "B769F827-5E5D-44DC-BEA8-1B95CFBF39E3";
shapes = (
{
closed = 1;
nodes = (
(365,0,l),
(365,1448,l),
(225,1448,l),
(225,0,l)
);
}
);
width = 590;
}
);
leftKerningGroup = B;
rightKerningGroup = H;
unicode = 73;
},
{
glyphname = J;
layers = (
{
anchors = (
{
name = top;
position = "{881, 1618}";
}
);
layerId = "F7413D4C-EAF4-4E43-8F2C-0DFA69218E69";
shapes = (
{
closed = 1;
nodes = (
(18,465,l,{name = .sh04;}),
(36,194,o),
(245,-20,o),
(523,-20,cs,{name = .dv00;}),
(873,-20,o),
(1026,207,o),
(1026,524,cs),
(1026,1448,l,{name = .sh00;}),
(736,1448,l,{name = .dv04;}),
(736,633,ls),
(736,364,o),
(729,251,o),
(523,251,cs,{name = .dv05;}),
(383,251,o),
(313,355,o),
(305,497,c,{name = .sh03;})
);
}
);
width = 1172;
},
{
anchors = (
{
name = top;
position = "{879, 1618}";
}
);
layerId = "FF7C99D0-C175-48E4-AC69-2B77C3BA1C9F";
shapes = (
{
closed = 1;
nodes = (
(32,451,l),
(51,173,o),
(242,-20,o),
(520,-20,cs),
(863,-20,o),
(1009,198,o),
(1009,522,cs),
(1009,1448,l),
(749,1448,l),
(749,518,ls),
(749,347,o),
(716,220,o),
(520,220,cs),
(365,220,o),
(297,339,o),
(288,480,c)
);
}
);
width = 1166;
},
{
anchors = (
{
name = top;
position = "{874, 1618}";
}
);
layerId = "FD60B6D8-DC1B-493D-A036-B8A9A3BDE096";
shapes = (
{
closed = 1;
nodes = (
(70,408,l,{name = .sh01;}),
(87,146,o),
(261,-20,o),
(523,-20,cs,{name = .sv01;}),
(847,-20,o),
(959,227,o),
(959,515,cs),
(959,1448,l,{name = .sh02;}),
(789,1448,l,{name = .ah01;}),
(789,493,ls),
(789,295,o),
(742,129,o),
(511,129,cs,{name = .av01;}),
(337,129,o),
(245,269,o),
(236,430,c,{name = .sh03;})
);
}
);
width = 1150;
},
{
anchors = (
{
name = top;
position = "{872, 1618}";
}
);
layerId = "B769F827-5E5D-44DC-BEA8-1B95CFBF39E3";
shapes = (
{
closed = 1;
nodes = (
(83,394,l,{name = .sh01;}),
(99,137,o),
(267,-20,o),
(524,-20,cs,{name = .sv01;}),
(841,-20,o),
(942,237,o),
(942,512,cs),
(942,1448,l,{name = .sh02;}),
(802,1448,l,{name = .ah01;}),
(802,485,ls),
(802,278,o),
(751,99,o),
(508,99,cs,{name = .av01;}),
(328,99,o),
(227,246,o),
(219,413,c,{name = .sh03;})
);
}
);
width = 1144;
}
);
leftKerningGroup = J;
rightKerningGroup = J1;
unicode = 74;
},
{
glyphname = K;
layers = (
{
layerId = "F7413D4C-EAF4-4E43-8F2C-0DFA69218E69";
shapes = (
{
closed = 1;
nodes = (
(1538,0,l,{name = .av03;}),
(945,847,l),
(1534,1448,l,{name = .av01;}),
(1142,1448,l),
(467,722,l,{name = .iv01;}),
(467,1448,l,{name = .av02;}),
(177,1448,l,{name = .dh01;}),
(177,0,l,{name = .av04;}),
(467,0,l,{name = .sh01;}),
(467,369,l),
(742,653,l),
(1175,0,l)
);
}
);
width = 1539;
},
{
layerId = "FF7C99D0-C175-48E4-AC69-2B77C3BA1C9F";
shapes = (
{
closed = 1;
nodes = (
(1510,0,l),
(921,854,l),
(1499,1448,l),
(1151,1448,l),
(446,692,l),
(446,1448,l),
(186,1448,l),
(186,0,l),
(446,0,l),
(446,376,l),
(740,680,l),
(1187,0,l)
);
}
);
width = 1527;
},
{
layerId = "FD60B6D8-DC1B-493D-A036-B8A9A3BDE096";
shapes = (
{
closed = 1;
nodes = (
(1428,0,l),
(849,875,l),
(1399,1448,l),
(1176,1448,l),
(386,608,l),
(386,1448,l),
(215,1448,l),
(215,0,l),
(386,0,l),
(386,396,l),
(732,754,l),
(1222,0,l)
);
}
);
width = 1493;
},
{
layerId = "B769F827-5E5D-44DC-BEA8-1B95CFBF39E3";
shapes = (
{
closed = 1;
nodes = (
(1400,0,l),
(825,882,l),
(1365,1448,l),
(1184,1448,l),
(366,580,l),
(366,1448,l),
(225,1448,l),
(225,0,l),
(366,0,l),
(366,403,l),
(729,779,l),
(1233,0,l)
);
}
);
width = 1482;
}
);
leftKerningGroup = B;
rightKerningGroup = K;
unicode = 75;
},
{
glyphname = L;
layers = (
{
anchors = (
{
name = top;
position = "{322, 1618}";
},
{
name = center;
position = "{887, 783}";
}
);
layerId = "F7413D4C-EAF4-4E43-8F2C-0DFA69218E69";
shapes = (
{
closed = 1;
nodes = (
(1085,0,l,{name = .dv01;}),
(1085,276,l,{name = .dv02;}),
(467,276,l),
(467,1448,l,{name = .av01;}),
(177,1448,l,{name = .dh01;}),
(177,0,l)
);
}
);
width = 1097;
},
{
anchors = (
{
name = top;
position = "{316, 1618}";
},
{
name = center;
position = "{874, 795}";
}
);
layerId = "FF7C99D0-C175-48E4-AC69-2B77C3BA1C9F";
shapes = (
{
closed = 1;
nodes = (
(1065,0,l),
(1065,246,l),
(446,246,l),
(446,1448,l),
(186,1448,l),
(186,0,l)
);
}
);
width = 1089;
},
{
anchors = (
{
name = top;
position = "{300, 1618}";
},
{
name = center;
position = "{837, 779}";
}
);
layerId = "FD60B6D8-DC1B-493D-A036-B8A9A3BDE096";
shapes = (
{
closed = 1;
nodes = (
(1005,0,l),
(1005,156,l),
(386,156,l),
(386,1448,l),
(215,1448,l),
(215,0,l)
);
}
);
width = 1066;
},
{
anchors = (
{
name = top;
position = "{295, 1618}";
},
{
name = center;
position = "{824, 774}";
}
);
layerId = "B769F827-5E5D-44DC-BEA8-1B95CFBF39E3";
shapes = (
{
closed = 1;
nodes = (
(985,0,l),
(985,126,l),
(366,126,l),
(366,1448,l),
(225,1448,l),
(225,0,l)
);
}
);
width = 1058;
}
);
leftKerningGroup = B;
rightKerningGroup = L;
unicode = 76;
},
{
glyphname = M;
layers = (
{
layerId = "F7413D4C-EAF4-4E43-8F2C-0DFA69218E69";
shapes = (
{
closed = 1;
nodes = (
(1675,0,l,{name = .av03;}),
(1675,1448,l,{name = .av01;}),
(1298,1448,l),
(928,459,l,{name = .iv01;}),
(554,1448,l,{name = .av02;}),
(177,1448,l,{name = .sh01;}),
(177,0,l,{name = .av04;}),
(454,0,l),
(454,1013,l,{name = .iv02;}),
(788,126,l),
(1064,126,l),
(1398,1013,l,{name = .iv03;}),
(1398,0,l)
);
}
);
width = 1852;
},
{
layerId = "FF7C99D0-C175-48E4-AC69-2B77C3BA1C9F";
shapes = (
{
closed = 1;
nodes = (
(1655,0,l),
(1655,1448,l),
(1305,1448,l),
(921,418,l),
(537,1448,l),
(186,1448,l),
(186,0,l),
(436,0,l),
(436,1083,l),
(795,126,l),
(1047,126,l),
(1405,1083,l),
(1405,0,l)
);
}
);
width = 1841;
},
{
layerId = "FD60B6D8-DC1B-493D-A036-B8A9A3BDE096";
shapes = (
{
closed = 1;
nodes = (
(1596,0,l),
(1596,1448,l),
(1331,1448,l),
(902,294,l),
(479,1448,l),
(215,1448,l),
(215,0,l),
(384,0,l),
(384,1274,l),
(814,126,l),
(997,126,l),
(1428,1274,l),
(1428,0,l)
);
}
);
width = 1810;
},
{
layerId = "B769F827-5E5D-44DC-BEA8-1B95CFBF39E3";
shapes = (
{
closed = 1;
nodes = (
(1576,0,l),
(1576,1448,l),
(1340,1448,l),
(896,252,l),
(460,1448,l),
(225,1448,l),
(225,0,l),
(367,0,l),
(367,1337,l),
(820,126,l),
(980,126,l),
(1436,1337,l),
(1436,0,l)
);
}
);
width = 1800;
}
);
leftKerningGroup = B;
rightKerningGroup = H;
unicode = 77;
},
{
glyphname = N;
layers = (
{
layerId = "F7413D4C-EAF4-4E43-8F2C-0DFA69218E69";
shapes = (
{
closed = 1;
nodes = (
(1323,0,l,{name = .av03;}),
(1323,1448,l,{name = .av01;}),
(1046,1448,l,{name = .ah01;}),
(1046,516,l,{name = .iv01;}),
(442,1448,l,{name = .av02;}),
(177,1448,l,{name = .sh01;}),
(177,0,l,{name = .av04;}),
(454,0,l),
(454,934,l,{name = .iv02;}),
(1057,0,l,{name = .sh02;})
);
}
);
width = 1500;
},
{
anchors = (
{
name = top;
position = "{754, 1618}";
}
);
layerId = "FF7C99D0-C175-48E4-AC69-2B77C3BA1C9F";
shapes = (
{
closed = 1;
nodes = (
(1303,0,l),
(1303,1448,l),
(1053,1448,l),
(1053,434,l),
(444,1448,l),
(186,1448,l),
(186,0,l),
(436,0,l),
(436,1016,l),
(1042,0,l)
);
}
);
width = 1489;
},
{
layerId = "FD60B6D8-DC1B-493D-A036-B8A9A3BDE096";
shapes = (
{
closed = 1;
nodes = (
(1243,0,l),
(1243,1448,l),
(1075,1448,l),
(1075,210,l),
(443,1448,l),
(215,1448,l),
(215,0,l),
(384,0,l),
(384,1240,l),
(1011,0,l)
);
}
);
width = 1458;
},
{
anchors = (
{
name = top;
position = "{742, 1618}";
}
);
layerId = "B769F827-5E5D-44DC-BEA8-1B95CFBF39E3";
shapes = (
{
closed = 1;
nodes = (
(1223,0,l),
(1223,1448,l),
(1082,1448,l),
(1082,135,l),
(442,1448,l),
(225,1448,l),
(225,0,l),
(367,0,l),
(367,1314,l),
(1001,0,l)
);
}
);
width = 1447;
}
);
leftKerningGroup = B;
rightKerningGroup = H;
unicode = 78;
},
{
glyphname = O;
layers = (
{
anchors = (
{
name = top;
position = "{784, 1618}";
},
{
name = horn;
position = "{1545, 1448}";
},
{
name = ogonek;
position = "{955, 0}";
}
);
background = {
};
layerId = "F7413D4C-EAF4-4E43-8F2C-0DFA69218E69";
shapes = (
{
closed = 1;
nodes = (
(1207,-20,o),
(1498,283,o),
(1498,724,cs),
(1498,1166,o),
(1207,1468,o),
(784,1468,cs),
(361,1468,o),
(70,1165,o),
(70,724,cs),
(70,283,o),
(361,-20,o),
(784,-20,cs,{name = .dv01;})
);
},
{
closed = 1;
nodes = (
(530,236,o),
(381,416,o),
(381,724,cs,{name = .sh03;}),
(381,1032,o),
(530,1212,o),
(784,1212,cs),
(1038,1212,o),
(1187,1033,o),
(1187,724,cs,{name = .ah01;}),
(1187,415,o),
(1038,236,o),
(784,236,cs,{name = .dv02;})
);
}
);
width = 1568;
},
{
anchors = (
{
name = top;
position = "{782, 1618}";
},
{
name = ogonek;
position = "{955, 0}";
},
{
name = horn;
position = "{1545, 1448}";
}
);
background = {
};
layerId = "FF7C99D0-C175-48E4-AC69-2B77C3BA1C9F";
shapes = (
{
closed = 1;
nodes = (
(1222,-20,o),
(1481,287,o),
(1481,724,cs),
(1481,1162,o),
(1222,1468,o),
(782,1468,cs),
(342,1468,o),
(84,1162,o),
(84,724,cs),
(84,287,o),
(342,-20,o),
(782,-20,cs)
);
},
{
closed = 1;
nodes = (
(470,210,o),
(358,453,o),
(358,724,cs),
(358,1007,o),
(479,1238,o),
(782,1238,cs),
(1091,1238,o),
(1206,1000,o),
(1206,724,cs),
(1206,442,o),
(1085,210,o),
(782,210,cs)
);
}
);
width = 1565;
},
{
anchors = (
{
name = top;
position = "{786, 1618}";
},
{
name = horn;
position = "{1546, 1448}";
},
{
name = ogonek;
position = "{920, 0}";
}
);
layerId = "FD60B6D8-DC1B-493D-A036-B8A9A3BDE096";
shapes = (
{
closed = 1;
nodes = (
(1191,-20,o),
(1447,269,o),
(1447,724,cs,{name = .dh04;}),
(1447,1179,o),
(1191,1468,o),
(786,1468,cs,{name = .dv04;}),
(380,1468,o),
(124,1179,o),
(124,724,cs,{name = .dh01;}),
(124,270,o),
(380,-20,o),
(786,-20,cs,{name = .dv01;})
);
},
{
closed = 1;
nodes = (
(475,136,o),
(299,368,o),
(299,724,cs,{name = .dh02;}),
(299,1082,o),
(477,1312,o),
(786,1312,cs,{name = .dv03;}),
(1095,1312,o),
(1272,1080,o),
(1272,724,cs,{name = .dh03;}),
(1272,366,o),
(1094,136,o),
(786,136,cs,{name = .dv02;})
);
}
);
width = 1571;
},
{
anchors = (
{
name = top;
position = "{787, 1618}";
},
{
name = ogonek;
position = "{908, 0}";
},
{
name = horn;
position = "{1546, 1448}";
}
);
background = {
};
layerId = "B769F827-5E5D-44DC-BEA8-1B95CFBF39E3";
shapes = (
{
closed = 1;
nodes = (
(1181,-20,o),
(1436,263,o),
(1436,724,cs,{name = .dh04;}),
(1436,1185,o),
(1181,1468,o),
(787,1468,cs,{name = .dv04;}),
(393,1468,o),
(137,1184,o),
(137,724,cs,{name = .dh01;}),
(137,264,o),
(393,-20,o),
(787,-20,cs,{name = .dv01;})
);
},
{
closed = 1;
nodes = (
(477,111,o),
(279,340,o),
(279,724,cs,{name = .dh02;}),
(279,1107,o),
(477,1337,o),
(787,1337,cs,{name = .dv03;}),
(1097,1337,o),
(1294,1107,o),
(1294,724,cs,{name = .dh03;}),
(1294,340,o),
(1097,111,o),
(787,111,cs,{name = .dv02;})
);
}
);
width = 1573;
}
);
leftKerningGroup = C;
rightKerningGroup = O;
unicode = 79;
},
{
glyphname = P;
layers = (
{
layerId = "F7413D4C-EAF4-4E43-8F2C-0DFA69218E69";
shapes = (
{
closed = 1;
nodes = (
(177,0,l),
(465,0,l,{name = .av01;}),
(465,584,l,{name = .dv03;}),
(656,584,ls),
(910,584,o),
(1171,732,o),
(1171,1017,cs),
(1171,1305,o),
(912,1448,o),
(656,1448,cs,{name = .dv02;}),
(177,1448,l,{name = .sh01;})
);
},
{
closed = 1;
nodes = (
(465,857,l,{name = .dv04;}),
(465,1175,l,{name = .sh02;}),
(645,1175,ls,{name = .dv01;}),
(813,1175,o),
(883,1120,o),
(883,1010,cs,{name = .ah01;}),
(883,900,o),
(806,857,o),
(645,857,cs)
);
}
);
width = 1201;
},
{
layerId = "FF7C99D0-C175-48E4-AC69-2B77C3BA1C9F";
shapes = (
{
closed = 1;
nodes = (
(186,0,l),
(444,0,l),
(444,600,l),
(640,600,ls),
(907,600,o),
(1151,729,o),
(1151,1019,cs),
(1151,1315,o),
(902,1448,o),
(640,1448,cs),
(186,1448,l)
);
},
{
closed = 1;
nodes = (
(444,843,l),
(444,1205,l),
(640,1205,ls),
(809,1205,o),
(893,1143,o),
(893,1019,cs),
(893,896,o),
(807,843,o),
(640,843,cs)
);
}
);
width = 1195;
},
{
layerId = "FD60B6D8-DC1B-493D-A036-B8A9A3BDE096";
shapes = (
{
closed = 1;
nodes = (
(215,0,l),
(385,0,l),
(385,649,l),
(567,649,ls),
(831,649,o),
(1093,723,o),
(1093,1045,cs),
(1093,1318,o),
(875,1448,o),
(626,1448,cs),
(215,1448,l)
);
},
{
closed = 1;
nodes = (
(385,800,l),
(385,1296,l),
(626,1296,ls),
(798,1296,o),
(925,1217,o),
(925,1045,cs),
(925,868,o),
(801,800,o),
(626,800,cs)
);
}
);
width = 1179;
},
{
layerId = "B769F827-5E5D-44DC-BEA8-1B95CFBF39E3";
shapes = (
{
closed = 1;
nodes = (
(225,0,l),
(365,0,l),
(365,665,l),
(542,665,ls),
(806,665,o),
(1073,721,o),
(1073,1054,cs),
(1073,1319,o),
(866,1448,o),
(621,1448,cs),
(225,1448,l)
);
},
{
closed = 1;
nodes = (
(365,786,l),
(365,1326,l),
(621,1326,ls),
(794,1326,o),
(935,1242,o),
(935,1054,cs),
(935,858,o),
(799,786,o),
(621,786,cs)
);
}
);
width = 1174;
}
);
leftKerningGroup = B;
unicode = 80;
},
{
glyphname = Q;
layers = (
{
layerId = "F7413D4C-EAF4-4E43-8F2C-0DFA69218E69";
shapes = (
{
closed = 1;
nodes = (
(1030,219,l),
(1213,391,l,{name = .ih01;}),
(958,626,l),
(768,455,l)
);
},
{
closed = 1;
nodes = (
(1148,102,l),
(1381,-129,l,{name = .av01;}),
(1570,47,l),
(1338,264,l)
);
},
{
alignment = -1;
ref = O;
}
);
width = 1620;
},
{
layerId = "FF7C99D0-C175-48E4-AC69-2B77C3BA1C9F";
shapes = (
{
closed = 1;
nodes = (
(1043,214,l),
(1206,370,l),
(956,600,l),
(788,446,l)
);
},
{
closed = 1;
nodes = (
(1148,108,l),
(1378,-122,l),
(1545,36,l),
(1316,254,l)
);
},
{
alignment = -1;
ref = O;
}
);
width = 1611;
},
{
anchors = (
{
name = horn;
position = "{1546, 1448}";
},
{
name = ogonek;
position = "{920, 0}";
},
{
name = top;
position = "{786, 1618}";
}
);
layerId = "FD60B6D8-DC1B-493D-A036-B8A9A3BDE096";
shapes = (
{
closed = 1;
nodes = (
(1083,183,l),
(1187,289,l),
(946,529,l),
(843,422,l)
);
},
{
closed = 1;
nodes = (
(1143,125,l),
(1363,-102,l),
(1469,5,l),
(1249,227,l)
);
},
{
alignment = -1;
ref = O;
}
);
width = 1580;
},
{
layerId = "B769F827-5E5D-44DC-BEA8-1B95CFBF39E3";
shapes = (
{
closed = 1;
nodes = (
(1096,172,l),
(1180,262,l),
(943,505,l),
(861,414,l)
);
},
{
closed = 1;
nodes = (
(1141,130,l),
(1358,-95,l),
(1444,-6,l),
(1226,218,l)
);
},
{
alignment = -1;
ref = O;
}
);
width = 1570;
}
);
leftKerningGroup = C;
unicode = 81;
},
{
glyphname = R;
layers = (
{
layerId = "F7413D4C-EAF4-4E43-8F2C-0DFA69218E69";
shapes = (
{
closed = 1;
nodes = (
(177,0,l,{name = .av02;}),
(467,0,l),
(467,609,l,{name = .dv03;}),
(622,609,l),
(976,0,l),
(1308,0,l,{name = .av01;}),
(902,636,l,{name = .sh01;}),
(1062,698,o),
(1177,839,o),
(1177,1014,cs,{name = .sh02;}),
(1177,1287,o),
(927,1448,o),
(672,1448,cs,{name = .dv02;}),
(177,1448,l)
);
},
{
closed = 1;
nodes = (
(469,841,l,{name = .dv04;}),
(469,1188,l),
(664,1188,ls,{name = .dv01;}),
(803,1188,o),
(889,1117,o),
(889,1009,cs,{name = .ah01;}),
(889,908,o),
(811,841,o),
(684,841,cs)
);
}
);
width = 1314;
},
{
layerId = "FF7C99D0-C175-48E4-AC69-2B77C3BA1C9F";
shapes = (
{
closed = 1;
nodes = (
(186,0,l),
(446,0,l),
(446,618,l),
(621,618,l),
(977,0,l),
(1275,0,l),
(872,644,l),
(1035,701,o),
(1155,837,o),
(1155,1021,cs),
(1155,1300,o),
(915,1448,o),
(654,1448,cs),
(186,1448,l)
);
},
{
closed = 1;
nodes = (
(449,830,l),
(449,1215,l),
(656,1215,ls),
(781,1215,o),
(898,1156,o),
(898,1017,cs),
(898,911,o),
(821,830,o),
(678,830,cs)
);
}
);
width = 1298;
},
{
layerId = "FD60B6D8-DC1B-493D-A036-B8A9A3BDE096";
shapes = (
{
closed = 1;
nodes = (
(215,0,l),
(386,0,l),
(386,647,l),
(619,647,l),
(981,0,l),
(1180,0,l),
(786,669,l),
(968,708,o),
(1092,852,o),
(1092,1043,cs),
(1092,1304,o),
(879,1448,o),
(634,1448,cs),
(215,1448,l)
);
},
{
closed = 1;
nodes = (
(388,801,l),
(388,1298,l),
(636,1298,ls),
(792,1298,o),
(926,1212,o),
(926,1043,cs),
(926,897,o),
(811,801,o),
(660,801,cs)
);
}
);
width = 1255;
},
{
layerId = "B769F827-5E5D-44DC-BEA8-1B95CFBF39E3";
shapes = (
{
closed = 1;
nodes = (
(225,0,l),
(366,0,l),
(366,656,l),
(618,656,l),
(982,0,l),
(1148,0,l),
(757,677,l),
(946,710,o),
(1071,857,o),
(1071,1050,cs),
(1071,1305,o),
(867,1448,o),
(627,1448,cs),
(225,1448,l)
);
},
{
closed = 1;
nodes = (
(368,791,l),
(368,1325,l),
(629,1325,ls),
(796,1325,o),
(935,1230,o),
(935,1052,cs),
(935,892,o),
(808,791,o),
(654,791,cs)
);
}
);
width = 1241;
}
);
leftKerningGroup = B;
rightKerningGroup = R;
unicode = 82;
},
{
glyphname = S;
layers = (
{
anchors = (
{
name = top;
position = "{588, 1618}";
}
);
layerId = "F7413D4C-EAF4-4E43-8F2C-0DFA69218E69";
shapes = (
{
closed = 1;
nodes = (
(54,421,l),
(92,160,o),
(326,-16,o),
(615,-16,cs,{name = .dv01;}),
(905,-16,o),
(1123,172,o),
(1123,422,cs,{name = .sh01;}),
(1123,870,o),
(422,828,o),
(422,1072,cs,{name = .sh04;}),
(422,1150,o),
(493,1208,o),
(589,1208,cs,{name = .dv03;}),
(680,1208,o),
(757,1155,o),
(807,1058,c),
(1053,1205,l),
(962,1373,o),
(798,1468,o),
(600,1468,cs,{name = .dv04;}),
(326,1468,o),
(130,1301,o),
(130,1067,cs,{name = .sh03;}),
(130,602,o),
(831,688,o),
(831,401,cs,{name = .ah01;}),
(831,309,o),
(737,241,o),
(610,241,cs,{name = .dv02;}),
(447,241,o),
(346,330,o),
(325,493,c)
);
}
);
width = 1172;
},
{
anchors = (
{
name = top;
position = "{597, 1618}";
}
);
layerId = "FF7C99D0-C175-48E4-AC69-2B77C3BA1C9F";
shapes = (
{
closed = 1;
nodes = (
(53,412,l),
(99,134,o),
(335,-16,o),
(605,-16,cs),
(868,-16,o),
(1104,139,o),
(1104,422,cs),
(1104,883,o),
(414,818,o),
(414,1103,cs),
(414,1202,o),
(504,1238,o),
(590,1238,cs),
(693,1238,o),
(777,1165,o),
(823,1077,c),
(1040,1211,l),
(942,1380,o),
(793,1468,o),
(598,1468,cs),
(358,1468,o),
(150,1326,o),
(150,1070,cs),
(150,592,o),
(840,716,o),
(840,382,cs),
(840,268,o),
(723,214,o),
(608,214,cs),
(438,214,o),
(339,317,o),
(314,480,c)
);
}
);
width = 1172;
},
{
anchors = (
{
name = top;
position = "{569, 1618}";
}
);
layerId = "FD60B6D8-DC1B-493D-A036-B8A9A3BDE096";
shapes = (
{
closed = 1;
nodes = (
(84,373,l),
(124,132,o),
(327,-16,o),
(589,-16,cs),
(848,-16,o),
(1043,149,o),
(1043,401,cs),
(1043,855,o),
(348,787,o),
(348,1117,cs),
(348,1239,o),
(449,1321,o),
(575,1321,cs),
(696,1321,o),
(795,1258,o),
(852,1154,c),
(982,1240,l),
(891,1391,o),
(755,1468,o),
(578,1468,cs),
(355,1468,o),
(180,1316,o),
(180,1099,cs),
(180,668,o),
(875,736,o),
(875,384,cs),
(875,222,o),
(764,135,o),
(590,135,cs),
(401,135,o),
(266,248,o),
(245,420,c)
);
}
);
width = 1144;
},
{
anchors = (
{
name = top;
position = "{560, 1618}";
}
);
layerId = "B769F827-5E5D-44DC-BEA8-1B95CFBF39E3";
shapes = (
{
closed = 1;
nodes = (
(94,360,l),
(132,131,o),
(324,-16,o),
(584,-16,cs),
(841,-16,o),
(1023,152,o),
(1023,394,cs),
(1023,846,o),
(326,777,o),
(326,1122,cs),
(326,1251,o),
(431,1349,o),
(570,1349,cs),
(697,1349,o),
(801,1289,o),
(861,1180,c),
(963,1249,l),
(874,1394,o),
(742,1468,o),
(571,1468,cs),
(354,1468,o),
(190,1313,o),
(190,1108,cs),
(190,693,o),
(887,743,o),
(887,384,cs),
(887,207,o),
(778,108,o),
(584,108,cs),
(388,108,o),
(242,225,o),
(222,400,c)
);
}
);
width = 1134;
}
);
leftKerningGroup = S;
rightKerningGroup = S1;
unicode = 83;
},
{
glyphname = T;
layers = (
{
anchors = (
{
name = cedilla;
position = "{581, 0}";
}
);
layerId = "F7413D4C-EAF4-4E43-8F2C-0DFA69218E69";
shapes = (
{
closed = 1;
nodes = (
(451,0,l),
(740,0,l,{name = .av01;}),
(740,1185,l,{name = .dh02;}),
(1182,1185,l,{name = .dv01;}),
(1182,1448,l,{name = .dv02;}),
(7,1448,l),
(7,1185,l,{name = .sv01;}),
(451,1185,l,{name = .dh01;})
);
}
);
width = 1191;
},
{
anchors = (
{
name = cedilla;
position = "{582, 0}";
}
);
layerId = "FF7C99D0-C175-48E4-AC69-2B77C3BA1C9F";
shapes = (
{
closed = 1;
nodes = (
(474,0,l),
(734,0,l),
(734,1215,l),
(1187,1215,l),
(1187,1448,l),
(20,1448,l),
(20,1215,l),
(474,1215,l)
);
}
);
width = 1208;
},
{
anchors = (
{
name = cedilla;
position = "{613, 0}";
}
);
layerId = "FD60B6D8-DC1B-493D-A036-B8A9A3BDE096";
shapes = (
{
closed = 1;
nodes = (
(544,0,l),
(716,0,l),
(716,1307,l),
(1201,1307,l),
(1201,1448,l),
(58,1448,l),
(58,1307,l),
(544,1307,l)
);
}
);
width = 1260;
},
{
anchors = (
{
name = cedilla;
position = "{623, 0}";
}
);
layerId = "B769F827-5E5D-44DC-BEA8-1B95CFBF39E3";
shapes = (
{
closed = 1;
nodes = (
(567,0,l),
(710,0,l),
(710,1337,l),
(1206,1337,l),
(1206,1448,l),
(71,1448,l),
(71,1337,l),
(567,1337,l)
);
}
);
width = 1277;
}
);
leftKerningGroup = T;
rightKerningGroup = T1;
unicode = 84;
},
{
glyphname = U;
layers = (
{
anchors = (
{
name = top;
position = "{711, 1618}";
},
{
name = ogonek;
position = "{822, 0}";
},
{
name = horn;
position = "{1606, 1448}";
}
);
layerId = "F7413D4C-EAF4-4E43-8F2C-0DFA69218E69";
shapes = (
{
closed = 1;
nodes = (
(1091,-20,o),
(1280,182,o),
(1280,585,cs),
(1280,1448,l,{name = .av01;}),
(989,1448,l,{name = .ah01;}),
(989,599,ls),
(989,368,o),
(937,261,o),
(711,261,cs,{name = .dv02;}),
(484,261,o),
(432,379,o),
(432,587,cs),
(432,1448,l,{name = .av02;}),
(142,1448,l,{name = .sh01;}),
(142,574,ls),
(142,194,o),
(322,-20,o),
(711,-20,cs,{name = .dv01;})
);
}
);
width = 1421;
},
{
anchors = (
{
name = top;
position = "{707, 1618}";
},
{
name = ogonek;
position = "{868, 0}";
},
{
name = horn;
position = "{1522, 1448}";
}
);
layerId = "FF7C99D0-C175-48E4-AC69-2B77C3BA1C9F";
shapes = (
{
closed = 1;
nodes = (
(1092,-20,o),
(1261,204,o),
(1261,574,cs),
(1261,1448,l),
(1000,1448,l),
(1000,594,ls),
(1000,342,o),
(928,230,o),
(707,230,cs),
(469,230,o),
(413,371,o),
(413,594,cs),
(413,1448,l),
(154,1448,l),
(154,564,ls),
(154,198,o),
(330,-20,o),
(707,-20,cs)
);
}
);
width = 1413;
},
{
anchors = (
{
name = top;
position = "{696, 1618}";
},
{
name = ogonek;
position = "{836, 0}";
},
{
name = horn;
position = "{1441, 1448}";
}
);
layerId = "FD60B6D8-DC1B-493D-A036-B8A9A3BDE096";
shapes = (
{
closed = 1;
nodes = (
(1040,-20,o),
(1205,219,o),
(1205,544,cs),
(1205,1448,l,{name = .av01;}),
(1035,1448,l,{name = .ah01;}),
(1035,578,ls),
(1035,333,o),
(962,140,o),
(694,140,cs,{name = .dv02;}),
(423,140,o),
(357,341,o),
(357,578,cs),
(357,1448,l,{name = .av02;}),
(187,1448,l,{name = .sh01;}),
(187,533,ls),
(187,209,o),
(353,-20,o),
(694,-20,cs,{name = .dv01;})
);
}
);
width = 1390;
},
{
anchors = (
{
name = top;
position = "{692, 1618}";
},
{
name = ogonek;
position = "{825, 0}";
},
{
name = horn;
position = "{1414, 1448}";
}
);
layerId = "B769F827-5E5D-44DC-BEA8-1B95CFBF39E3";
shapes = (
{
closed = 1;
nodes = (
(1022,-20,o),
(1186,224,o),
(1186,534,cs),
(1186,1448,l,{name = .av01;}),
(1047,1448,l,{name = .ah01;}),
(1047,572,ls),
(1047,330,o),
(973,110,o),
(690,110,cs,{name = .dv02;}),
(408,110,o),
(338,331,o),
(338,572,cs),
(338,1448,l,{name = .av02;}),
(198,1448,l,{name = .sh01;}),
(198,523,ls),
(198,212,o),
(360,-20,o),
(690,-20,cs,{name = .dv01;})
);
}
);
width = 1382;
}
);
leftKerningGroup = U;
rightKerningGroup = U1;
unicode = 85;
},
{
glyphname = V;
layers = (
{
layerId = "F7413D4C-EAF4-4E43-8F2C-0DFA69218E69";
shapes = (
{
closed = 1;
nodes = (
(798,0,l,{name = .av03;}),
(1385,1448,l,{name = .av01;}),
(1064,1448,l),
(693,486,l,{name = .iv01;}),
(321,1448,l,{name = .av02;}),
(-4,1448,l),
(586,0,l)
);
}
);
width = 1381;
},
{
layerId = "FF7C99D0-C175-48E4-AC69-2B77C3BA1C9F";
shapes = (
{
closed = 1;
nodes = (
(786,0,l),
(1363,1448,l),
(1078,1448,l),
(690,422,l),
(300,1448,l),
(12,1448,l),
(592,0,l)
);
}
);
width = 1375;
},
{
layerId = "FD60B6D8-DC1B-493D-A036-B8A9A3BDE096";
shapes = (
{
closed = 1;
nodes = (
(753,0,l),
(1299,1448,l),
(1119,1448,l),
(682,235,l),
(244,1448,l),
(61,1448,l),
(609,0,l)
);
}
);
width = 1359;
},
{
layerId = "B769F827-5E5D-44DC-BEA8-1B95CFBF39E3";
shapes = (
{
closed = 1;
nodes = (
(742,0,l),
(1277,1448,l),
(1133,1448,l),
(679,172,l),
(225,1448,l),
(77,1448,l),
(615,0,l)
);
}
);
width = 1354;
}
);
unicode = 86;
},
{
glyphname = W;
layers = (
{
anchors = (
{
name = top;
position = "{1028, 1618}";
}
);
layerId = "F7413D4C-EAF4-4E43-8F2C-0DFA69218E69";
shapes = (
{
closed = 1;
nodes = (
(1608,0,l,{name = .av03;}),
(2050,1448,l,{name = .av01;}),
(1748,1448,l),
(1450,439,l,{name = .iv01;}),
(1142,1448,l),
(919,1448,l),
(610,439,l,{name = .iv02;}),
(312,1448,l,{name = .av02;}),
(10,1448,l),
(453,0,l,{name = .av04;}),
(726,0,l),
(1028,990,l,{name = .iv03;}),
(1334,0,l)
);
}
);
width = 2060;
},
{
anchors = (
{
name = top;
position = "{1025, 1618}";
}
);
layerId = "FF7C99D0-C175-48E4-AC69-2B77C3BA1C9F";
shapes = (
{
closed = 1;
nodes = (
(1591,0,l),
(2025,1448,l),
(1755,1448,l),
(1447,382,l),
(1126,1448,l),
(925,1448,l),
(604,382,l),
(296,1448,l),
(26,1448,l),
(460,0,l),
(711,0,l),
(1025,1037,l),
(1340,0,l)
);
}
);
width = 2051;
},
{
anchors = (
{
name = top;
position = "{1015, 1618}";
}
);
layerId = "FD60B6D8-DC1B-493D-A036-B8A9A3BDE096";
shapes = (
{
closed = 1;
nodes = (
(1545,0,l),
(1955,1448,l),
(1780,1448,l),
(1440,216,l),
(1081,1448,l),
(945,1448,l),
(588,216,l),
(246,1448,l),
(73,1448,l),
(481,0,l),
(669,0,l),
(1015,1173,l),
(1357,0,l)
);
}
);
width = 2026;
},
{
anchors = (
{
name = top;
position = "{1011, 1618}";
}
);
layerId = "B769F827-5E5D-44DC-BEA8-1B95CFBF39E3";
shapes = (
{
closed = 1;
nodes = (
(1529,0,l),
(1931,1448,l),
(1788,1448,l),
(1438,160,l),
(1066,1448,l),
(952,1448,l),
(583,160,l),
(229,1448,l),
(88,1448,l),
(488,0,l),
(655,0,l),
(1011,1218,l),
(1363,0,l)
);
}
);
width = 2018;
}
);
leftKerningGroup = W;
rightKerningGroup = W1;
unicode = 87;
},
{
glyphname = X;
layers = (
{
layerId = "F7413D4C-EAF4-4E43-8F2C-0DFA69218E69";
shapes = (
{
closed = 1;
nodes = (
(1393,0,l,{name = .av03;}),
(905,724,l),
(1391,1448,l,{name = .av01;}),
(1042,1448,l),
(701,902,l,{name = .iv01;}),
(359,1448,l,{name = .av02;}),
(12,1448,l),
(497,724,l),
(10,0,l,{name = .av04;}),
(357,0,l),
(699,538,l,{name = .iv02;}),
(1044,0,l)
);
}
);
width = 1402;
},
{
layerId = "FF7C99D0-C175-48E4-AC69-2B77C3BA1C9F";
shapes = (
{
closed = 1;
nodes = (
(1351,0,l),
(866,724,l),
(1349,1448,l),
(1038,1448,l),
(688,889,l),
(338,1448,l),
(28,1448,l),
(510,724,l),
(26,0,l),
(336,0,l),
(686,550,l),
(1040,0,l)
);
}
);
width = 1375;
},
{
layerId = "FD60B6D8-DC1B-493D-A036-B8A9A3BDE096";
shapes = (
{
closed = 1;
nodes = (
(1229,0,l),
(752,724,l),
(1227,1448,l),
(1028,1448,l),
(651,849,l),
(275,1448,l),
(73,1448,l),
(551,724,l),
(71,0,l),
(273,0,l),
(649,588,l),
(1030,0,l)
);
}
);
width = 1300;
},
{
layerId = "B769F827-5E5D-44DC-BEA8-1B95CFBF39E3";
shapes = (
{
closed = 1;
nodes = (
(1188,0,l),
(714,724,l),
(1186,1448,l),
(1025,1448,l),
(639,836,l),
(254,1448,l),
(88,1448,l),
(565,724,l),
(86,0,l),
(252,0,l),
(636,600,l),
(1027,0,l)
);
}
);
width = 1275;
}
);
unicode = 88;
},
{
glyphname = Y;
layers = (
{
anchors = (
{
name = top;
position = "{673, 1618}";
}
);
layerId = "F7413D4C-EAF4-4E43-8F2C-0DFA69218E69";
shapes = (
{
closed = 1;
nodes = (
(829,0,l,{name = .av03;}),
(829,563,l,{name = .dh02;}),
(1371,1448,l,{name = .av01;}),
(1015,1448,l),
(673,840,l,{name = .iv01;}),
(334,1448,l,{name = .av02;}),
(-19,1448,l),
(523,563,l,{name = .dh01;}),
(523,0,l)
);
}
);
width = 1352;
},
{
anchors = (
{
name = top;
position = "{673, 1618}";
}
);
layerId = "FF7C99D0-C175-48E4-AC69-2B77C3BA1C9F";
shapes = (
{
closed = 1;
nodes = (
(812,0,l),
(812,564,l),
(1353,1448,l),
(1036,1448,l),
(673,814,l),
(312,1448,l),
(-2,1448,l),
(541,564,l),
(541,0,l)
);
}
);
width = 1351;
},
{
anchors = (
{
name = top;
position = "{674, 1618}";
}
);
layerId = "FD60B6D8-DC1B-493D-A036-B8A9A3BDE096";
shapes = (
{
closed = 1;
nodes = (
(760,0,l),
(760,566,l),
(1300,1448,l),
(1100,1448,l),
(674,737,l),
(249,1448,l),
(50,1448,l),
(591,566,l),
(591,0,l)
);
}
);
width = 1350;
},
{
anchors = (
{
name = top;
position = "{674, 1618}";
}
);
layerId = "B769F827-5E5D-44DC-BEA8-1B95CFBF39E3";
shapes = (
{
closed = 1;
nodes = (
(742,0,l),
(742,566,l),
(1282,1448,l),
(1121,1448,l),
(674,711,l),
(228,1448,l),
(67,1448,l),
(608,566,l),
(608,0,l)
);
}
);
width = 1349;
}
);
leftKerningGroup = Y;
rightKerningGroup = Y1;
unicode = 89;
},
{
glyphname = Z;
layers = (
{
anchors = (
{
name = top;
position = "{673, 1618}";
}
);
layerId = "F7413D4C-EAF4-4E43-8F2C-0DFA69218E69";
shapes = (
{
closed = 1;
nodes = (
(1234,0,l,{name = .dv00;}),
(1234,261,l,{name = .dv05;}),
(465,261,l),
(1234,1242,l),
(1234,1448,l,{name = .av01;}),
(97,1448,l,{name = .dv06;}),
(97,1179,l,{name = .dv07;}),
(825,1179,l),
(51,197,l),
(51,0,l)
);
}
);
width = 1302;
},
{
anchors = (
{
name = top;
position = "{667, 1618}";
}
);
layerId = "FF7C99D0-C175-48E4-AC69-2B77C3BA1C9F";
shapes = (
{
closed = 1;
nodes = (
(1227,0,l),
(1227,234,l),
(424,234,l),
(1227,1259,l),
(1227,1448,l),
(106,1448,l),
(106,1209,l),
(868,1209,l),
(60,180,l),
(60,0,l)
);
}
);
width = 1303;
},
{
anchors = (
{
name = top;
position = "{670, 1618}";
}
);
layerId = "FD60B6D8-DC1B-493D-A036-B8A9A3BDE096";
shapes = (
{
closed = 1;
nodes = (
(1206,0,l),
(1206,154,l),
(302,154,l),
(1206,1310,l),
(1206,1448,l),
(133,1448,l),
(133,1300,l),
(996,1300,l),
(87,131,l),
(87,0,l)
);
}
);
width = 1306;
},
{
anchors = (
{
name = top;
position = "{671, 1618}";
}
);
layerId = "B769F827-5E5D-44DC-BEA8-1B95CFBF39E3";
shapes = (
{
closed = 1;
nodes = (
(1199,0,l),
(1199,127,l),
(261,127,l),
(1199,1327,l),
(1199,1448,l),
(142,1448,l),
(142,1330,l),
(1038,1330,l),
(96,114,l),
(96,0,l)
);
}
);
width = 1307;
}
);
leftKerningGroup = Z;
rightKerningGroup = Z1;
unicode = 90;
},
{
glyphname = bracketleft;
layers = (
{
layerId = "F7413D4C-EAF4-4E43-8F2C-0DFA69218E69";
shapes = (
{
closed = 1;
nodes = (
(636,-190,l,{name = .dv01;}),
(636,0,l,{name = .dv02;}),
(395,0,l),
(395,1444,l,{name = .dv03;}),
(636,1444,l),
(636,1632,l,{name = .sh01;}),
(171,1632,l,{name = .dv04;}),
(171,-190,l)
);
}
);
width = 658;
},
{
layerId = "FF7C99D0-C175-48E4-AC69-2B77C3BA1C9F";
shapes = (
{
closed = 1;
nodes = (
(623,-168,l),
(623,0,l),
(382,0,l),
(382,1445,l),
(623,1445,l),
(623,1611,l),
(180,1611,l),
(180,-168,l)
);
}
);
width = 656;
},
{
layerId = "FD60B6D8-DC1B-493D-A036-B8A9A3BDE096";
shapes = (
{
closed = 1;
nodes = (
(583,-103,l),
(583,-2,l),
(342,-2,l),
(342,1449,l),
(583,1449,l),
(583,1547,l),
(207,1547,l),
(207,-103,l)
);
}
);
width = 650;
},
{
layerId = "B769F827-5E5D-44DC-BEA8-1B95CFBF39E3";
shapes = (
{
closed = 1;
nodes = (
(570,-81,l),
(570,-3,l),
(328,-3,l),
(328,1450,l),
(570,1450,l),
(570,1526,l),
(216,1526,l),
(216,-81,l)
);
}
);
width = 648;
}
);
unicode = 91;
},
{
glyphname = backslash;
layers = (
{
layerId = "F7413D4C-EAF4-4E43-8F2C-0DFA69218E69";
shapes = (
{
closed = 1;
nodes = (
(1012,-440,l,{name = .av01;}),
(203,1552,l,{name = .av02;}),
(-53,1552,l),
(754,-440,l)
);
}
);
width = 958;
},
{
layerId = "FF7C99D0-C175-48E4-AC69-2B77C3BA1C9F";
shapes = (
{
closed = 1;
nodes = (
(994,-440,l),
(195,1552,l),
(-38,1552,l),
(761,-440,l)
);
}
);
width = 956;
},
{
layerId = "FD60B6D8-DC1B-493D-A036-B8A9A3BDE096";
shapes = (
{
closed = 1;
nodes = (
(944,-441,l),
(170,1552,l),
(8,1552,l),
(783,-441,l)
);
}
);
width = 951;
},
{
layerId = "B769F827-5E5D-44DC-BEA8-1B95CFBF39E3";
shapes = (
{
closed = 1;
nodes = (
(927,-441,l),
(162,1552,l),
(23,1552,l),
(790,-441,l)
);
}
);
width = 949;
}
);
unicode = 92;
},
{
glyphname = bracketright;
layers = (
{
layerId = "F7413D4C-EAF4-4E43-8F2C-0DFA69218E69";
shapes = (
{
closed = 1;
nodes = (
(487,-190,l,{name = .dv01;}),
(487,1632,l,{name = .dh01;}),
(23,1632,l,{name = .dv04;}),
(23,1444,l,{name = .dv03;}),
(263,1444,l,{name = .sh01;}),
(263,0,l,{name = .dv02;}),
(23,0,l,{name = .sh02;}),
(23,-190,l)
);
}
);
width = 658;
},
{
layerId = "FF7C99D0-C175-48E4-AC69-2B77C3BA1C9F";
shapes = (
{
closed = 1;
nodes = (
(476,-168,l),
(476,1611,l),
(34,1611,l),
(34,1445,l),
(274,1445,l),
(274,0,l),
(34,0,l),
(34,-168,l)
);
}
);
width = 656;
},
{
layerId = "FD60B6D8-DC1B-493D-A036-B8A9A3BDE096";
shapes = (
{
closed = 1;
nodes = (
(442,-103,l),
(442,1547,l),
(66,1547,l),
(66,1449,l),
(307,1449,l),
(307,-2,l),
(66,-2,l),
(66,-103,l)
);
}
);
width = 649;
},
{
layerId = "B769F827-5E5D-44DC-BEA8-1B95CFBF39E3";
shapes = (
{
closed = 1;
nodes = (
(430,-81,l),
(430,1526,l),
(77,1526,l),
(77,1450,l),
(318,1450,l),
(318,-3,l),
(77,-3,l),
(77,-81,l)
);
}
);
width = 647;
}
);
unicode = 93;
},
{
glyphname = asciicircum;
layers = (
{
layerId = "F7413D4C-EAF4-4E43-8F2C-0DFA69218E69";
shapes = (
{
closed = 1;
nodes = (
(961,813,l,{name = .av01;}),
(502,1554,l,{name = .av03;}),
(45,813,l,{name = .av02;}),
(319,813,l),
(502,1111,l,{name = .iv01;}),
(686,813,l)
);
}
);
width = 1007;
},
{
layerId = "FF7C99D0-C175-48E4-AC69-2B77C3BA1C9F";
shapes = (
{
closed = 1;
nodes = (
(940,824,l),
(501,1533,l),
(65,824,l),
(312,824,l),
(501,1133,l),
(692,824,l)
);
}
);
width = 1005;
},
{
layerId = "FD60B6D8-DC1B-493D-A036-B8A9A3BDE096";
shapes = (
{
closed = 1;
nodes = (
(879,857,l),
(499,1468,l),
(123,857,l),
(291,857,l),
(499,1198,l),
(711,857,l)
);
}
);
width = 1000;
},
{
layerId = "B769F827-5E5D-44DC-BEA8-1B95CFBF39E3";
shapes = (
{
closed = 1;
nodes = (
(858,868,l),
(498,1446,l),
(142,868,l),
(284,868,l),
(498,1219,l),
(717,868,l)
);
}
);
width = 998;
}
);
unicode = 94;
},
{
glyphname = underscore;
layers = (
{
layerId = "F7413D4C-EAF4-4E43-8F2C-0DFA69218E69";
shapes = (
{
closed = 1;
nodes = (
(1087,-211,l,{name = .dv01;}),
(1087,0,l,{name = .dv02;}),
(195,0,l),
(195,-211,l)
);
}
);
width = 1280;
},
{
layerId = "FF7C99D0-C175-48E4-AC69-2B77C3BA1C9F";
shapes = (
{
closed = 1;
nodes = (
(1074,-188,l),
(1074,0,l),
(204,0,l),
(204,-188,l)
);
}
);
width = 1277;
},
{
layerId = "FD60B6D8-DC1B-493D-A036-B8A9A3BDE096";
shapes = (
{
closed = 1;
nodes = (
(1036,-124,l),
(1036,-2,l),
(233,-2,l),
(233,-124,l)
);
}
);
width = 1269;
},
{
layerId = "B769F827-5E5D-44DC-BEA8-1B95CFBF39E3";
shapes = (
{
closed = 1;
nodes = (
(1023,-102,l),
(1023,-3,l),
(242,-3,l),
(242,-102,l)
);
}
);
width = 1266;
}
);
unicode = 95;
},
{
glyphname = grave;
layers = (
{
layerId = "F7413D4C-EAF4-4E43-8F2C-0DFA69218E69";
shapes = (
{
closed = 1;
nodes = (
(532,1192,l,{name = .av07;}),
(298,1508,l,{name = .av08;}),
(10,1508,l),
(342,1192,l)
);
}
);
width = 553;
},
{
layerId = "FF7C99D0-C175-48E4-AC69-2B77C3BA1C9F";
shapes = (
{
closed = 1;
nodes = (
(511,1192,l),
(280,1508,l),
(13,1508,l),
(329,1192,l)
);
}
);
width = 545;
},
{
layerId = "FD60B6D8-DC1B-493D-A036-B8A9A3BDE096";
shapes = (
{
closed = 1;
nodes = (
(477,1192,l),
(255,1492,l),
(54,1492,l),
(331,1192,l)
);
}
);
width = 549;
},
{
layerId = "B769F827-5E5D-44DC-BEA8-1B95CFBF39E3";
shapes = (
{
closed = 1;
nodes = (
(466,1192,l),
(247,1487,l),
(68,1487,l),
(332,1192,l)
);
}
);
width = 550;
}
);
unicode = 96;
},
{
glyphname = a;
layers = (
{
anchors = (
{
name = ogonek;
position = "{989, 0}";
},
{
name = top;
position = "{535, 1192}";
},
{
name = center;
position = "{535, 1415}";
},
{
name = bottom;
position = "{535, -150}";
}
);
layerId = "F7413D4C-EAF4-4E43-8F2C-0DFA69218E69";
shapes = (
{
closed = 1;
nodes = (
(560,-20,o),
(655,17,o),
(739,130,c,{name = .iv01;}),
(760,0,l),
(1026,0,l),
(1004,64,o),
(989,168,o),
(989,228,cs),
(989,618,ls,{name = .sh01;}),
(989,916,o),
(814,1084,o),
(531,1084,cs,{name = .dv04;}),
(337,1084,o),
(195,1003,o),
(90,857,c),
(306,702,l,{name = .sh04;}),
(354,787,o),
(431,840,o),
(534,840,cs,{name = .dv03;}),
(652,840,o),
(720,772,o),
(720,618,c,{name = .dv06;}),
(443,618,ls),
(245,618,o),
(34,554,o),
(34,316,cs,{name = .sh02;}),
(34,101,o),
(227,-20,o),
(423,-20,cs)
);
},
{
closed = 1;
nodes = (
(384,216,o),
(321,257,o),
(321,314,cs,{name = .sh03;}),
(321,397,o),
(422,418,o),
(488,418,cs,{name = .sv01;}),
(720,418,l,{name = .dv05;}),
(720,298,o),
(581,216,o),
(475,216,cs,{name = .dv02;})
);
}
);
width = 1098;
},
{
anchors = (
{
name = ogonek;
position = "{974, 0}";
},
{
name = top;
position = "{531, 1192}";
},
{
name = center;
position = "{531, 1406}";
},
{
name = bottom;
position = "{531, -150}";
}
);
layerId = "FF7C99D0-C175-48E4-AC69-2B77C3BA1C9F";
shapes = (
{
closed = 1;
nodes = (
(567,-20,o),
(670,26,o),
(752,148,c,{name = .iv01;}),
(771,0,l),
(1008,0,l),
(988,75,o),
(974,181,o),
(974,252,cs),
(974,625,ls,{name = .sh01;}),
(974,915,o),
(807,1084,o),
(527,1084,cs,{name = .dv04;}),
(340,1084,o),
(200,1007,o),
(97,863,c),
(289,724,l,{name = .sh04;}),
(341,813,o),
(424,866,o),
(532,866,cs,{name = .dv03;}),
(671,866,o),
(736,775,o),
(736,614,c,{name = .dv06;}),
(467,614,ls),
(266,614,o),
(45,554,o),
(45,310,cs,{name = .sh02;}),
(45,98,o),
(228,-20,o),
(423,-20,cs)
);
},
{
closed = 1;
nodes = (
(369,190,o),
(301,236,o),
(301,308,cs,{name = .sh03;}),
(301,416,o),
(425,434,o),
(509,434,cs,{name = .sv01;}),
(736,434,l,{name = .dv05;}),
(736,297,o),
(595,190,o),
(467,190,cs,{name = .dv02;})
);
}
);
width = 1092;
},
{
anchors = (
{
name = ogonek;
position = "{931, 0}";
},
{
name = top;
position = "{517, 1192}";
},
{
name = center;
position = "{517, 1381}";
},
{
name = bottom;
position = "{517, -150}";
}
);
layerId = "FD60B6D8-DC1B-493D-A036-B8A9A3BDE096";
shapes = (
{
closed = 1;
nodes = (
(590,-20,o),
(715,53,o),
(792,203,c,{name = .iv01;}),
(806,0,l),
(956,0,l),
(939,106,o),
(931,220,o),
(931,326,cs),
(931,647,ls,{name = .sh01;}),
(931,912,o),
(784,1084,o),
(517,1084,cs,{name = .dv04;}),
(349,1084,o),
(215,1017,o),
(119,883,c),
(236,789,l,{name = .sh04;}),
(303,890,o),
(404,946,o),
(526,946,cs,{name = .dv03;}),
(728,946,o),
(784,785,o),
(784,604,c,{name = .dv06;}),
(537,604,ls),
(328,604,o),
(76,554,o),
(76,294,cs,{name = .sh02;}),
(76,91,o),
(231,-20,o),
(422,-20,cs)
);
},
{
closed = 1;
nodes = (
(323,114,o),
(242,175,o),
(242,291,cs,{name = .sh03;}),
(242,471,o),
(436,484,o),
(571,484,cs,{name = .sv01;}),
(784,484,l,{name = .dv05;}),
(784,296,o),
(637,114,o),
(442,114,cs,{name = .dv02;})
);
}
);
width = 1072;
},
{
anchors = (
{
name = top;
position = "{513, 1192}";
},
{
name = ogonek;
position = "{916, 0}";
},
{
name = center;
position = "{513, 1372}";
},
{
name = bottom;
position = "{513, -150}";
}
);
layerId = "B769F827-5E5D-44DC-BEA8-1B95CFBF39E3";
shapes = (
{
closed = 1;
nodes = (
(597,-20,o),
(730,62,o),
(805,221,c,{name = .sh01;}),
(817,0,l),
(938,0,l),
(923,117,o),
(916,233,o),
(916,350,cs),
(916,654,ls,{name = .dh03;}),
(916,911,o),
(777,1084,o),
(513,1084,cs,{name = .dv06;}),
(352,1084,o),
(220,1021,o),
(126,889,c),
(219,811,l),
(290,916,o),
(397,972,o),
(524,972,cs,{name = .dv05;}),
(747,972,o),
(800,788,o),
(800,600,c,{name = .av01;}),
(561,600,ls,{name = .dv04;}),
(349,600,o),
(87,554,o),
(87,288,cs,{name = .dh01;}),
(87,88,o),
(232,-20,o),
(422,-20,cs,{name = .dv01;})
);
},
{
closed = 1;
nodes = (
(308,88,o),
(222,154,o),
(222,285,cs,{name = .dh02;}),
(222,490,o),
(439,500,o),
(592,500,cs,{name = .dv03;}),
(800,500,l,{name = .sh02;}),
(800,295,o),
(651,88,o),
(434,88,cs,{name = .dv02;})
);
}
);
width = 1066;
}
);
leftKerningGroup = a;
rightKerningGroup = a1;
unicode = 97;
},
{
glyphname = b;
layers = (
{
layerId = "F7413D4C-EAF4-4E43-8F2C-0DFA69218E69";
shapes = (
{
closed = 1;
nodes = (
(983,-20,o),
(1164,226,o),
(1164,541,cs),
(1164,852,o),
(985,1084,o),
(720,1084,cs,{name = .dv04;}),
(594,1084,o),
(498,1047,o),
(434,973,c,{name = .iv01;}),
(434,1448,l,{name = .av01;}),
(143,1448,l),
(143,0,l,{name = .dh01;}),
(434,0,l,{name = .sh01;}),
(434,91,l,{name = .iv02;}),
(500,17,o),
(601,-20,o),
(732,-20,cs)
);
},
{
closed = 1;
nodes = (
(502,240,o),
(409,366,o),
(409,532,cs,{name = .dh02;}),
(409,702,o),
(500,829,o),
(648,829,cs,{name = .dv03;}),
(790,829,o),
(882,701,o),
(882,532,cs,{name = .dh03;}),
(882,362,o),
(794,240,o),
(648,240,cs,{name = .dv02;})
);
}
);
width = 1220;
},
{
layerId = "FF7C99D0-C175-48E4-AC69-2B77C3BA1C9F";
shapes = (
{
closed = 1;
nodes = (
(1016,-20,o),
(1164,256,o),
(1164,532,cs),
(1164,808,o),
(1022,1084,o),
(710,1084,cs),
(596,1084,o),
(489,1048,o),
(415,961,c),
(415,1448,l),
(157,1448,l),
(157,0,l),
(415,0,l),
(415,102,l),
(490,16,o),
(602,-20,o),
(714,-20,cs)
);
},
{
closed = 1;
nodes = (
(473,210,o),
(392,349,o),
(392,532,cs),
(392,701,o),
(463,858,o),
(653,858,cs),
(842,858,o),
(912,699,o),
(912,532,cs),
(912,362,o),
(843,210,o),
(653,210,cs)
);
}
);
width = 1223;
},
{
layerId = "FD60B6D8-DC1B-493D-A036-B8A9A3BDE096";
shapes = (
{
closed = 1;
nodes = (
(969,-20,o),
(1095,270,o),
(1095,531,cs),
(1095,792,o),
(970,1084,o),
(667,1084,cs),
(531,1084,o),
(420,1031,o),
(341,921,c),
(341,1448,l),
(180,1448,l),
(180,0,l),
(341,0,l),
(341,141,l),
(420,28,o),
(533,-20,o),
(668,-20,cs)
);
},
{
closed = 1;
nodes = (
(405,121,o),
(327,337,o),
(327,531,cs),
(327,719,o),
(402,943,o),
(625,943,cs),
(853,943,o),
(935,727,o),
(935,531,cs),
(935,338,o),
(854,121,o),
(628,121,cs)
);
}
);
width = 1184;
},
{
layerId = "B769F827-5E5D-44DC-BEA8-1B95CFBF39E3";
shapes = (
{
closed = 1;
nodes = (
(953,-20,o),
(1072,274,o),
(1072,531,cs),
(1072,787,o),
(952,1084,o),
(653,1084,cs),
(509,1084,o),
(397,1025,o),
(316,907,c),
(316,1448,l),
(188,1448,l),
(188,0,l),
(316,0,l),
(316,154,l),
(397,32,o),
(510,-20,o),
(653,-20,cs)
);
},
{
closed = 1;
nodes = (
(382,91,o),
(305,333,o),
(305,531,cs),
(305,725,o),
(381,971,o),
(615,971,cs),
(856,971,o),
(943,736,o),
(943,531,cs),
(943,330,o),
(857,91,o),
(620,91,cs)
);
}
);
width = 1171;
}
);
unicode = 98;
},
{
glyphname = c;
layers = (
{
anchors = (
{
name = top;
position = "{538, 1192}";
}
);
layerId = "F7413D4C-EAF4-4E43-8F2C-0DFA69218E69";
shapes = (
{
closed = 1;
nodes = (
(760,-20,o),
(933,99,o),
(1002,292,c),
(746,387,l),
(720,299,o),
(651,247,o),
(557,247,cs,{name = .dv02;}),
(418,247,o),
(332,355,o),
(332,530,cs,{name = .dh02;}),
(332,702,o),
(422,816,o),
(557,816,cs,{name = .dv03;}),
(653,816,o),
(721,766,o),
(746,675,c),
(1013,777,l),
(928,972,o),
(761,1084,o),
(557,1084,cs,{name = .dv04;}),
(249,1084,o),
(47,864,o),
(47,529,cs,{name = .dh01;}),
(47,199,o),
(249,-20,o),
(550,-20,cs)
);
}
);
width = 1037;
},
{
anchors = (
{
name = top;
position = "{568, 1192}";
}
);
layerId = "FF7C99D0-C175-48E4-AC69-2B77C3BA1C9F";
shapes = (
{
closed = 1;
nodes = (
(777,-20,o),
(943,92,o),
(1014,288,c),
(777,379,l),
(748,278,o),
(670,214,o),
(564,214,cs),
(380,214,o),
(314,367,o),
(314,530,cs),
(314,693,o),
(385,849,o),
(564,849,cs),
(666,849,o),
(747,794,o),
(777,684,c),
(1024,782,l),
(940,972,o),
(777,1084,o),
(568,1084,cs),
(253,1084,o),
(60,839,o),
(60,530,cs),
(60,244,o),
(230,-20,o),
(570,-20,cs)
);
}
);
width = 1055;
},
{
anchors = (
{
name = top;
position = "{555, 1192}";
}
);
layerId = "FD60B6D8-DC1B-493D-A036-B8A9A3BDE096";
shapes = (
{
closed = 1;
nodes = (
(751,-20,o),
(894,79,o),
(961,260,c),
(815,322,l),
(778,203,o),
(675,125,o),
(554,125,cs),
(365,125,o),
(259,288,o),
(259,530,cs),
(259,768,o),
(369,938,o),
(554,938,cs),
(675,938,o),
(782,859,o),
(815,741,c),
(972,808,l),
(894,983,o),
(743,1084,o),
(558,1084,cs),
(275,1084,o),
(95,859,o),
(95,529,cs),
(95,212,o),
(273,-20,o),
(560,-20,cs)
);
}
);
width = 1029;
},
{
anchors = (
{
name = top;
position = "{551, 1192}";
}
);
layerId = "B769F827-5E5D-44DC-BEA8-1B95CFBF39E3";
shapes = (
{
closed = 1;
nodes = (
(742,-20,o),
(877,74,o),
(943,250,c),
(827,303,l),
(788,178,o),
(677,95,o),
(551,95,cs),
(360,95,o),
(241,262,o),
(241,530,cs),
(241,793,o),
(364,967,o),
(551,967,cs),
(678,967,o),
(794,880,o),
(827,760,c),
(955,817,l),
(879,986,o),
(732,1084,o),
(554,1084,cs),
(282,1084,o),
(106,866,o),
(106,529,cs),
(106,201,o),
(287,-20,o),
(556,-20,cs)
);
}
);
width = 1020;
}
);
leftKerningGroup = c;
rightKerningGroup = c1;
unicode = 99;
},
{
glyphname = d;
layers = (
{
layerId = "F7413D4C-EAF4-4E43-8F2C-0DFA69218E69";
shapes = (
{
closed = 1;
nodes = (
(631,-20,o),
(738,25,o),
(797,105,c,{name = .iv01;}),
(811,0,l,{name = .sv01;}),
(1069,0,l),
(1069,1064,l,{name = .av01;}),
(784,1064,l,{name = .dh03;}),
(784,972,l,{name = .iv02;}),
(722,1046,o),
(621,1084,o),
(495,1084,cs,{name = .dv04;}),
(239,1084,o),
(54,858,o),
(54,543,cs,{name = .dh01;}),
(54,206,o),
(236,-20,o),
(507,-20,cs,{name = .dv01;})
);
},
{
closed = 1;
nodes = (
(426,239,o),
(338,348,o),
(338,532,cs,{name = .dh02;}),
(338,714,o),
(431,831,o),
(574,831,cs,{name = .dv03;}),
(718,831,o),
(808,716,o),
(808,532,cs,{name = .sh01;}),
(808,350,o),
(719,239,o),
(574,239,cs,{name = .dv02;})
);
},
{
closed = 1;
nodes = (
(784,1000,l),
(1069,1000,l),
(1069,1448,l),
(784,1448,l)
);
}
);
width = 1212;
},
{
layerId = "FF7C99D0-C175-48E4-AC69-2B77C3BA1C9F";
shapes = (
{
closed = 1;
nodes = (
(640,-20,o),
(752,20,o),
(826,115,c),
(838,0,l),
(1070,0,l),
(1070,1064,l),
(816,1064,l),
(816,962,l),
(742,1048,o),
(630,1084,o),
(518,1084,cs),
(216,1084,o),
(68,807,o),
(68,532,cs),
(68,257,o),
(211,-20,o),
(522,-20,cs)
);
},
{
closed = 1;
nodes = (
(402,210,o),
(322,347,o),
(322,532,cs),
(322,699,o),
(392,858,o),
(581,858,cs),
(771,858,o),
(838,700,o),
(838,532,cs),
(838,345,o),
(760,210,o),
(581,210,cs)
);
},
{
closed = 1;
nodes = (
(816,1000,l),
(1070,1000,l),
(1070,1448,l),
(816,1448,l)
);
}
);
width = 1218;
},
{
layerId = "FD60B6D8-DC1B-493D-A036-B8A9A3BDE096";
shapes = (
{
closed = 1;
nodes = (
(666,-20,o),
(773,27,o),
(856,145,c),
(860,0,l),
(1015,0,l),
(1015,1064,l),
(854,1064,l),
(854,923,l),
(774,1035,o),
(660,1084,o),
(526,1084,cs),
(226,1084,o),
(100,792,o),
(100,531,cs),
(100,274,o),
(224,-20,o),
(522,-20,cs)
);
},
{
closed = 1;
nodes = (
(341,125,o),
(264,334,o),
(264,533,cs),
(264,725,o),
(342,938,o),
(566,938,cs),
(793,938,o),
(868,726,o),
(868,533,cs),
(868,335,o),
(791,125,o),
(566,125,cs)
);
},
{
closed = 1;
nodes = (
(854,1000,l),
(1015,1000,l),
(1015,1448,l),
(854,1448,l)
);
}
);
width = 1185;
},
{
layerId = "B769F827-5E5D-44DC-BEA8-1B95CFBF39E3";
shapes = (
{
closed = 1;
nodes = (
(674,-20,o),
(780,29,o),
(866,155,c),
(867,0,l),
(996,0,l),
(996,1064,l),
(866,1064,l),
(866,910,l),
(785,1030,o),
(670,1084,o),
(528,1084,cs),
(229,1084,o),
(111,787,o),
(111,531,cs),
(111,280,o),
(228,-20,o),
(522,-20,cs)
);
},
{
closed = 1;
nodes = (
(320,97,o),
(244,330,o),
(244,533,cs),
(244,733,o),
(325,965,o),
(561,965,cs),
(800,965,o),
(878,734,o),
(878,533,cs),
(878,331,o),
(801,97,o),
(561,97,cs)
);
},
{
closed = 1;
nodes = (
(866,1000,l),
(996,1000,l),
(996,1448,l),
(866,1448,l)
);
}
);
width = 1174;
}
);
leftKerningGroup = d;
unicode = 100;
},
{
glyphname = e;
layers = (
{
anchors = (
{
name = top;
position = "{542, 1192}";
},
{
name = ogonek;
position = "{667, 0}";
}
);
layerId = "F7413D4C-EAF4-4E43-8F2C-0DFA69218E69";
shapes = (
{
closed = 1;
nodes = (
(742.4,-12.288,o),
(881.664,28.672,o),
(1009.664,169.984,c),
(816.128,340.992,l),
(741.376,264.192,o),
(673.792,250.88,o),
(570.368,250.88,cs,{name = .dv02;}),
(442.368,250.88,o),
(365.568,307.2,o),
(340.992,420.864,c,{name = .dv05;}),
(1040.384,420.864,l),
(1044.48,432.128,o),
(1051.648,468.992,o),
(1051.648,514.048,cs),
(1051.648,890.88,o),
(881.664,1084.416,o),
(553.984,1084.416,cs,{name = .dv04;}),
(250.88,1084.416,o),
(45.056,861.184,o),
(45.056,515.072,cs),
(45.056,197.632,o),
(248.832,-12.288,o),
(556.032,-12.288,cs)
);
},
{
closed = 1;
nodes = (
(340.992,618.496,l,{name = .dv06;}),
(363.52,779.264,o),
(442.368,850.944,o),
(553.984,850.944,cs,{name = .dv03;}),
(689.152,850.944,o),
(761.856,780.288,o),
(774.144,618.496,c)
);
}
);
width = 1102;
},
{
anchors = (
{
name = top;
position = "{550, 1192}";
},
{
name = ogonek;
position = "{699, 0}";
}
);
layerId = "FF7C99D0-C175-48E4-AC69-2B77C3BA1C9F";
shapes = (
{
closed = 1;
nodes = (
(777.216,-12.288,o),
(918.528,44.032,o),
(1034.24,163.84,c),
(855.04,323.584,l),
(780.288,239.616,o),
(698.368,220.16,o),
(588.8,220.16,cs),
(441.344,220.16,o),
(351.232,302.08,o),
(333.824,450.56,c),
(1063.936,450.56,l),
(1070.08,467.968,o),
(1073.152,494.592,o),
(1073.152,530.432,cs),
(1073.152,888.832,o),
(893.952,1084.416,o),
(571.392,1084.416,cs),
(267.264,1084.416,o),
(58.368,860.16,o),
(58.368,526.336,cs),
(58.368,204.8,o),
(272.384,-12.288,o),
(590.848,-12.288,cs)
);
},
{
closed = 1;
nodes = (
(333.824,630.784,l),
(358.4,792.576,o),
(441.344,874.496,o),
(571.392,874.496,cs),
(717.824,874.496,o),
(799.744,795.648,o),
(818.176,630.784,c)
);
}
);
width = 1132;
},
{
anchors = (
{
name = top;
position = "{550, 1192}";
},
{
name = ogonek;
position = "{669, 0}";
}
);
layerId = "FD60B6D8-DC1B-493D-A036-B8A9A3BDE096";
shapes = (
{
closed = 1;
nodes = (
(742.4,-12.288,o),
(877.568,39.936,o),
(980.992,147.456,c),
(869.376,242.688,l),
(788.48,155.648,o),
(687.104,132.096,o),
(571.392,132.096,cs),
(388.096,132.096,o),
(271.36,266.24,o),
(267.264,479.232,c),
(1003.52,479.232,l),
(1007.616,493.568,o),
(1008.64,510.976,o),
(1008.64,531.456,cs),
(1008.64,902.144,o),
(856.064,1084.416,o),
(555.008,1084.416,cs),
(284.672,1084.416,o),
(94.208,856.064,o),
(94.208,525.312,cs),
(94.208,203.776,o),
(285.696,-12.288,o),
(570.368,-12.288,cs)
);
},
{
closed = 1;
nodes = (
(267.264,608.256,l),
(280.576,819.2,o),
(390.144,943.104,o),
(555.008,943.104,cs),
(736.256,943.104,o),
(849.92,819.2,o),
(854.016,608.256,c)
);
}
);
width = 1094;
},
{
anchors = (
{
name = top;
position = "{550, 1192}";
},
{
name = ogonek;
position = "{659, 0}";
}
);
layerId = "B769F827-5E5D-44DC-BEA8-1B95CFBF39E3";
shapes = (
{
closed = 1;
nodes = (
(731.136,-12.288,o),
(864.256,38.912,o),
(962.56,141.312,c),
(874.496,215.04,l),
(791.552,128.,o),
(683.008,102.4,o),
(565.248,102.4,cs),
(370.688,102.4,o),
(244.736,253.952,o),
(244.736,488.448,c),
(983.04,488.448,l),
(986.112,501.76,o),
(987.136,516.096,o),
(987.136,531.456,cs),
(987.136,906.24,o),
(843.776,1084.416,o),
(549.888,1084.416,cs),
(290.816,1084.416,o),
(106.496,855.04,o),
(106.496,525.312,cs),
(106.496,203.776,o),
(289.792,-12.288,o),
(563.2,-12.288,cs)
);
},
{
closed = 1;
nodes = (
(244.736,601.088,l),
(254.976,827.392,o),
(372.736,965.632,o),
(549.888,965.632,cs),
(742.4,965.632,o),
(866.304,826.368,o),
(866.304,601.088,c)
);
}
);
width = 1081;
}
);
leftKerningGroup = e;
rightKerningGroup = e1;
unicode = 101;
},
{
glyphname = f;
layers = (
{
layerId = "F7413D4C-EAF4-4E43-8F2C-0DFA69218E69";
shapes = (
{
closed = 1;
nodes = (
(204,0,l),
(484,0,l,{name = .av01;}),
(484,828,l,{name = .dv03;}),
(705,828,l),
(705,1064,l),
(484,1064,l,{name = .dv04;}),
(484,1118,ls),
(484,1184,o),
(519,1217,o),
(565,1217,cs,{name = .dv01;}),
(589,1217,o),
(610,1208,o),
(632,1193,c),
(727,1425,l),
(662,1454,o),
(600,1468,o),
(529,1468,cs),
(354,1468,o),
(207,1342,o),
(207,1157,cs,{name = .sh01;}),
(207,1064,l,{name = .sv01;}),
(16,1064,l),
(16,828,l,{name = .sv02;}),
(204,828,l,{name = .dh01;})
);
}
);
width = 708;
},
{
layerId = "FF7C99D0-C175-48E4-AC69-2B77C3BA1C9F";
shapes = (
{
closed = 1;
nodes = (
(216,0,l),
(466,0,l),
(466,855,l),
(714,855,l),
(714,1064,l),
(466,1064,l),
(466,1155,ls),
(466,1220,o),
(510,1246,o),
(564,1246,cs),
(590,1246,o),
(617,1239,o),
(647,1226,c),
(732,1426,l),
(667,1454,o),
(605,1468,o),
(543,1468,cs),
(351,1468,o),
(218,1355,o),
(218,1189,cs),
(218,1064,l),
(22,1064,l),
(22,855,l),
(216,855,l)
);
}
);
width = 722;
},
{
layerId = "FD60B6D8-DC1B-493D-A036-B8A9A3BDE096";
shapes = (
{
closed = 1;
nodes = (
(228,0,l),
(396,0,l),
(396,932,l),
(688,932,l),
(688,1064,l),
(396,1064,l),
(396,1202,ls),
(396,1292,o),
(443,1329,o),
(526,1329,cs),
(566,1329,o),
(601,1320,o),
(634,1302,c),
(689,1430,l),
(633,1455,o),
(574,1468,o),
(515,1468,cs),
(354,1468,o),
(229,1381,o),
(229,1218,cs),
(229,1064,l),
(34,1064,l),
(34,932,l),
(228,932,l)
);
}
);
width = 715;
},
{
layerId = "B769F827-5E5D-44DC-BEA8-1B95CFBF39E3";
shapes = (
{
closed = 1;
nodes = (
(232,0,l),
(372,0,l),
(372,958,l),
(679,958,l),
(679,1064,l),
(372,1064,l),
(372,1218,ls),
(372,1316,o),
(420,1356,o),
(513,1356,cs),
(558,1356,o),
(596,1347,o),
(630,1327,c),
(674,1431,l),
(621,1455,o),
(564,1468,o),
(506,1468,cs),
(355,1468,o),
(232,1389,o),
(232,1228,cs),
(232,1064,l),
(38,1064,l),
(38,958,l),
(232,958,l)
);
}
);
width = 713;
}
);
unicode = 102;
},
{
glyphname = g;
layers = (
{
anchors = (
{
name = m.uni0326;
position = "{573, -472}";
},
{
name = m.uni0328_1;
position = "{0, 11}";
},
{
name = m.uni0308_2;
position = "{574, 1072}";
},
{
name = m.uni031B_3_2;
position = "{0, 11}";
}
);
layerId = "F7413D4C-EAF4-4E43-8F2C-0DFA69218E69";
shapes = (
{
closed = 1;
nodes = (
(809,-463,o),
(1082,-373,o),
(1082,-105,cs),
(1082,115,o),
(891,203,o),
(691,203,cs),
(470,203,ls),
(378,203,o),
(325,222,o),
(325,283,cs),
(325,323,o),
(346,350,o),
(383,364,c),
(447,343,o),
(516,332,o),
(591,332,cs),
(814,332,o),
(1012,456,o),
(1012,694,cs),
(1012,759,o),
(998,819,o),
(971,872,c),
(1126,993,l),
(980,1176,l),
(815,1036,l),
(744,1071,o),
(665,1084,o),
(576,1084,cs),
(338,1084,o),
(137,947,o),
(137,704,cs),
(137,623,o),
(158,555,o),
(202,497,c),
(105,440,o),
(60,352,o),
(60,258,cs),
(60,149,o),
(122,69,o),
(203,15,c),
(60,-29,l),
(47,-59,o),
(41,-93,o),
(41,-129,cs),
(41,-379,o),
(363,-468,o),
(576,-463,c)
);
},
{
closed = 1;
nodes = (
(480,533,o),
(422,601,o),
(422,698,cs),
(422,796,o),
(479,859,o),
(581,859,cs),
(681,859,o),
(737,797,o),
(737,698,cs),
(737,601,o),
(679,533,o),
(581,533,cs)
);
},
{
closed = 1;
nodes = (
(426,-254,o),
(311,-196,o),
(306,-114,c),
(391,-36,l),
(576,-36,ls),
(728,-36,o),
(809,-47,o),
(809,-129,cs),
(809,-202,o),
(716,-254,o),
(585,-254,cs)
);
}
);
width = 1143;
},
{
anchors = (
{
name = m.uni0326;
position = "{571, -465}";
},
{
name = m.uni0328_1;
position = "{0, 11}";
},
{
name = m.uni0308_2;
position = "{571, 1072}";
},
{
name = m.uni031B_3_2;
position = "{0, 11}";
}
);
layerId = "FF7C99D0-C175-48E4-AC69-2B77C3BA1C9F";
shapes = (
{
closed = 1;
nodes = (
(805,-467,o),
(1074,-375,o),
(1074,-112,cs),
(1074,104,o),
(892,194,o),
(695,194,cs),
(470,194,ls),
(364,194,o),
(310,217,o),
(310,286,cs),
(310,328,o),
(331,357,o),
(368,373,c),
(433,347,o),
(505,333,o),
(584,333,cs),
(807,333,o),
(1001,461,o),
(1001,697,cs),
(1001,764,o),
(986,826,o),
(957,881,c),
(1112,1005,l),
(982,1168,l),
(818,1027,l),
(747,1067,o),
(665,1084,o),
(572,1084,cs),
(337,1084,o),
(140,946,o),
(140,705,cs),
(140,623,o),
(162,553,o),
(208,493,c),
(117,437,o),
(72,354,o),
(72,263,cs),
(72,155,o),
(135,76,o),
(217,25,c),
(68,-34,l),
(57,-62,o),
(51,-93,o),
(51,-128,cs),
(51,-378,o),
(363,-470,o),
(577,-467,c)
);
},
{
closed = 1;
nodes = (
(462,517,o),
(395,592,o),
(395,700,cs),
(395,811,o),
(461,881,o),
(576,881,cs),
(690,881,o),
(754,811,o),
(754,700,cs),
(754,592,o),
(688,517,o),
(576,517,cs)
);
},
{
closed = 1;
nodes = (
(429,-276,o),
(287,-215,o),
(290,-110,c),
(384,-21,l),
(593,-21,ls),
(750,-21,o),
(828,-43,o),
(828,-133,cs),
(828,-226,o),
(717,-276,o),
(585,-276,cs)
);
}
);
width = 1139;
},
{
anchors = (
{
name = m.uni0326;
position = "{565, -442}";
},
{
name = m.uni0328_1;
position = "{0, 11}";
},
{
name = m.uni0308_2;
position = "{560, 1072}";
},
{
name = m.uni031B_3_2;
position = "{0, 11}";
}
);
layerId = "FD60B6D8-DC1B-493D-A036-B8A9A3BDE096";
shapes = (
{
closed = 1;
nodes = (
(791,-478,o),
(1048,-382,o),
(1048,-133,cs),
(1048,73,o),
(894,162,o),
(705,162,cs),
(470,162,ls),
(324,162,o),
(263,201,o),
(263,294,cs),
(263,342,o),
(285,377,o),
(321,402,c),
(391,359,o),
(471,336,o),
(563,336,cs),
(784,336,o),
(970,474,o),
(970,705,cs),
(970,780,o),
(952,847,o),
(914,907,c),
(1068,1039,l),
(988,1142,l),
(829,1002,l),
(758,1057,o),
(666,1084,o),
(560,1084,cs),
(332,1084,o),
(147,941,o),
(148,710,c),
(148,622,o),
(173,546,o),
(226,481,c),
(153,429,o),
(109,361,o),
(109,279,cs),
(109,172,o),
(173,98,o),
(257,57,c),
(94,-48,l),
(87,-70,o),
(83,-95,o),
(83,-123,cs),
(83,-377,o),
(364,-476,o),
(580,-478,c)
);
},
{
closed = 1;
nodes = (
(406,467,o),
(312,563,o),
(312,707,cs),
(312,854,o),
(409,951,o),
(563,951,cs),
(716,951,o),
(809,855,o),
(809,707,cs),
(809,563,o),
(716,467,o),
(563,467,cs)
);
},
{
closed = 1;
nodes = (
(437,-345,o),
(215,-273,o),
(241,-98,c),
(361,23,l),
(643,23,ls),
(818,23,o),
(887,-33,o),
(887,-145,cs),
(887,-296,o),
(718,-345,o),
(583,-345,cs)
);
}
);
width = 1128;
},
{
anchors = (
{
name = m.uni0326;
position = "{563, -435}";
},
{
name = m.uni0328_1;
position = "{0, 11}";
},
{
name = m.uni0308_2;
position = "{557, 1072}";
},
{
name = m.uni031B_3_2;
position = "{0, 11}";
}
);
layerId = "B769F827-5E5D-44DC-BEA8-1B95CFBF39E3";
shapes = (
{
closed = 1;
nodes = (
(787,-482,o),
(1040,-384,o),
(1040,-140,cs),
(1040,62,o),
(895,152,o),
(709,152,cs),
(470,152,ls),
(310,152,o),
(247,196,o),
(247,297,cs),
(247,347,o),
(270,384,o),
(306,411,c),
(377,363,o),
(460,337,o),
(556,337,cs),
(777,337,o),
(959,479,o),
(959,708,cs),
(959,785,o),
(940,854,o),
(900,916,c),
(1054,1051,l),
(990,1134,l),
(832,993,l),
(761,1053,o),
(666,1084,o),
(556,1084,cs),
(331,1084,o),
(150,940,o),
(151,711,cs),
(151,622,o),
(177,544,o),
(232,477,c),
(165,426,o),
(121,363,o),
(121,284,cs),
(121,178,o),
(186,105,o),
(271,67,c),
(102,-53,l),
(97,-73,o),
(93,-95,o),
(93,-122,cs),
(93,-376,o),
(364,-478,o),
(581,-482,c)
);
},
{
closed = 1;
nodes = (
(388,451,o),
(285,554,o),
(285,709,cs),
(285,869,o),
(391,974,o),
(558,974,cs),
(725,974,o),
(827,869,o),
(827,709,cs),
(827,554,o),
(725,451,o),
(558,451,cs)
);
},
{
closed = 1;
nodes = (
(440,-368,o),
(191,-292,o),
(225,-94,c),
(354,38,l),
(660,38,ls),
(840,38,o),
(906,-29,o),
(906,-149,cs),
(906,-320,o),
(719,-368,o),
(583,-368,cs)
);
}
);
width = 1124;
}
);
leftKerningGroup = g1;
rightKerningGroup = g11;
unicode = 103;
},
{
glyphname = h;
layers = (
{
anchors = (
{
name = top;
position = "{286, 1618}";
}
);
layerId = "F7413D4C-EAF4-4E43-8F2C-0DFA69218E69";
shapes = (
{
closed = 1;
nodes = (
(143,0,l,{name = .av03;}),
(429,0,l,{name = .sh03;}),
(429,504,ls),
(429,709,o),
(514,823,o),
(662,823,cs,{name = .dv01;}),
(759,823,o),
(817,747,o),
(817,620,cs,{name = .ah01;}),
(817,0,l),
(1102,0,l,{name = .av02;}),
(1102,653,ls,{name = .sh01;}),
(1102,911,o),
(949,1084,o),
(722,1084,cs,{name = .dv02;}),
(596,1084,o),
(505,1047,o),
(429,964,c,{name = .iv01;}),
(429,1448,l,{name = .av01;}),
(143,1448,l,{name = .sh02;})
);
}
);
width = 1211;
},
{
anchors = (
{
name = top;
position = "{284, 1618}";
}
);
layerId = "FF7C99D0-C175-48E4-AC69-2B77C3BA1C9F";
shapes = (
{
closed = 1;
nodes = (
(157,0,l),
(411,0,l),
(411,592,ls),
(411,730,o),
(535,851,o),
(677,851,cs),
(791,851,o),
(847,774,o),
(847,615,cs),
(847,0,l),
(1101,0,l),
(1101,642,ls),
(1101,912,o),
(950,1084,o),
(714,1084,cs),
(593,1084,o),
(485,1035,o),
(411,948,c),
(411,1448,l),
(157,1448,l)
);
}
);
width = 1213;
},
{
anchors = (
{
name = top;
position = "{260, 1618}";
}
);
layerId = "FD60B6D8-DC1B-493D-A036-B8A9A3BDE096";
shapes = (
{
closed = 1;
nodes = (
(180,0,l),
(339,0,l),
(339,593,ls),
(339,778,o),
(485,934,o),
(658,934,cs),
(796,934,o),
(876,825,o),
(876,635,cs),
(876,0,l),
(1038,0,l),
(1038,658,ls),
(1038,920,o),
(901,1084,o),
(681,1084,cs),
(543,1084,o),
(414,1014,o),
(339,898,c),
(339,1448,l),
(180,1448,l)
);
}
);
width = 1177;
},
{
anchors = (
{
name = top;
position = "{252, 1618}";
}
);
layerId = "B769F827-5E5D-44DC-BEA8-1B95CFBF39E3";
shapes = (
{
closed = 1;
nodes = (
(188,0,l),
(315,0,l),
(315,593,ls),
(315,794,o),
(468,961,o),
(652,961,cs),
(798,961,o),
(886,842,o),
(886,642,cs),
(886,0,l),
(1017,0,l),
(1017,663,ls),
(1017,922,o),
(884,1084,o),
(670,1084,cs),
(526,1084,o),
(390,1007,o),
(315,881,c),
(315,1448,l),
(188,1448,l)
);
}
);
width = 1165;
}
);
leftKerningGroup = h;
rightKerningGroup = h1;
unicode = 104;
},
{
glyphname = i;
layers = (
{
anchors = (
{
name = ogonek;
position = "{417, 0}";
}
);
layerId = "F7413D4C-EAF4-4E43-8F2C-0DFA69218E69";
shapes = (
{
closed = 1;
nodes = (
(124,1206,l),
(413,1206,l,{name = .dv01;}),
(413,1448,l,{name = .dv02;}),
(124,1448,l,{name = .dh01;})
);
},
{
closed = 1;
nodes = (
(129,0,l),
(409,0,l,{name = .av02;}),
(409,1064,l,{name = .dh02;}),
(129,1064,l,{name = .dh01;})
);
}
);
width = 537;
},
{
anchors = (
{
name = ogonek;
position = "{394, 0}";
}
);
layerId = "FF7C99D0-C175-48E4-AC69-2B77C3BA1C9F";
shapes = (
{
closed = 1;
nodes = (
(148,1217,l),
(409,1217,l),
(409,1448,l),
(148,1448,l)
);
},
{
closed = 1;
nodes = (
(153,0,l),
(403,0,l),
(403,1064,l),
(153,1064,l)
);
}
);
width = 557;
},
{
anchors = (
{
name = ogonek;
position = "{342, 0}";
}
);
layerId = "FD60B6D8-DC1B-493D-A036-B8A9A3BDE096";
shapes = (
{
closed = 1;
nodes = (
(169,1249,l),
(352,1249,l),
(352,1448,l),
(169,1448,l)
);
},
{
closed = 1;
nodes = (
(176,0,l),
(344,0,l),
(344,1064,l),
(176,1064,l)
);
}
);
width = 521;
},
{
anchors = (
{
name = ogonek;
position = "{324, 0}";
}
);
layerId = "B769F827-5E5D-44DC-BEA8-1B95CFBF39E3";
shapes = (
{
closed = 1;
nodes = (
(176,1260,l),
(333,1260,l),
(333,1448,l),
(176,1448,l)
);
},
{
closed = 1;
nodes = (
(184,0,l),
(324,0,l),
(324,1064,l),
(184,1064,l)
);
}
);
width = 509;
}
);
leftKerningGroup = i;
rightKerningGroup = i1;
unicode = 105;
},
{
glyphname = j;
layers = (
{
layerId = "F7413D4C-EAF4-4E43-8F2C-0DFA69218E69";
shapes = (
{
closed = 1;
nodes = (
(140,1205,l),
(431,1205,l,{name = .dv03;}),
(431,1445,l,{name = .dv04;}),
(140,1445,l,{name = .sh00;})
);
},
{
closed = 1;
nodes = (
(-80,-416,l),
(-34,-433,o),
(36,-449,o),
(94,-449,cs,{name = .dv01;}),
(295,-449,o),
(426,-314,o),
(426,-106,cs),
(426,1064,l,{name = .av01;}),
(146,1064,l,{name = .dh01;}),
(146,-115,ls),
(146,-177,o),
(115,-202,o),
(69,-202,cs,{name = .dv02;}),
(53,-202,o),
(18,-196,o),
(-16,-187,c)
);
}
);
width = 571;
},
{
layerId = "FF7C99D0-C175-48E4-AC69-2B77C3BA1C9F";
shapes = (
{
closed = 1;
nodes = (
(148,1217,l),
(410,1217,l),
(410,1447,l),
(148,1447,l)
);
},
{
closed = 1;
nodes = (
(-83,-416,l),
(-23,-438,o),
(35,-449,o),
(90,-449,cs),
(303,-449,o),
(398,-302,o),
(398,-109,cs),
(398,1064,l),
(160,1064,l),
(160,-123,ls),
(160,-197,o),
(139,-224,o),
(87,-224,cs),
(53,-224,o),
(16,-219,o),
(-25,-210,c)
);
}
);
width = 565;
},
{
layerId = "FD60B6D8-DC1B-493D-A036-B8A9A3BDE096";
shapes = (
{
closed = 1;
nodes = (
(171,1249,l),
(355,1249,l),
(355,1448,l),
(171,1448,l)
);
},
{
closed = 1;
nodes = (
(-87,-418,l),
(-43,-436,o),
(27,-450,o),
(71,-450,cs),
(259,-450,o),
(346,-325,o),
(346,-149,cs),
(346,1064,l),
(181,1064,l),
(181,-139,ls),
(181,-222,o),
(165,-298,o),
(72,-298,cs),
(31,-298,o),
(-10,-293,o),
(-51,-281,c)
);
}
);
width = 522;
},
{
layerId = "B769F827-5E5D-44DC-BEA8-1B95CFBF39E3";
shapes = (
{
closed = 1;
nodes = (
(179,1260,l),
(336,1260,l),
(336,1448,l),
(179,1448,l)
);
},
{
closed = 1;
nodes = (
(-88,-419,l),
(-49,-435,o),
(24,-450,o),
(65,-450,cs),
(244,-450,o),
(328,-332,o),
(328,-162,cs),
(328,1064,l),
(188,1064,l),
(188,-144,ls),
(188,-230,o),
(173,-323,o),
(67,-323,cs),
(23,-323,o),
(-18,-317,o),
(-59,-305,c)
);
}
);
width = 507;
}
);
leftKerningGroup = j;
rightKerningGroup = j1;
unicode = 106;
},
{
glyphname = k;
layers = (
{
layerId = "F7413D4C-EAF4-4E43-8F2C-0DFA69218E69";
shapes = (
{
closed = 1;
nodes = (
(143,0,l,{name = .av02;}),
(423,0,l,{name = .sh01;}),
(423,300,l),
(561,453,l,{name = .iv03;}),
(857,0,l),
(1188,0,l,{name = .av01;}),
(755,621,l),
(1153,1064,l,{name = .iv01;}),
(786,1064,l),
(423,637,l,{name = .iv02;}),
(423,1448,l,{name = .av03;}),
(143,1448,l,{name = .dh01;})
);
}
);
width = 1167;
},
{
layerId = "FF7C99D0-C175-48E4-AC69-2B77C3BA1C9F";
shapes = (
{
closed = 1;
nodes = (
(155,0,l),
(405,0,l),
(405,312,l),
(569,494,l),
(882,0,l),
(1188,0,l),
(746,651,l),
(1145,1064,l),
(807,1064,l),
(405,622,l),
(405,1448,l),
(155,1448,l)
);
}
);
width = 1211;
},
{
layerId = "FD60B6D8-DC1B-493D-A036-B8A9A3BDE096";
shapes = (
{
closed = 1;
nodes = (
(178,0,l),
(338,0,l),
(338,311,l),
(558,550,l),
(884,0,l),
(1082,0,l),
(667,668,l),
(1019,1064,l),
(809,1064,l),
(338,522,l),
(338,1448,l),
(178,1448,l)
);
}
);
width = 1120;
},
{
layerId = "B769F827-5E5D-44DC-BEA8-1B95CFBF39E3";
shapes = (
{
closed = 1;
nodes = (
(186,0,l),
(316,0,l),
(316,310,l),
(554,569,l),
(885,0,l),
(1047,0,l),
(640,673,l),
(977,1064,l),
(810,1064,l),
(316,488,l),
(316,1448,l),
(186,1448,l)
);
}
);
width = 1089;
}
);
leftKerningGroup = h;
rightKerningGroup = k;
unicode = 107;
},
{
glyphname = l;
layers = (
{
anchors = (
{
name = top;
position = "{274, 1618}";
},
{
name = center;
position = "{748, 783}";
}
);
layerId = "F7413D4C-EAF4-4E43-8F2C-0DFA69218E69";
shapes = (
{
closed = 1;
nodes = (
(434,-20,o),
(503,-15,o),
(564,0,c),
(564,238,l,{name = .sh01;}),
(541,234,o),
(514,231,o),
(500,231,cs),
(443,231,o),
(414,258,o),
(414,309,cs),
(414,1448,l,{name = .av03;}),
(134,1448,l,{name = .dh01;}),
(134,212,ls,{name = .sh05;}),
(134,25,o),
(235,-20,o),
(371,-20,cs,{name = .av01;})
);
}
);
width = 570;
},
{
anchors = (
{
name = top;
position = "{273, 1618}";
},
{
name = center;
position = "{672, 795}";
}
);
layerId = "FF7C99D0-C175-48E4-AC69-2B77C3BA1C9F";
shapes = (
{
closed = 1;
nodes = (
(423,-20,o),
(483,-13,o),
(554,0,c),
(554,210,l),
(526,206,o),
(500,204,o),
(469,204,cs),
(423,204,o),
(398,226,o),
(398,272,cs),
(398,1448,l),
(148,1448,l),
(148,204,ls),
(148,47,o),
(215,-20,o),
(372,-20,cs)
);
}
);
width = 562;
},
{
anchors = (
{
name = top;
position = "{260, 1618}";
},
{
name = center;
position = "{624, 779}";
}
);
layerId = "FD60B6D8-DC1B-493D-A036-B8A9A3BDE096";
shapes = (
{
closed = 1;
nodes = (
(404,-20,o),
(451,-13,o),
(500,-1,c),
(500,131,l),
(468,125,o),
(435,121,o),
(400,121,cs),
(365,121,o),
(343,143,o),
(343,178,cs),
(343,1448,l),
(176,1448,l),
(176,170,ls),
(176,39,o),
(238,-20,o),
(358,-20,cs)
);
}
);
width = 521;
},
{
anchors = (
{
name = top;
position = "{255, 1618}";
},
{
name = center;
position = "{608, 774}";
}
);
layerId = "B769F827-5E5D-44DC-BEA8-1B95CFBF39E3";
shapes = (
{
closed = 1;
nodes = (
(397,-20,o),
(440,-13,o),
(482,-1,c),
(482,104,l),
(449,98,o),
(413,93,o),
(377,93,cs),
(345,93,o),
(325,115,o),
(325,147,cs),
(325,1448,l),
(185,1448,l),
(185,159,ls),
(185,36,o),
(245,-20,o),
(353,-20,cs)
);
}
);
width = 507;
}
);
leftKerningGroup = l;
rightKerningGroup = l1;
unicode = 108;
},
{
glyphname = m;
layers = (
{
layerId = "F7413D4C-EAF4-4E43-8F2C-0DFA69218E69";
shapes = (
{
closed = 1;
nodes = (
(141,0,l,{name = .av02;}),
(423,0,l,{name = .sh01;}),
(423,597,ls),
(423,730,o),
(509,820,o),
(623,820,cs,{name = .sv02;}),
(734,820,o),
(770,754,o),
(770,622,cs,{name = .dh03;}),
(770,0,l,{name = .av03;}),
(1055,0,l),
(1055,597,ls,{name = .dh04;}),
(1055,719,o),
(1126,820,o),
(1255,820,cs,{name = .sv01;}),
(1365,820,o),
(1403,748,o),
(1403,617,cs,{name = .dh05;}),
(1403,0,l),
(1688,0,l,{name = .av01;}),
(1688,664,ls,{name = .dh06;}),
(1688,886,o),
(1547,1082,o),
(1308,1082,cs,{name = .av04;}),
(1178,1082,o),
(1045,1044,o),
(957,942,c),
(879,1039,o),
(793,1084,o),
(670,1084,cs,{name = .av06;}),
(572,1084,o),
(490,1050,o),
(423,980,c,{name = .iv01;}),
(423,1064,l,{name = .dh02;}),
(141,1064,l,{name = .dh01;})
);
}
);
width = 1799;
},
{
layerId = "FF7C99D0-C175-48E4-AC69-2B77C3BA1C9F";
shapes = (
{
closed = 1;
nodes = (
(155,0,l),
(407,0,l),
(407,592,ls),
(407,733,o),
(490,852,o),
(629,852,cs),
(771,852,o),
(800,738,o),
(800,617,cs),
(800,0,l),
(1054,0,l),
(1054,592,ls),
(1054,731,o),
(1131,852,o),
(1276,852,cs),
(1418,852,o),
(1447,733,o),
(1447,613,cs),
(1447,0,l),
(1701,0,l),
(1701,640,ls),
(1701,878,o),
(1577,1082,o),
(1314,1082,cs),
(1184,1082,o),
(1055,1033,o),
(970,927,c),
(897,1032,o),
(797,1084,o),
(668,1084,cs),
(574,1084,o),
(477,1048,o),
(407,958,c),
(407,1064,l),
(155,1064,l)
);
}
);
width = 1815;
},
{
layerId = "FD60B6D8-DC1B-493D-A036-B8A9A3BDE096";
shapes = (
{
closed = 1;
nodes = (
(178,0,l),
(340,0,l),
(340,609,ls),
(340,774,o),
(428,946,o),
(609,946,cs),
(785,946,o),
(830,785,o),
(830,637,cs),
(830,0,l),
(993,0,l),
(993,609,ls),
(993,770,o),
(1078,946,o),
(1259,946,cs),
(1436,946,o),
(1482,783,o),
(1482,633,cs),
(1482,0,l),
(1645,0,l),
(1645,647,ls),
(1645,881,o),
(1537,1082,o),
(1277,1082,cs),
(1126,1082,o),
(1016,1005,o),
(948,874,c),
(891,1017,o),
(779,1084,o),
(626,1084,cs),
(492,1084,o),
(391,1008,o),
(340,883,c),
(340,1064,l),
(178,1064,l)
);
}
);
width = 1786;
},
{
layerId = "B769F827-5E5D-44DC-BEA8-1B95CFBF39E3";
shapes = (
{
closed = 1;
nodes = (
(186,0,l),
(318,0,l),
(318,615,ls),
(318,787,o),
(407,977,o),
(602,977,cs),
(789,977,o),
(840,800,o),
(840,644,cs),
(840,0,l),
(972,0,l),
(972,615,ls),
(972,783,o),
(1060,977,o),
(1253,977,cs),
(1442,977,o),
(1494,799,o),
(1494,640,cs),
(1494,0,l),
(1626,0,l),
(1626,649,ls),
(1626,882,o),
(1524,1082,o),
(1265,1082,cs),
(1106,1082,o),
(1003,996,o),
(941,856,c),
(889,1012,o),
(773,1084,o),
(612,1084,cs),
(465,1084,o),
(362,994,o),
(318,858,c),
(318,1064,l),
(186,1064,l)
);
}
);
width = 1776;
}
);
leftKerningGroup = i;
unicode = 109;
},
{
glyphname = n;
layers = (
{
anchors = (
{
name = top;
position = "{618, 1192}";
}
);
layerId = "F7413D4C-EAF4-4E43-8F2C-0DFA69218E69";
shapes = (
{
closed = 1;
nodes = (
(141,0,l,{name = .av02;}),
(426,0,l,{name = .sh04;}),
(426,498,ls),
(426,657,o),
(469,823,o),
(660,823,cs),
(771,823,o),
(815,754,o),
(815,620,cs,{name = .ah01;}),
(815,0,l),
(1101,0,l,{name = .av01;}),
(1101,656,ls,{name = .sh01;}),
(1101,876,o),
(974,1084,o),
(722,1084,cs,{name = .dv02;}),
(602,1084,o),
(504,1048,o),
(426,962,c,{name = .iv01;}),
(426,1064,l,{name = .sh03;}),
(141,1064,l,{name = .sh02;})
);
}
);
width = 1210;
},
{
anchors = (
{
name = top;
position = "{616, 1192}";
}
);
layerId = "FF7C99D0-C175-48E4-AC69-2B77C3BA1C9F";
shapes = (
{
closed = 1;
nodes = (
(155,0,l),
(409,0,l),
(409,592,ls),
(409,732,o),
(532,851,o),
(675,851,cs),
(790,851,o),
(845,774,o),
(845,615,cs),
(845,0,l),
(1099,0,l),
(1099,642,ls),
(1099,912,o),
(949,1084,o),
(712,1084,cs),
(591,1084,o),
(483,1035,o),
(409,948,c),
(409,1064,l),
(155,1064,l)
);
}
);
width = 1211;
},
{
anchors = (
{
name = top;
position = "{596, 1192}";
}
);
layerId = "FD60B6D8-DC1B-493D-A036-B8A9A3BDE096";
shapes = (
{
closed = 1;
nodes = (
(178,0,l),
(339,0,l,{name = .av02;}),
(339,615,ls),
(339,785,o),
(485,932,o),
(652,932,cs),
(797,932,o),
(874,830,o),
(874,635,cs),
(874,0,l),
(1035,0,l,{name = .av03;}),
(1035,649,ls),
(1035,923,o),
(899,1084,o),
(669,1084,cs),
(535,1084,o),
(411,1017,o),
(339,904,c),
(339,1064,l),
(178,1064,l)
);
}
);
width = 1174;
},
{
anchors = (
{
name = top;
position = "{589, 1192}";
}
);
layerId = "B769F827-5E5D-44DC-BEA8-1B95CFBF39E3";
shapes = (
{
closed = 1;
nodes = (
(186,0,l),
(315,0,l,{name = .av02;}),
(315,622,ls),
(315,802,o),
(469,959,o),
(644,959,cs),
(799,959,o),
(883,848,o),
(883,642,cs),
(883,0,l),
(1013,0,l,{name = .av03;}),
(1013,651,ls),
(1013,926,o),
(882,1084,o),
(655,1084,cs),
(516,1084,o),
(387,1011,o),
(315,889,c),
(315,1064,l),
(186,1064,l)
);
}
);
width = 1161;
}
);
leftKerningGroup = i;
rightKerningGroup = n;
unicode = 110;
},
{
glyphname = o;
layers = (
{
anchors = (
{
name = top;
position = "{577, 1192}";
},
{
name = horn;
position = "{1278, 1064}";
},
{
name = ogonek;
position = "{722, 0}";
}
);
layerId = "F7413D4C-EAF4-4E43-8F2C-0DFA69218E69";
shapes = (
{
closed = 1;
nodes = (
(911,-20,o),
(1114,199,o),
(1114,532,cs,{name = .sh01;}),
(1114,866,o),
(898,1084,o),
(577,1084,cs,{name = .dv04;}),
(249,1084,o),
(40,866,o),
(40,532,cs,{name = .sh02;}),
(40,199,o),
(255,-20,o),
(577,-20,cs)
);
},
{
closed = 1;
nodes = (
(397,219,o),
(328,373,o),
(328,532,cs,{name = .sh03;}),
(328,692,o),
(411,845,o),
(577,845,cs,{name = .dv03;}),
(753,845,o),
(826,685,o),
(826,532,cs,{name = .ah01;}),
(826,367,o),
(752,219,o),
(577,219,cs,{name = .dv02;})
);
}
);
width = 1154;
},
{
anchors = (
{
name = top;
position = "{586, 1192}";
},
{
name = ogonek;
position = "{723, 0}";
},
{
name = horn;
position = "{1227, 1064}";
}
);
layerId = "FF7C99D0-C175-48E4-AC69-2B77C3BA1C9F";
shapes = (
{
closed = 1;
nodes = (
(919,-20,o),
(1121,195,o),
(1121,532,cs),
(1121,864,o),
(926,1084,o),
(586,1084,cs),
(255,1084,o),
(50,867,o),
(50,532,cs),
(50,202,o),
(249,-20,o),
(586,-20,cs)
);
},
{
closed = 1;
nodes = (
(389,196,o),
(310,355,o),
(310,532,cs),
(310,714,o),
(390,868,o),
(586,868,cs),
(786,868,o),
(861,712,o),
(861,532,cs),
(861,353,o),
(785,196,o),
(586,196,cs)
);
}
);
width = 1171;
},
{
anchors = (
{
name = top;
position = "{582, 1192}";
},
{
name = horn;
position = "{1227, 1064}";
},
{
name = ogonek;
position = "{694, 0}";
}
);
layerId = "FD60B6D8-DC1B-493D-A036-B8A9A3BDE096";
shapes = (
{
closed = 1;
nodes = (
(897,-20,o),
(1084,191,o),
(1084,532,cs,{name = .sh01;}),
(1084,868,o),
(892,1084,o),
(582,1084,cs,{name = .dv04;}),
(273,1084,o),
(80,869,o),
(80,532,cs,{name = .sh02;}),
(80,196,o),
(273,-20,o),
(582,-20,cs,{name = .dv01;})
);
},
{
closed = 1;
nodes = (
(381,123,o),
(253,298,o),
(253,532,cs,{name = .sh03;}),
(253,770,o),
(377,941,o),
(582,941,cs,{name = .dv03;}),
(790,941,o),
(911,773,o),
(911,532,cs,{name = .ah01;}),
(911,291,o),
(793,123,o),
(582,123,cs,{name = .dv02;})
);
}
);
width = 1164;
},
{
anchors = (
{
name = top;
position = "{580, 1192}";
},
{
name = ogonek;
position = "{684, 0}";
},
{
name = horn;
position = "{1227, 1064}";
}
);
layerId = "B769F827-5E5D-44DC-BEA8-1B95CFBF39E3";
shapes = (
{
closed = 1;
nodes = (
(889,-20,o),
(1071,190,o),
(1071,532,cs,{name = .sh01;}),
(1071,869,o),
(881,1084,o),
(580,1084,cs,{name = .dv04;}),
(279,1084,o),
(90,870,o),
(90,532,cs,{name = .sh02;}),
(90,194,o),
(281,-20,o),
(580,-20,cs,{name = .dv01;})
);
},
{
closed = 1;
nodes = (
(378,99,o),
(234,279,o),
(234,532,cs,{name = .sh03;}),
(234,789,o),
(373,965,o),
(580,965,cs,{name = .dv03;}),
(791,965,o),
(927,793,o),
(927,532,cs,{name = .ah01;}),
(927,270,o),
(795,99,o),
(580,99,cs,{name = .dv02;})
);
}
);
width = 1161;
}
);
leftKerningGroup = o;
rightKerningGroup = o1;
unicode = 111;
},
{
glyphname = p;
layers = (
{
layerId = "F7413D4C-EAF4-4E43-8F2C-0DFA69218E69";
shapes = (
{
closed = 1;
nodes = (
(143,-449,l),
(428,-449,l,{name = .av01;}),
(428,91,l,{name = .iv01;}),
(494,17,o),
(595,-20,o),
(725,-20,cs),
(973,-20,o),
(1158,220,o),
(1158,542,cs),
(1158,848,o),
(965,1084,o),
(714,1084,cs,{name = .dv02;}),
(587,1084,o),
(496,1049,o),
(428,972,c,{name = .iv02;}),
(428,1064,l,{name = .sh01;}),
(143,1064,l,{name = .dh01;})
);
},
{
closed = 1;
nodes = (
(489,240,o),
(403,346,o),
(403,532,cs,{name = .dh02;}),
(403,717,o),
(494,833,o),
(639,833,cs,{name = .dv01;}),
(784,833,o),
(873,718,o),
(873,532,cs,{name = .dh03;}),
(873,355,o),
(781,240,o),
(639,240,cs,{name = .dv04;})
);
}
);
width = 1212;
},
{
layerId = "FF7C99D0-C175-48E4-AC69-2B77C3BA1C9F";
shapes = (
{
closed = 1;
nodes = (
(157,-449,l),
(411,-449,l),
(411,102,l),
(479,23,o),
(587,-20,o),
(710,-20,cs),
(973,-20,o),
(1159,208,o),
(1159,532,cs),
(1159,860,o),
(975,1084,o),
(706,1084,cs),
(582,1084,o),
(479,1042,o),
(411,962,c),
(411,1064,l),
(157,1064,l)
);
},
{
closed = 1;
nodes = (
(483,210,o),
(388,329,o),
(388,532,cs),
(388,736,o),
(485,860,o),
(646,860,cs),
(808,860,o),
(905,736,o),
(905,532,cs),
(905,328,o),
(810,210,o),
(646,210,cs)
);
}
);
width = 1218;
},
{
layerId = "FD60B6D8-DC1B-493D-A036-B8A9A3BDE096";
shapes = (
{
closed = 1;
nodes = (
(180,-450,l),
(341,-450,l),
(341,141,l),
(418,34,o),
(528,-20,o),
(669,-20,cs),
(920,-20,o),
(1095,206,o),
(1095,531,cs),
(1095,857,o),
(920,1084,o),
(668,1084,cs),
(524,1084,o),
(417,1031,o),
(341,922,c),
(341,1064,l),
(180,1064,l)
);
},
{
closed = 1;
nodes = (
(445,121,o),
(326,283,o),
(326,532,cs),
(326,777,o),
(447,943,o),
(627,943,cs),
(815,943,o),
(934,783,o),
(934,532,cs),
(934,279,o),
(816,121,o),
(627,121,cs)
);
}
);
width = 1185;
},
{
layerId = "B769F827-5E5D-44DC-BEA8-1B95CFBF39E3";
shapes = (
{
closed = 1;
nodes = (
(188,-450,l),
(318,-450,l),
(318,154,l),
(397,37,o),
(508,-20,o),
(655,-20,cs),
(902,-20,o),
(1074,205,o),
(1074,531,cs),
(1074,856,o),
(901,1084,o),
(655,1084,cs),
(505,1084,o),
(396,1027,o),
(318,909,c),
(318,1064,l),
(188,1064,l)
);
},
{
closed = 1;
nodes = (
(432,91,o),
(305,268,o),
(305,532,cs),
(305,791,o),
(434,970,o),
(620,970,cs),
(817,970,o),
(944,798,o),
(944,532,cs),
(944,263,o),
(818,91,o),
(620,91,cs)
);
}
);
width = 1174;
}
);
unicode = 112;
},
{
glyphname = q;
layers = (
{
layerId = "F7413D4C-EAF4-4E43-8F2C-0DFA69218E69";
shapes = (
{
closed = 1;
nodes = (
(1066,-449,l,{name = .av01;}),
(1066,1064,l,{name = .dh04;}),
(784,1064,l,{name = .dh03;}),
(784,972,l,{name = .iv01;}),
(728,1041,o),
(619,1084,o),
(502,1084,cs,{name = .dv02;}),
(253,1084,o),
(54,843,o),
(54,542,cs,{name = .dh01;}),
(54,213,o),
(240,-20,o),
(500,-20,cs,{name = .dv03;}),
(629,-20,o),
(726,18,o),
(784,91,c,{name = .iv02;}),
(784,-449,l)
);
},
{
closed = 1;
nodes = (
(426,240,o),
(338,349,o),
(338,532,cs,{name = .dh02;}),
(338,712,o),
(431,830,o),
(574,830,cs,{name = .dv01;}),
(719,830,o),
(808,717,o),
(808,532,cs,{name = .sh01;}),
(808,350,o),
(719,240,o),
(574,240,cs,{name = .dv04;})
);
}
);
width = 1209;
},
{
layerId = "FF7C99D0-C175-48E4-AC69-2B77C3BA1C9F";
shapes = (
{
closed = 1;
nodes = (
(1068,-449,l),
(1068,1064,l),
(816,1064,l),
(816,962,l),
(749,1041,o),
(641,1084,o),
(518,1084,cs),
(255,1084,o),
(68,855,o),
(68,532,cs),
(68,205,o),
(253,-20,o),
(522,-20,cs),
(647,-20,o),
(749,22,o),
(816,102,c),
(816,-449,l)
);
},
{
closed = 1;
nodes = (
(417,210,o),
(322,328,o),
(322,532,cs),
(322,735,o),
(420,858,o),
(581,858,cs),
(743,858,o),
(838,737,o),
(838,532,cs),
(838,326,o),
(745,210,o),
(581,210,cs)
);
}
);
width = 1215;
},
{
layerId = "FD60B6D8-DC1B-493D-A036-B8A9A3BDE096";
shapes = (
{
closed = 1;
nodes = (
(1016,-450,l),
(1016,1064,l),
(854,1064,l),
(854,923,l),
(777,1030,o),
(667,1084,o),
(527,1084,cs),
(275,1084,o),
(100,858,o),
(100,531,cs),
(100,209,o),
(276,-20,o),
(523,-20,cs),
(670,-20,o),
(774,30,o),
(854,141,c),
(854,-450,l)
);
},
{
closed = 1;
nodes = (
(382,121,o),
(264,282,o),
(264,532,cs),
(264,781,o),
(382,942,o),
(566,942,cs),
(750,942,o),
(868,781,o),
(868,532,cs),
(868,279,o),
(752,121,o),
(566,121,cs)
);
}
);
width = 1186;
},
{
layerId = "B769F827-5E5D-44DC-BEA8-1B95CFBF39E3";
shapes = (
{
closed = 1;
nodes = (
(998,-450,l),
(998,1064,l),
(866,1064,l),
(866,910,l),
(786,1026,o),
(675,1084,o),
(530,1084,cs),
(281,1084,o),
(111,859,o),
(111,531,cs),
(111,210,o),
(283,-20,o),
(523,-20,cs),
(677,-20,o),
(782,33,o),
(866,154,c),
(866,-450,l)
);
},
{
closed = 1;
nodes = (
(370,91,o),
(244,266,o),
(244,532,cs),
(244,796,o),
(369,970,o),
(561,970,cs),
(752,970,o),
(878,796,o),
(878,532,cs),
(878,263,o),
(754,91,o),
(561,91,cs)
);
}
);
width = 1176;
}
);
unicode = 113;
},
{
glyphname = r;
layers = (
{
layerId = "F7413D4C-EAF4-4E43-8F2C-0DFA69218E69";
shapes = (
{
closed = 1;
nodes = (
(141,0,l,{name = .dh01;}),
(410,0,l,{name = .av01;}),
(410,532,ls,{name = .dh02;}),
(410,670,o),
(494,814,o),
(642,814,cs),
(681,814,o),
(710,808,o),
(740,782,c),
(873,1011,l),
(812,1064,o),
(723,1084,o),
(644,1084,cs),
(550,1084,o),
(454,1024,o),
(412,905,c,{name = .sh01;}),
(412,1064,l),
(141,1064,l)
);
}
);
width = 841;
},
{
layerId = "FF7C99D0-C175-48E4-AC69-2B77C3BA1C9F";
shapes = (
{
closed = 1;
nodes = (
(155,0,l),
(396,0,l),
(396,504,ls),
(396,652,o),
(467,847,o),
(642,847,cs),
(696,847,o),
(736,835,o),
(760,810,c),
(879,1017,l),
(814,1063,o),
(727,1084,o),
(653,1084,cs),
(533,1084,o),
(437,1004,o),
(398,892,c),
(398,1064,l),
(155,1064,l)
);
}
);
width = 853;
},
{
layerId = "FD60B6D8-DC1B-493D-A036-B8A9A3BDE096";
shapes = (
{
closed = 1;
nodes = (
(178,0,l),
(338,0,l),
(338,465,ls),
(338,641,o),
(400,942,o),
(626,942,cs),
(678,942,o),
(726,926,o),
(763,895,c),
(824,1036,l),
(768,1068,o),
(702,1084,o),
(640,1084,cs),
(502,1084,o),
(376,994,o),
(341,858,c),
(341,1064,l),
(178,1064,l)
);
}
);
width = 836;
},
{
layerId = "B769F827-5E5D-44DC-BEA8-1B95CFBF39E3";
shapes = (
{
closed = 1;
nodes = (
(186,0,l),
(319,0,l),
(319,452,ls),
(319,637,o),
(377,973,o),
(620,973,cs),
(672,973,o),
(723,956,o),
(764,923,c),
(805,1042,l),
(753,1070,o),
(694,1084,o),
(636,1084,cs),
(492,1084,o),
(355,991,o),
(322,847,c),
(322,1064,l),
(186,1064,l)
);
}
);
width = 830;
}
);
leftKerningGroup = i;
rightKerningGroup = r;
unicode = 114;
},
{
glyphname = s;
layers = (
{
anchors = (
{
name = m.uni0326;
position = "{530, 0}";
},
{
name = m.uni0328_1;
position = "{0, 0}";
},
{
name = m.uni0308_2;
position = "{457, 1062}";
},
{
name = m.uni031B_3_2;
position = "{0, 0}";
}
);
layerId = "F7413D4C-EAF4-4E43-8F2C-0DFA69218E69";
shapes = (
{
closed = 1;
nodes = (
(696,-21,o),
(904,102,o),
(901,341,c),
(901,570,o),
(726,637,o),
(539,684,c),
(491,699,o),
(375,718,o),
(370,781,c),
(370,820,o),
(416,858,o),
(495,859,c),
(598,859,o),
(655,802,o),
(698,728,c),
(921,848,l),
(834,999,o),
(690,1084,o),
(504,1084,cs),
(290,1084,o),
(94,974,o),
(95,743,c),
(95,522,o),
(269,473,o),
(442,428,c),
(491,417,o),
(619,398,o),
(620,330,c),
(620,286,o),
(570,215,o),
(457,215,c),
(340,215,o),
(283,280,o),
(241,383,c),
(16,285,l),
(77,90,o),
(279,-21,o),
(474,-21,cs)
);
}
);
width = 976;
},
{
anchors = (
{
name = m.uni0326;
position = "{522, 0}";
},
{
name = m.uni0328_1;
position = "{0, 0}";
},
{
name = m.uni0308_2;
position = "{457, 1062}";
},
{
name = m.uni031B_3_2;
position = "{0, 0}";
}
);
layerId = "FF7C99D0-C175-48E4-AC69-2B77C3BA1C9F";
shapes = (
{
closed = 1;
nodes = (
(690,-21,o),
(889,101,o),
(886,332,c),
(886,557,o),
(713,623,o),
(530,671,c),
(471,689,o),
(351,711,o),
(347,788,c),
(347,841,o),
(401,880,o),
(484,880,c),
(589,880,o),
(651,824,o),
(695,744,c),
(893,854,l),
(811,1000,o),
(672,1084,o),
(492,1084,cs),
(286,1084,o),
(101,975,o),
(101,754,c),
(101,540,o),
(271,490,o),
(438,444,cs),
(502,427,o),
(633,405,o),
(633,319,c),
(633,258,o),
(576,192,o),
(461,191,c),
(340,191,o),
(275,260,o),
(234,368,c),
(31,277,l),
(91,89,o),
(285,-21,o),
(474,-21,cs)
);
}
);
width = 963;
},
{
anchors = (
{
name = m.uni0326;
position = "{496, 0}";
},
{
name = m.uni0328_1;
position = "{0, 0}";
},
{
name = m.uni0308_2;
position = "{455, 1062}";
},
{
name = m.uni031B_3_2;
position = "{0, 0}";
}
);
layerId = "FD60B6D8-DC1B-493D-A036-B8A9A3BDE096";
shapes = (
{
closed = 1;
nodes = (
(671,-21,o),
(842,96,o),
(839,305,c),
(839,518,o),
(672,581,o),
(502,632,cs),
(413,660,o),
(277,691,o),
(276,807,c),
(276,904,o),
(357,945,o),
(453,944,c),
(563,944,o),
(641,889,o),
(688,794,c),
(809,870,l),
(741,1003,o),
(617,1084,o),
(458,1084,cs),
(273,1084,o),
(120,980,o),
(118,788,c),
(118,596,o),
(277,542,o),
(428,494,c),
(536,458,o),
(675,426,o),
(673,285,c),
(673,172,o),
(592,122,o),
(475,121,c),
(340,121,o),
(253,199,o),
(212,321,c),
(74,251,l),
(132,84,o),
(301,-21,o),
(472,-21,cs)
);
}
);
width = 924;
},
{
anchors = (
{
name = m.uni0326;
position = "{488, 0}";
},
{
name = m.uni0328_1;
position = "{0, 0}";
},
{
name = m.uni0308_2;
position = "{455, 1062}";
},
{
name = m.uni031B_3_2;
position = "{0, 0}";
}
);
layerId = "B769F827-5E5D-44DC-BEA8-1B95CFBF39E3";
shapes = (
{
closed = 1;
nodes = (
(665,-21,o),
(827,95,o),
(824,296,c),
(824,505,o),
(659,567,o),
(493,619,cs),
(393,650,o),
(253,684,o),
(253,814,cs),
(253,925,o),
(342,967,o),
(442,965,c),
(554,965,o),
(637,911,o),
(685,810,c),
(781,876,l),
(718,1004,o),
(599,1084,o),
(446,1084,cs),
(269,1084,o),
(127,981,o),
(124,799,c),
(124,614,o),
(279,559,o),
(424,510,cs),
(547,468,o),
(689,433,o),
(686,274,c),
(686,144,o),
(598,99,o),
(479,97,c),
(340,97,o),
(245,179,o),
(205,306,c),
(89,243,l),
(146,83,o),
(307,-21,o),
(472,-21,cs)
);
}
);
width = 911;
}
);
leftKerningGroup = s;
rightKerningGroup = s1;
unicode = 115;
},
{
glyphname = t;
layers = (
{
anchors = (
{
name = cedilla;
position = "{456, 0}";
}
);
layerId = "F7413D4C-EAF4-4E43-8F2C-0DFA69218E69";
shapes = (
{
closed = 1;
nodes = (
(594,-20,o),
(672,-7,o),
(728,13,c),
(728,269,l),
(676,242,o),
(623,229,o),
(573,229,cs,{name = .dv02;}),
(499,229,o),
(452,258,o),
(452,344,cs),
(452,828,l,{name = .dv03;}),
(720,828,l),
(720,1064,l),
(452,1064,l,{name = .dv04;}),
(452,1474,l,{name = .av01;}),
(190,1284,l,{name = .sh01;}),
(190,1064,l,{name = .sv01;}),
(19,1064,l),
(19,828,l,{name = .sv02;}),
(185,828,l,{name = .dh01;}),
(185,286,ls),
(185,83,o),
(339,-20,o),
(529,-20,cs,{name = .dv01;})
);
}
);
width = 798;
},
{
anchors = (
{
name = cedilla;
position = "{475, 0}";
}
);
layerId = "FF7C99D0-C175-48E4-AC69-2B77C3BA1C9F";
shapes = (
{
closed = 1;
nodes = (
(596,-20,o),
(671,-6,o),
(715,10,c),
(715,239,l),
(665,213,o),
(614,200,o),
(566,200,cs),
(480,200,o),
(437,245,o),
(437,335,cs),
(437,855,l),
(715,855,l),
(715,1064,l),
(437,1064,l),
(437,1455,l),
(202,1293,l),
(202,1064,l),
(27,1064,l),
(27,855,l),
(198,855,l),
(198,298,ls),
(198,96,o),
(327,-20,o),
(526,-20,cs)
);
}
);
width = 788;
},
{
anchors = (
{
name = cedilla;
position = "{430, 0}";
}
);
layerId = "FD60B6D8-DC1B-493D-A036-B8A9A3BDE096";
shapes = (
{
closed = 1;
nodes = (
(527,-20,o),
(580,-15,o),
(622,0,c),
(622,139,l),
(586,122,o),
(550,112,o),
(512,112,cs),
(411,112,o),
(373,192,o),
(373,283,cs),
(373,932,l),
(647,932,l),
(647,1064,l),
(373,1064,l),
(373,1400,l),
(215,1272,l),
(215,1064,l),
(46,1064,l),
(46,932,l),
(214,932,l),
(214,285,ls),
(214,110,o),
(284,-20,o),
(477,-20,cs)
);
}
);
width = 714;
},
{
anchors = (
{
name = cedilla;
position = "{415, 0}";
}
);
layerId = "B769F827-5E5D-44DC-BEA8-1B95CFBF39E3";
shapes = (
{
closed = 1;
nodes = (
(504,-20,o),
(549,-18,o),
(591,-3,c),
(591,106,l),
(559,91,o),
(528,83,o),
(494,83,cs),
(388,83,o),
(352,174,o),
(352,266,cs),
(352,958,l),
(624,958,l),
(624,1064,l),
(352,1064,l),
(352,1382,l),
(219,1265,l),
(219,1064,l),
(52,1064,l),
(52,958,l),
(219,958,l),
(219,281,ls),
(219,114,o),
(269,-20,o),
(460,-20,cs)
);
}
);
width = 689;
}
);
leftKerningGroup = t;
rightKerningGroup = t1;
unicode = 116;
},
{
glyphname = u;
layers = (
{
anchors = (
{
name = top;
position = "{588, 1192}";
},
{
name = ogonek;
position = "{1070, 0}";
},
{
name = horn;
position = "{1401, 1064}";
}
);
layerId = "F7413D4C-EAF4-4E43-8F2C-0DFA69218E69";
shapes = (
{
closed = 1;
nodes = (
(616,-19,o),
(711,23,o),
(784,108,c,{name = .iv01;}),
(784,0,l,{name = .ah01;}),
(1070,0,l,{name = .sh01;}),
(1070,1064,l,{name = .av01;}),
(784,1064,l,{name = .sh02;}),
(784,547,ls),
(784,354,o),
(709,251,o),
(569,251,cs,{name = .dv02;}),
(452,251,o),
(393,316,o),
(393,445,cs),
(393,1064,l,{name = .av02;}),
(109,1064,l,{name = .sh03;}),
(109,418,ls),
(109,165,o),
(273,-19,o),
(496,-19,cs,{name = .dv01;})
);
}
);
width = 1211;
},
{
anchors = (
{
name = top;
position = "{595, 1192}";
},
{
name = ogonek;
position = "{1068, 0}";
},
{
name = horn;
position = "{1329, 1064}";
}
);
layerId = "FF7C99D0-C175-48E4-AC69-2B77C3BA1C9F";
shapes = (
{
closed = 1;
nodes = (
(623,-19,o),
(735,26,o),
(814,124,c),
(814,0,l),
(1068,0,l),
(1068,1064,l),
(814,1064,l),
(814,540,ls),
(814,370,o),
(765,218,o),
(568,218,cs),
(416,218,o),
(376,313,o),
(376,450,cs),
(376,1064,l),
(123,1064,l),
(123,443,ls),
(123,204,o),
(242,-19,o),
(511,-19,cs)
);
}
);
width = 1211;
},
{
anchors = (
{
name = top;
position = "{579, 1192}";
},
{
name = ogonek;
position = "{1005, 0}";
},
{
name = horn;
position = "{1239, 1064}";
}
);
layerId = "FD60B6D8-DC1B-493D-A036-B8A9A3BDE096";
shapes = (
{
closed = 1;
nodes = (
(650,-19,o),
(786,58,o),
(846,182,c),
(846,0,l,{name = .ah01;}),
(1005,0,l,{name = .sh01;}),
(1005,1064,l,{name = .av01;}),
(846,1064,l,{name = .sh02;}),
(846,474,ls),
(846,299,o),
(725,121,o),
(537,121,cs,{name = .dv02;}),
(355,121,o),
(311,277,o),
(311,430,cs),
(311,1064,l,{name = .av02;}),
(151,1064,l,{name = .sh03;}),
(151,438,ls),
(151,204,o),
(249,-19,o),
(516,-19,cs,{name = .dv01;})
);
}
);
width = 1171;
},
{
anchors = (
{
name = top;
position = "{573, 1192}";
},
{
name = ogonek;
position = "{984, 0}";
},
{
name = horn;
position = "{1209, 1064}";
}
);
layerId = "B769F827-5E5D-44DC-BEA8-1B95CFBF39E3";
shapes = (
{
closed = 1;
nodes = (
(659,-19,o),
(803,68,o),
(857,201,c),
(857,0,l,{name = .ah01;}),
(984,0,l,{name = .sh01;}),
(984,1064,l,{name = .av01;}),
(857,1064,l,{name = .sh02;}),
(857,452,ls),
(857,275,o),
(711,88,o),
(526,88,cs,{name = .dv02;}),
(335,88,o),
(289,265,o),
(289,423,cs),
(289,1064,l,{name = .av02;}),
(160,1064,l,{name = .sh03;}),
(160,436,ls),
(160,204,o),
(251,-19,o),
(517,-19,cs,{name = .dv01;})
);
}
);
width = 1157;
}
);
leftKerningGroup = u;
rightKerningGroup = u1;
unicode = 117;
},
{
glyphname = v;
layers = (
{
layerId = "F7413D4C-EAF4-4E43-8F2C-0DFA69218E69";
shapes = (
{
closed = 1;
nodes = (
(633,0,l,{name = .av03;}),
(1063,1064,l,{name = .av01;}),
(758,1064,l),
(520,361,l,{name = .iv01;}),
(283,1064,l,{name = .av02;}),
(-23,1064,l),
(406,0,l)
);
}
);
width = 1039;
},
{
layerId = "FF7C99D0-C175-48E4-AC69-2B77C3BA1C9F";
shapes = (
{
closed = 1;
nodes = (
(639,0,l),
(1073,1064,l),
(792,1064,l),
(532,336,l),
(274,1064,l),
(-8,1064,l),
(425,0,l)
);
}
);
width = 1064;
},
{
layerId = "FD60B6D8-DC1B-493D-A036-B8A9A3BDE096";
shapes = (
{
closed = 1;
nodes = (
(583,0,l),
(982,1064,l),
(804,1064,l),
(510,215,l),
(218,1064,l),
(36,1064,l),
(436,0,l)
);
}
);
width = 1014;
},
{
layerId = "B769F827-5E5D-44DC-BEA8-1B95CFBF39E3";
shapes = (
{
closed = 1;
nodes = (
(564,0,l),
(952,1064,l),
(808,1064,l),
(502,174,l),
(199,1064,l),
(50,1064,l),
(440,0,l)
);
}
);
width = 997;
}
);
unicode = 118;
},
{
glyphname = w;
layers = (
{
anchors = (
{
name = top;
position = "{757, 1192}";
}
);
layerId = "F7413D4C-EAF4-4E43-8F2C-0DFA69218E69";
shapes = (
{
closed = 1;
nodes = (
(569,-5,l,{name = .av04;}),
(757,662,l,{name = .iv01;}),
(947,0,l,{name = .av05;}),
(1195,0,l),
(1521,1064,l,{name = .av01;}),
(1223,1064,l),
(1056,440,l,{name = .iv02;}),
(877,1064,l,{name = .av02;}),
(640,1064,l),
(459,438,l,{name = .iv03;}),
(296,1064,l,{name = .av03;}),
(-2,1064,l,{name = .iv04;}),
(321,-5,l)
);
}
);
width = 1517;
},
{
anchors = (
{
name = top;
position = "{780, 1192}";
}
);
layerId = "FF7C99D0-C175-48E4-AC69-2B77C3BA1C9F";
shapes = (
{
closed = 1;
nodes = (
(571,-4,l),
(780,697,l),
(990,0,l),
(1224,0,l),
(1552,1064,l),
(1276,1064,l),
(1093,399,l),
(893,1064,l),
(670,1064,l),
(469,397,l),
(288,1064,l),
(10,1064,l),
(338,-4,l)
);
}
);
width = 1560;
},
{
anchors = (
{
name = top;
position = "{762, 1192}";
}
);
layerId = "FD60B6D8-DC1B-493D-A036-B8A9A3BDE096";
shapes = (
{
closed = 1;
nodes = (
(512,-2,l),
(762,837,l),
(1007,0,l),
(1169,0,l),
(1470,1064,l),
(1292,1064,l),
(1077,241,l),
(837,1064,l),
(685,1064,l),
(443,239,l),
(227,1064,l),
(49,1064,l),
(351,-2,l)
);
}
);
width = 1515;
},
{
anchors = (
{
name = top;
position = "{756, 1192}";
}
);
layerId = "B769F827-5E5D-44DC-BEA8-1B95CFBF39E3";
shapes = (
{
closed = 1;
nodes = (
(492,-1,l),
(756,883,l),
(1013,0,l),
(1150,0,l),
(1443,1064,l),
(1297,1064,l),
(1072,188,l),
(818,1064,l),
(690,1064,l),
(434,186,l),
(207,1064,l),
(62,1064,l),
(355,-1,l)
);
}
);
width = 1500;
}
);
leftKerningGroup = w;
rightKerningGroup = w1;
unicode = 119;
},
{
glyphname = x;
layers = (
{
layerId = "F7413D4C-EAF4-4E43-8F2C-0DFA69218E69";
shapes = (
{
closed = 1;
nodes = (
(746,0,l),
(1091,0,l,{name = .av03;}),
(735,516,l),
(543,699,l,{name = .iv01;}),
(339,1064,l,{name = .av02;}),
(-1,1064,l),
(350,516,l),
(543,331,l,{name = .iv02;})
);
},
{
closed = 1;
nodes = (
(-1,0,l,{name = .av04;}),
(339,0,l),
(559,357,l),
(367,541,l)
);
},
{
closed = 1;
nodes = (
(526,673,l),
(718,491,l),
(1091,1064,l,{name = .av01;}),
(746,1064,l)
);
}
);
width = 1090;
},
{
layerId = "FF7C99D0-C175-48E4-AC69-2B77C3BA1C9F";
shapes = (
{
closed = 1;
nodes = (
(768,0,l),
(1086,0,l),
(720,537,l),
(548,714,l),
(327,1064,l),
(10,1064,l),
(375,537,l),
(548,357,l)
);
},
{
closed = 1;
nodes = (
(10,0,l),
(327,0,l),
(564,383,l),
(392,562,l)
);
},
{
closed = 1;
nodes = (
(531,688,l),
(702,511,l),
(1086,1064,l),
(768,1064,l)
);
}
);
width = 1096;
},
{
layerId = "FD60B6D8-DC1B-493D-A036-B8A9A3BDE096";
shapes = (
{
closed = 1;
nodes = (
(753,0,l),
(953,0,l),
(596,541,l),
(511,650,l),
(251,1064,l),
(47,1064,l),
(406,537,l),
(497,414,l)
);
},
{
closed = 1;
nodes = (
(47,0,l),
(251,0,l),
(519,431,l),
(423,562,l)
);
},
{
closed = 1;
nodes = (
(485,639,l),
(583,510,l),
(956,1064,l),
(754,1064,l)
);
}
);
width = 990;
},
{
layerId = "B769F827-5E5D-44DC-BEA8-1B95CFBF39E3";
shapes = (
{
closed = 1;
nodes = (
(748,0,l),
(909,0,l),
(555,542,l),
(498,629,l),
(226,1064,l),
(59,1064,l),
(416,537,l),
(480,433,l)
);
},
{
closed = 1;
nodes = (
(59,0,l),
(226,0,l),
(504,447,l),
(433,562,l)
);
},
{
closed = 1;
nodes = (
(470,622,l),
(543,509,l),
(913,1064,l),
(749,1064,l)
);
}
);
width = 954;
}
);
unicode = 120;
},
{
glyphname = y;
layers = (
{
anchors = (
{
name = top;
position = "{534, 1192}";
}
);
layerId = "F7413D4C-EAF4-4E43-8F2C-0DFA69218E69";
shapes = (
{
closed = 1;
nodes = (
(498,-440,l,{name = .av03;}),
(1095,1064,l,{name = .av00;}),
(786,1064,l),
(534,351,l,{name = .iv01;}),
(288,1064,l,{name = .av02;}),
(-19,1064,l,{name = .iv02;}),
(383,35,l),
(190,-440,l)
);
}
);
width = 1075;
},
{
anchors = (
{
name = top;
position = "{548, 1192}";
}
);
layerId = "FF7C99D0-C175-48E4-AC69-2B77C3BA1C9F";
shapes = (
{
closed = 1;
nodes = (
(498,-440,l),
(1106,1064,l),
(820,1064,l),
(548,334,l),
(279,1064,l),
(-6,1064,l),
(410,41,l),
(214,-440,l)
);
}
);
width = 1099;
},
{
anchors = (
{
name = top;
position = "{528, 1192}";
}
);
layerId = "FD60B6D8-DC1B-493D-A036-B8A9A3BDE096";
shapes = (
{
closed = 1;
nodes = (
(440,-441,l),
(1014,1064,l),
(828,1064,l),
(528,215,l),
(221,1064,l),
(35,1064,l),
(445,19,l),
(262,-441,l)
);
}
);
width = 1044;
},
{
anchors = (
{
name = top;
position = "{521, 1192}";
}
);
layerId = "B769F827-5E5D-44DC-BEA8-1B95CFBF39E3";
shapes = (
{
closed = 1;
nodes = (
(420,-441,l),
(983,1064,l),
(831,1064,l),
(521,175,l),
(201,1064,l),
(48,1064,l),
(457,11,l),
(278,-441,l)
);
}
);
width = 1025;
}
);
leftKerningGroup = y;
rightKerningGroup = y1;
unicode = 121;
},
{
glyphname = z;
layers = (
{
layerId = "F7413D4C-EAF4-4E43-8F2C-0DFA69218E69";
shapes = (
{
closed = 1;
nodes = (
(983,0,l,{name = .dv00;}),
(983,234,l,{name = .dv05;}),
(445,234,l),
(983,869,l),
(983,1064,l),
(80,1064,l,{name = .dv06;}),
(80,828,l,{name = .dv07;}),
(613,828,l),
(50,181,l),
(50,0,l)
);
}
);
width = 1052;
},
{
anchors = (
{
name = top;
position = "{549, 1192}";
}
);
layerId = "FF7C99D0-C175-48E4-AC69-2B77C3BA1C9F";
shapes = (
{
closed = 1;
nodes = (
(994,0,l),
(994,210,l),
(418,210,l),
(994,886,l),
(994,1064,l),
(87,1064,l),
(87,855,l),
(658,855,l),
(56,166,l),
(56,0,l)
);
}
);
width = 1064;
},
{
layerId = "FD60B6D8-DC1B-493D-A036-B8A9A3BDE096";
shapes = (
{
closed = 1;
nodes = (
(916,0,l),
(916,137,l),
(282,137,l),
(916,930,l),
(916,1064,l),
(101,1064,l),
(101,929,l),
(718,929,l),
(70,123,l),
(70,0,l)
);
}
);
width = 994;
},
{
anchors = (
{
name = top;
position = "{490, 1192}";
}
);
layerId = "B769F827-5E5D-44DC-BEA8-1B95CFBF39E3";
shapes = (
{
closed = 1;
nodes = (
(890,0,l),
(890,113,l),
(236,113,l),
(890,945,l),
(890,1064,l),
(105,1064,l),
(105,953,l),
(738,953,l),
(75,108,l),
(75,0,l)
);
}
);
width = 970;
}
);
leftKerningGroup = z;
rightKerningGroup = z1;
unicode = 122;
},
{
glyphname = braceleft;
layers = (
{
layerId = "F7413D4C-EAF4-4E43-8F2C-0DFA69218E69";
shapes = (
{
closed = 1;
nodes = (
(178,11,ls),
(178,-165,o),
(263,-259,o),
(430,-259,cs),
(591,-259,l,{name = .sv01;}),
(591,-63,l),
(492,-63,ls,{name = .dv02;}),
(430,-63,o),
(413,-21,o),
(413,62,cs,{name = .sh02;}),
(413,471,ls),
(413,577,o),
(360,651,o),
(281,691,c,{name = .ih01;}),
(360,740,o),
(413,805,o),
(413,911,cs),
(413,1375,ls,{name = .sh01;}),
(413,1413,o),
(458,1445,o),
(492,1445,cs),
(591,1445,l,{name = .dh02;}),
(591,1641,l),
(430,1641,ls),
(255,1641,o),
(178,1549,o),
(178,1364,cs,{name = .dh01;}),
(178,926,ls),
(178,858,o),
(138,817,o),
(44,786,c),
(44,596,l),
(138,561,o),
(178,524,o),
(178,456,cs,{name = .sh03;})
);
}
);
width = 639;
},
{
layerId = "FF7C99D0-C175-48E4-AC69-2B77C3BA1C9F";
shapes = (
{
closed = 1;
nodes = (
(188,130,ls),
(188,-55,o),
(293,-160,o),
(447,-160,cs),
(579,-160,l),
(579,2,l),
(489,2,ls),
(433,2,o),
(400,50,o),
(400,134,cs),
(400,504,ls),
(400,577,o),
(348,641,o),
(256,684,c),
(355,737,o),
(400,806,o),
(400,902,cs),
(400,1384,ls),
(400,1426,o),
(437,1455,o),
(489,1455,cs),
(579,1455,l),
(579,1617,l),
(447,1617,ls),
(287,1617,o),
(188,1528,o),
(188,1353,cs),
(188,916,ls),
(188,843,o),
(156,809,o),
(54,772,c),
(54,608,l),
(146,585,o),
(188,552,o),
(188,499,cs)
);
}
);
width = 633;
},
{
layerId = "FD60B6D8-DC1B-493D-A036-B8A9A3BDE096";
shapes = (
{
closed = 1;
nodes = (
(218,105,ls),
(218,-50,o),
(298,-130,o),
(445,-130,cs),
(542,-130,l),
(542,-36,l),
(494,-36,ls),
(408,-36,o),
(363,16,o),
(363,118,cs),
(363,491,ls),
(363,573,o),
(317,622,o),
(207,665,c),
(319,703,o),
(363,778,o),
(363,869,cs),
(363,1362,ls),
(363,1425,o),
(403,1456,o),
(481,1456,cs),
(542,1456,l),
(542,1550,l),
(445,1550,ls),
(295,1550,o),
(218,1477,o),
(218,1325,cs),
(218,887,ls),
(218,803,o),
(176,754,o),
(84,730,c),
(84,609,l),
(172,580,o),
(218,536,o),
(218,480,cs)
);
}
);
width = 616;
},
{
layerId = "B769F827-5E5D-44DC-BEA8-1B95CFBF39E3";
shapes = (
{
closed = 1;
nodes = (
(228,97,ls),
(228,-48,o),
(300,-120,o),
(444,-120,cs),
(529,-120,l),
(529,-48,l),
(496,-48,ls),
(400,-48,o),
(351,4,o),
(351,112,cs),
(351,487,ls),
(351,571,o),
(307,616,o),
(190,659,c),
(307,691,o),
(351,769,o),
(351,858,cs),
(351,1354,ls),
(351,1424,o),
(391,1456,o),
(478,1456,cs),
(529,1456,l),
(529,1528,l),
(444,1528,ls),
(298,1528,o),
(228,1460,o),
(228,1316,cs),
(228,877,ls),
(228,790,o),
(183,736,o),
(94,716,c),
(94,609,l),
(181,578,o),
(228,530,o),
(228,474,cs)
);
}
);
width = 610;
}
);
unicode = 123;
},
{
glyphname = bar;
layers = (
{
layerId = "F7413D4C-EAF4-4E43-8F2C-0DFA69218E69";
shapes = (
{
closed = 1;
nodes = (
(422,-524,l,{name = .av02;}),
(422,1571,l,{name = .av01;}),
(215,1571,l,{name = .dh01;}),
(215,-524,l)
);
}
);
width = 638;
},
{
layerId = "FF7C99D0-C175-48E4-AC69-2B77C3BA1C9F";
shapes = (
{
closed = 1;
nodes = (
(411,-524,l),
(411,1571,l),
(226,1571,l),
(226,-524,l)
);
}
);
width = 638;
},
{
layerId = "FD60B6D8-DC1B-493D-A036-B8A9A3BDE096";
shapes = (
{
closed = 1;
nodes = (
(377,-525,l),
(377,1571,l),
(259,1571,l),
(259,-525,l)
);
}
);
width = 637;
},
{
layerId = "B769F827-5E5D-44DC-BEA8-1B95CFBF39E3";
shapes = (
{
closed = 1;
nodes = (
(365,-525,l),
(365,1571,l),
(270,1571,l),
(270,-525,l)
);
}
);
width = 637;
}
);
unicode = 124;
},
{
glyphname = asciitilde;
layers = (
{
layerId = "F7413D4C-EAF4-4E43-8F2C-0DFA69218E69";
shapes = (
{
closed = 1;
nodes = (
(360,416,l,{name = .sv03;}),
(360,457,o),
(385,470,o),
(410,470,cs,{name = .sv04;}),
(480,470,o),
(567,388,o),
(752,388,cs,{name = .dv01;}),
(936,388,o),
(1019,479,o),
(1019,660,c),
(814,660,l,{name = .dv02;}),
(814,623,o),
(788,588,o),
(746,588,cs),
(704,588,o),
(511,667,o),
(408,667,cs,{name = .sv02;}),
(255,667,o),
(164,591,o),
(164,416,c)
);
}
);
width = 1184;
},
{
layerId = "FF7C99D0-C175-48E4-AC69-2B77C3BA1C9F";
shapes = (
{
closed = 1;
nodes = (
(350,416,l),
(350,457,o),
(366,498,o),
(422,498,cs),
(503,498,o),
(623,410,o),
(776,410,cs),
(943,410,o),
(1009,497,o),
(1009,660,c),
(835,660,l),
(835,619,o),
(819,579,o),
(763,579,cs),
(692,579,o),
(562,667,o),
(409,667,cs),
(241,667,o),
(176,580,o),
(176,416,c)
);
}
);
width = 1185;
},
{
layerId = "FD60B6D8-DC1B-493D-A036-B8A9A3BDE096";
shapes = (
{
closed = 1;
nodes = (
(319,417,l),
(319,483,o),
(336,560,o),
(418,560,cs),
(529,560,o),
(604,394,o),
(763,394,cs),
(924,394,o),
(979,514,o),
(979,659,c),
(867,659,l),
(867,591,o),
(852,503,o),
(764,503,cs),
(657,503,o),
(591,666,o),
(413,666,cs),
(267,666,o),
(212,547,o),
(212,417,c)
);
}
);
width = 1190;
},
{
layerId = "B769F827-5E5D-44DC-BEA8-1B95CFBF39E3";
shapes = (
{
closed = 1;
nodes = (
(308,417,l),
(308,491,o),
(326,581,o),
(417,581,cs),
(538,581,o),
(597,389,o),
(758,389,cs),
(917,389,o),
(969,520,o),
(969,658,c),
(877,658,l),
(877,581,o),
(863,477,o),
(764,477,cs),
(645,477,o),
(600,665,o),
(414,665,cs),
(276,665,o),
(224,536,o),
(224,417,c)
);
}
);
width = 1191;
}
);
unicode = 126;
},
{
glyphname = exclamdown;
layers = (
{
layerId = "F7413D4C-EAF4-4E43-8F2C-0DFA69218E69";
shapes = (
{
closed = 1;
nodes = (
(474,730,l,{name = .dv01;}),
(474,1023,l,{name = .dv02;}),
(178,1023,l,{name = .dh01;}),
(178,730,l)
);
},
{
closed = 1;
nodes = (
(461,-444,l,{name = .av01;}),
(432,569,l),
(220,569,l),
(191,-444,l,{name = .sh01;})
);
}
);
width = 652;
},
{
layerId = "FF7C99D0-C175-48E4-AC69-2B77C3BA1C9F";
shapes = (
{
closed = 1;
nodes = (
(462,753,l),
(462,1023,l),
(188,1023,l),
(188,753,l)
);
},
{
closed = 1;
nodes = (
(449,-444,l),
(420,585,l),
(230,585,l),
(202,-444,l)
);
}
);
width = 650;
},
{
layerId = "FD60B6D8-DC1B-493D-A036-B8A9A3BDE096";
shapes = (
{
closed = 1;
nodes = (
(425,820,l),
(425,1022,l),
(218,1022,l),
(218,820,l)
);
},
{
closed = 1;
nodes = (
(412,-446,l),
(383,628,l),
(260,628,l),
(232,-446,l)
);
}
);
width = 645;
},
{
layerId = "B769F827-5E5D-44DC-BEA8-1B95CFBF39E3";
shapes = (
{
closed = 1;
nodes = (
(412,842,l),
(412,1022,l),
(228,1022,l),
(228,842,l)
);
},
{
closed = 1;
nodes = (
(399,-447,l),
(370,642,l),
(270,642,l),
(242,-447,l)
);
}
);
width = 643;
}
);
unicode = 161;
},
{
glyphname = cent;
layers = (
{
layerId = "F7413D4C-EAF4-4E43-8F2C-0DFA69218E69";
shapes = (
{
closed = 1;
nodes = (
(742,-210,l,{name = .dv01;}),
(742,-22,l),
(907,9,o),
(1017,109,o),
(1087,292,c),
(858,382,l),
(813,241,o),
(757,193,o),
(641,193,cs,{name = .dv02;}),
(492,193,o),
(402,312,o),
(402,510,cs,{name = .sh02;}),
(402,703,o),
(495,825,o),
(641,825,cs,{name = .dv03;}),
(763,825,o),
(820,776,o),
(858,637,c),
(1102,730,l),
(1021,916,o),
(912,1009,o),
(742,1041,c),
(742,1229,l,{name = .dv04;}),
(535,1229,l,{name = .ah01;}),
(535,1041,l),
(309,1001,o),
(147,784,o),
(147,521,cs,{name = .sh01;}),
(147,233,o),
(301,17,o),
(535,-23,c,{name = .sh03;}),
(535,-210,l)
);
}
);
width = 1229;
},
{
layerId = "FF7C99D0-C175-48E4-AC69-2B77C3BA1C9F";
shapes = (
{
closed = 1;
nodes = (
(733,-210,l),
(733,-20,l),
(899,8,o),
(1013,108,o),
(1075,283,c),
(867,365,l),
(829,234,o),
(761,176,o),
(643,176,cs),
(487,176,o),
(393,301,o),
(393,510,cs),
(393,715,o),
(489,843,o),
(643,843,cs),
(762,843,o),
(830,785,o),
(867,654,c),
(1090,740,l),
(1012,917,o),
(893,1016,o),
(733,1040,c),
(733,1229,l),
(549,1229,l),
(549,1040,l),
(310,992,o),
(161,789,o),
(161,510,cs),
(161,227,o),
(307,28,o),
(549,-20,c),
(549,-210,l)
);
}
);
width = 1229;
},
{
layerId = "FD60B6D8-DC1B-493D-A036-B8A9A3BDE096";
shapes = (
{
closed = 1;
nodes = (
(706,-211,l),
(706,-18,l),
(869,2,o),
(979,91,o),
(1041,253,c),
(897,313,l),
(861,196,o),
(767,126,o),
(650,126,cs),
(475,126,o),
(365,273,o),
(365,509,cs),
(365,741,o),
(478,893,o),
(650,893,cs),
(767,893,o),
(864,820,o),
(897,706,c),
(1053,769,l),
(985,923,o),
(866,1014,o),
(706,1036,c),
(706,1228,l),
(588,1228,l),
(588,1036,l),
(351,1003,o),
(199,797,o),
(199,509,cs),
(199,219,o),
(353,12,o),
(588,-16,c),
(588,-211,l)
);
}
);
width = 1229;
},
{
layerId = "B769F827-5E5D-44DC-BEA8-1B95CFBF39E3";
shapes = (
{
closed = 1;
nodes = (
(697,-211,l),
(697,-17,l),
(859,0,o),
(967,85,o),
(1029,243,c),
(907,295,l),
(871,183,o),
(769,109,o),
(652,109,cs),
(471,109,o),
(356,264,o),
(356,509,cs),
(356,750,o),
(474,909,o),
(652,909,cs),
(769,909,o),
(875,832,o),
(907,723,c),
(1041,779,l),
(976,925,o),
(857,1013,o),
(697,1035,c),
(697,1228,l),
(601,1228,l),
(601,1035,l),
(365,1006,o),
(212,800,o),
(212,509,cs),
(212,216,o),
(368,6,o),
(601,-15,c),
(601,-211,l)
);
}
);
width = 1229;
}
);
unicode = 162;
},
{
glyphname = sterling;
layers = (
{
layerId = "F7413D4C-EAF4-4E43-8F2C-0DFA69218E69";
shapes = (
{
closed = 1;
nodes = (
(139,0,l),
(1212,0,l,{name = .dv01;}),
(1212,232,l,{name = .dv02;}),
(504,232,l),
(575,308,o),
(621,405,o),
(621,475,cs),
(621,520,o),
(609,567,o),
(597,608,c,{name = .dv05;}),
(1046,608,l),
(1046,841,l),
(557,841,l,{name = .dv06;}),
(527,937,o),
(515,1017,o),
(515,1062,cs,{name = .dh02;}),
(515,1200,o),
(598,1251,o),
(734,1251,cs,{name = .dv03;}),
(831,1251,o),
(906,1187,o),
(944,1079,c),
(1160,1158,l),
(1097,1339,o),
(945,1485,o),
(734,1485,cs,{name = .dv04;}),
(441,1485,o),
(281,1292,o),
(281,1075,cs,{name = .dh01;}),
(281,1001,o),
(295,912,o),
(316,841,c,{name = .ih01;}),
(143,841,l,{name = .sv03;}),
(143,608,l,{name = .sv04;}),
(372,608,l),
(384,567,o),
(392,523,o),
(392,481,cs),
(392,387,o),
(283,284,o),
(139,241,c)
);
}
);
width = 1229;
},
{
layerId = "FF7C99D0-C175-48E4-AC69-2B77C3BA1C9F";
shapes = (
{
closed = 1;
nodes = (
(140,0,l),
(1206,0,l),
(1206,210,l),
(472,210,l),
(549,256,o),
(598,367,o),
(598,490,cs),
(598,525,o),
(594,568,o),
(585,618,c),
(1025,618,l),
(1025,828,l),
(537,828,l),
(509,891,o),
(493,992,o),
(493,1057,cs),
(493,1200,o),
(575,1271,o),
(724,1271,cs),
(822,1271,o),
(902,1204,o),
(944,1091,c),
(1139,1162,l),
(1078,1339,o),
(926,1481,o),
(724,1481,cs),
(465,1481,o),
(283,1318,o),
(283,1061,cs),
(283,989,o),
(295,895,o),
(321,828,c),
(144,828,l),
(144,618,l),
(371,618,l),
(385,563,o),
(392,519,o),
(392,486,cs),
(392,346,o),
(291,238,o),
(140,212,c)
);
}
);
width = 1229;
},
{
layerId = "FD60B6D8-DC1B-493D-A036-B8A9A3BDE096";
shapes = (
{
closed = 1;
nodes = (
(145,0,l),
(1188,0,l),
(1188,142,l),
(368,142,l),
(484,238,o),
(536,342,o),
(536,480,cs),
(536,535,o),
(529,593,o),
(515,650,c),
(964,650,l),
(964,791,l),
(479,791,l),
(451,851,o),
(429,977,o),
(429,1042,cs),
(429,1207,o),
(522,1328,o),
(696,1328,cs),
(817,1328,o),
(903,1240,o),
(946,1126,c),
(1078,1176,l),
(1018,1342,o),
(876,1468,o),
(692,1468,cs),
(443,1468,o),
(287,1281,o),
(287,1042,cs),
(287,982,o),
(309,844,o),
(336,791,c),
(149,791,l),
(149,650,l),
(370,650,l),
(385,589,o),
(397,532,o),
(397,474,cs),
(397,356,o),
(288,206,o),
(145,126,c)
);
}
);
width = 1229;
},
{
layerId = "B769F827-5E5D-44DC-BEA8-1B95CFBF39E3";
shapes = (
{
closed = 1;
nodes = (
(147,0,l),
(1182,0,l),
(1182,119,l),
(333,119,l),
(462,232,o),
(515,334,o),
(515,477,cs),
(515,538,o),
(507,601,o),
(491,660,c),
(943,660,l),
(943,778,l),
(459,778,l),
(432,837,o),
(407,972,o),
(407,1037,cs),
(407,1209,o),
(504,1347,o),
(686,1347,cs),
(815,1347,o),
(903,1252,o),
(946,1138,c),
(1057,1180,l),
(998,1343,o),
(859,1464,o),
(681,1464,cs),
(435,1464,o),
(288,1268,o),
(288,1035,cs),
(288,979,o),
(313,827,o),
(341,778,c),
(150,778,l),
(150,660,l),
(370,660,l),
(385,598,o),
(398,536,o),
(398,470,cs),
(398,359,o),
(287,195,o),
(147,97,c)
);
}
);
width = 1229;
}
);
unicode = 163;
},
{
glyphname = currency;
layers = (
{
layerId = "F7413D4C-EAF4-4E43-8F2C-0DFA69218E69";
shapes = (
{
closed = 1;
nodes = (
(122,549,o),
(148,461,o),
(201,378,c),
(91,270,l),
(237,122,l),
(346,232,l),
(429,178,o),
(518,152,o),
(614,152,cs,{name = .dv01;}),
(706,152,o),
(795,178,o),
(882,232,c),
(994,120,l,{name = .av03;}),
(1139,270,l),
(1028,376,l),
(1082,458,o),
(1110,548,o),
(1110,646,cs,{name = .sh01;}),
(1110,737,o),
(1084,834,o),
(1028,915,c),
(1139,1023,l),
(992,1166,l,{name = .av01;}),
(882,1060,l),
(801,1112,o),
(714,1139,o),
(619,1139,cs,{name = .dv04;}),
(528,1139,o),
(430,1114,o),
(348,1058,c),
(237,1168,l,{name = .av02;}),
(93,1019,l),
(201,913,l),
(148,827,o),
(122,737,o),
(122,643,cs,{name = .sh02;})
);
},
{
closed = 1;
nodes = (
(325,805,o),
(454,934,o),
(615,934,cs,{name = .dv03;}),
(774,934,o),
(904,808,o),
(904,649,cs,{name = .ah01;}),
(904,490,o),
(773,354,o),
(614,354,cs,{name = .dv02;}),
(457,354,o),
(325,486,o),
(325,642,cs,{name = .sh03;})
);
}
);
width = 1229;
},
{
layerId = "FF7C99D0-C175-48E4-AC69-2B77C3BA1C9F";
shapes = (
{
closed = 1;
nodes = (
(129,553,o),
(155,459,o),
(212,378,c),
(102,270,l),
(234,132,l),
(344,244,l),
(431,188,o),
(521,160,o),
(613,160,cs),
(706,160,o),
(796,187,o),
(882,244,c),
(993,132,l),
(1126,270,l),
(1017,376,l),
(1073,457,o),
(1101,547,o),
(1101,646,cs),
(1101,746,o),
(1073,837,o),
(1017,916,c),
(1126,1023,l),
(991,1155,l),
(882,1049,l),
(803,1103,o),
(716,1130,o),
(618,1130,cs),
(517,1130,o),
(426,1103,o),
(346,1047,c),
(236,1157,l),
(104,1019,l),
(212,914,l),
(157,833,o),
(129,743,o),
(129,644,cs)
);
},
{
closed = 1;
nodes = (
(316,806,o),
(447,942,o),
(614,942,cs),
(778,942,o),
(911,813,o),
(911,648,cs),
(911,484,o),
(779,346,o),
(613,346,cs),
(450,346,o),
(316,479,o),
(316,642,cs)
);
}
);
width = 1229;
},
{
layerId = "FD60B6D8-DC1B-493D-A036-B8A9A3BDE096";
shapes = (
{
closed = 1;
nodes = (
(152,549,o),
(183,457,o),
(244,376,c),
(137,269,l),
(233,167,l),
(339,276,l),
(421,216,o),
(513,185,o),
(613,185,cs),
(713,185,o),
(802,216,o),
(885,276,c),
(993,167,l),
(1089,269,l),
(985,374,l),
(1045,453,o),
(1076,544,o),
(1076,646,cs),
(1076,747,o),
(1045,838,o),
(985,918,c),
(1089,1023,l),
(991,1121,l),
(885,1016,l),
(806,1075,o),
(718,1107,o),
(617,1107,cs),
(515,1107,o),
(422,1076,o),
(341,1013,c),
(235,1123,l),
(139,1019,l),
(244,916,l),
(183,836,o),
(152,747,o),
(152,647,cs)
);
},
{
closed = 1;
nodes = (
(289,820,o),
(435,968,o),
(614,968,cs),
(789,968,o),
(936,821,o),
(936,646,cs),
(936,468,o),
(791,321,o),
(612,321,cs),
(434,321,o),
(289,465,o),
(289,642,cs)
);
}
);
width = 1229;
},
{
layerId = "B769F827-5E5D-44DC-BEA8-1B95CFBF39E3";
shapes = (
{
closed = 1;
nodes = (
(160,547,o),
(192,456,o),
(254,375,c),
(148,269,l),
(233,179,l),
(337,287,l),
(418,225,o),
(510,193,o),
(613,193,cs),
(715,193,o),
(804,225,o),
(886,287,c),
(993,179,l),
(1077,269,l),
(974,373,l),
(1036,452,o),
(1067,543,o),
(1067,646,cs),
(1067,747,o),
(1036,838,o),
(974,919,c),
(1077,1023,l),
(991,1109,l),
(886,1005,l),
(807,1066,o),
(718,1099,o),
(617,1099,cs),
(514,1099,o),
(421,1067,o),
(339,1002,c),
(235,1111,l),
(150,1019,l),
(254,916,l),
(192,837,o),
(160,748,o),
(160,648,cs)
);
},
{
closed = 1;
nodes = (
(280,824,o),
(431,976,o),
(614,976,cs),
(793,976,o),
(944,824,o),
(944,645,cs),
(944,463,o),
(795,312,o),
(612,312,cs),
(429,312,o),
(280,460,o),
(280,642,cs)
);
}
);
width = 1229;
}
);
unicode = 164;
},
{
glyphname = yen;
layers = (
{
layerId = "F7413D4C-EAF4-4E43-8F2C-0DFA69218E69";
shapes = (
{
closed = 1;
nodes = (
(732,0,l,{name = .av03;}),
(732,167,l),
(1037,167,l),
(1037,377,l),
(732,377,l),
(732,497,l,{name = .dh02;}),
(1037,497,l),
(1037,707,l),
(829,707,l,{name = .iv01;}),
(1313,1447,l,{name = .av01;}),
(1031,1447,l),
(614,770,l,{name = .iv02;}),
(197,1447,l,{name = .av02;}),
(-85,1447,l),
(398,710,l,{name = .iv03;}),
(190,710,l),
(190,497,l),
(496,497,l,{name = .dh01;}),
(496,377,l),
(190,377,l),
(190,167,l),
(496,167,l,{name = .sh01;}),
(496,0,l)
);
}
);
width = 1229;
},
{
layerId = "FF7C99D0-C175-48E4-AC69-2B77C3BA1C9F";
shapes = (
{
closed = 1;
nodes = (
(721,0,l),
(721,200,l),
(1028,200,l),
(1028,388,l),
(721,388,l),
(721,508,l),
(1028,508,l),
(1028,696,l),
(809,696,l),
(1294,1447,l),
(1038,1447,l),
(615,761,l),
(191,1447,l),
(-65,1447,l),
(419,698,l),
(201,698,l),
(201,508,l),
(507,508,l),
(507,388,l),
(201,388,l),
(201,200,l),
(507,200,l),
(507,0,l)
);
}
);
width = 1229;
},
{
layerId = "FD60B6D8-DC1B-493D-A036-B8A9A3BDE096";
shapes = (
{
closed = 1;
nodes = (
(690,0,l),
(690,295,l),
(998,295,l),
(998,418,l),
(690,418,l),
(690,542,l),
(998,542,l),
(998,666,l),
(748,666,l),
(1236,1447,l),
(1059,1447,l),
(616,730,l),
(172,1447,l),
(-7,1447,l),
(481,665,l),
(233,665,l),
(233,542,l),
(539,542,l),
(539,418,l),
(233,418,l),
(233,295,l),
(539,295,l),
(539,0,l)
);
}
);
width = 1229;
},
{
layerId = "B769F827-5E5D-44DC-BEA8-1B95CFBF39E3";
shapes = (
{
closed = 1;
nodes = (
(680,0,l),
(680,326,l),
(988,326,l),
(988,428,l),
(680,428,l),
(680,553,l),
(988,553,l),
(988,656,l),
(728,656,l),
(1216,1447,l),
(1066,1447,l),
(616,720,l),
(165,1447,l),
(13,1447,l),
(501,654,l),
(243,654,l),
(243,553,l),
(549,553,l),
(549,428,l),
(243,428,l),
(243,326,l),
(549,326,l),
(549,0,l)
);
}
);
width = 1229;
}
);
unicode = 165;
},
{
glyphname = brokenbar;
layers = (
{
layerId = "F7413D4C-EAF4-4E43-8F2C-0DFA69218E69";
shapes = (
{
closed = 1;
nodes = (
(451,749,l),
(451,1510,l,{name = .av01;}),
(215,1510,l,{name = .dh01;}),
(215,749,l)
);
},
{
closed = 1;
nodes = (
(451,-314,l,{name = .av02;}),
(451,430,l),
(215,430,l,{name = .sh01;}),
(215,-314,l)
);
}
);
width = 667;
},
{
layerId = "FF7C99D0-C175-48E4-AC69-2B77C3BA1C9F";
shapes = (
{
closed = 1;
nodes = (
(432,749,l),
(432,1510,l),
(226,1510,l),
(226,749,l)
);
},
{
closed = 1;
nodes = (
(432,-314,l),
(432,430,l),
(226,430,l),
(226,-314,l)
);
}
);
width = 658;
},
{
layerId = "FD60B6D8-DC1B-493D-A036-B8A9A3BDE096";
shapes = (
{
closed = 1;
nodes = (
(377,750,l),
(377,1510,l),
(259,1510,l),
(259,750,l)
);
},
{
closed = 1;
nodes = (
(377,-315,l),
(377,429,l),
(259,429,l),
(259,-315,l)
);
}
);
width = 636;
},
{
layerId = "B769F827-5E5D-44DC-BEA8-1B95CFBF39E3";
shapes = (
{
closed = 1;
nodes = (
(358,750,l),
(358,1510,l),
(270,1510,l),
(270,750,l)
);
},
{
closed = 1;
nodes = (
(358,-315,l),
(358,428,l),
(270,428,l),
(270,-315,l)
);
}
);
width = 629;
}
);
unicode = 166;
},
{
glyphname = section;
layers = (
{
layerId = "F7413D4C-EAF4-4E43-8F2C-0DFA69218E69";
shapes = (
{
closed = 1;
nodes = (
(103,237,l),
(151,85,o),
(328,-18,o),
(543,-18,cs,{name = .dv01;}),
(804,-18,o),
(994,114,o),
(994,297,cs,{name = .sh01;}),
(994,388,o),
(941,467,o),
(846,519,c),
(846,472,l),
(937,534,o),
(978,607,o),
(978,705,cs,{name = .sh02;}),
(978,864,o),
(889,938,o),
(654,1000,cs),
(429,1059,ls),
(393,1069,o),
(365,1103,o),
(365,1147,cs,{name = .sh05;}),
(365,1212,o),
(439,1255,o),
(536,1255,cs,{name = .dv03;}),
(628,1255,o),
(696,1214,o),
(735,1164,c),
(938,1291,l),
(880,1391,o),
(710,1468,o),
(546,1468,cs,{name = .dv04;}),
(301,1468,o),
(135,1339,o),
(135,1149,cs,{name = .sh06;}),
(135,1062,o),
(181,985,o),
(265,931,c),
(265,978,l),
(174,913,o),
(133,841,o),
(133,744,cs,{name = .sh03;}),
(133,581,o),
(220,509,o),
(509,442,cs),
(600,421,ls),
(697,399,o),
(745,358,o),
(745,302,cs,{name = .ah01;}),
(745,240,o),
(677,203,o),
(565,203,cs,{name = .dv02;}),
(449,203,o),
(348,261,o),
(315,346,c,{name = .sh07;})
);
},
{
closed = 1;
nodes = (
(365,812,o),
(410,864,o),
(474,880,c),
(406,885,l),
(426,873,o),
(445,865,o),
(461,861,cs),
(490,854,ls),
(684,807,o),
(745,770,o),
(745,694,cs,{name = .sh08;}),
(745,639,o),
(703,599,o),
(635,588,c),
(689,588,l),
(679,593,o),
(652,601,o),
(615,608,cs),
(556,620,ls),
(444,643,o),
(365,699,o),
(365,754,cs,{name = .sh04;})
);
}
);
width = 1106;
},
{
layerId = "FF7C99D0-C175-48E4-AC69-2B77C3BA1C9F";
shapes = (
{
closed = 1;
nodes = (
(125,228,l),
(187,80,o),
(361,-18,o),
(559,-18,cs),
(806,-18,o),
(971,109,o),
(971,298,cs),
(971,390,o),
(921,469,o),
(851,521,c),
(851,457,l),
(922,523,o),
(971,614,o),
(971,705,cs),
(971,869,o),
(870,956,o),
(611,1012,cs),
(578,1019,ls),
(405,1057,o),
(379,1102,o),
(379,1165,cs),
(379,1239,o),
(436,1274,o),
(541,1274,cs),
(631,1274,o),
(716,1230,o),
(755,1167,c),
(911,1257,l),
(837,1391,o),
(706,1468,o),
(516,1468,cs),
(298,1468,o),
(151,1353,o),
(151,1182,cs),
(151,1051,o),
(194,987,o),
(285,918,c),
(285,993,l),
(184,899,o),
(149,835,o),
(149,744,cs),
(149,587,o),
(252,504,o),
(520,444,cs),
(552,437,ls),
(692,405,o),
(761,359,o),
(761,298,cs),
(761,227,o),
(686,176,o),
(567,176,cs),
(440,176,o),
(334,238,o),
(299,329,c)
);
},
{
closed = 1;
nodes = (
(359,816,o),
(408,874,o),
(480,892,c),
(406,892,l),
(453,878,o),
(486,869,o),
(519,861,cs),
(553,852,ls),
(730,804,o),
(761,780,o),
(761,698,cs),
(761,626,o),
(727,586,o),
(658,577,c),
(714,565,l),
(685,578,o),
(640,592,o),
(612,599,cs),
(580,607,ls),
(386,657,o),
(359,676,o),
(359,753,cs)
);
}
);
width = 1114;
},
{
layerId = "FD60B6D8-DC1B-493D-A036-B8A9A3BDE096";
shapes = (
{
closed = 1;
nodes = (
(178,228,l),
(236,73,o),
(388,-18,o),
(577,-18,cs),
(796,-18,o),
(939,102,o),
(939,284,cs),
(939,380,o),
(893,456,o),
(811,508,c),
(811,463,l),
(894,522,o),
(939,607,o),
(939,705,cs),
(939,865,o),
(846,947,o),
(604,999,cs),
(571,1006,ls),
(428,1037,o),
(331,1066,o),
(331,1166,cs),
(331,1265,o),
(432,1336,o),
(557,1336,cs),
(675,1336,o),
(778,1285,o),
(825,1203,c),
(925,1276,l),
(857,1398,o),
(725,1468,o),
(552,1468,cs),
(349,1468,o),
(185,1343,o),
(185,1173,cs),
(185,1068,o),
(230,996,o),
(321,943,c),
(318,989,l),
(228,921,o),
(183,840,o),
(183,744,cs),
(183,586,o),
(280,509,o),
(546,450,c),
(578,442,l),
(732,408,o),
(797,356,o),
(797,266,cs),
(797,172,o),
(717,115,o),
(579,115,cs),
(445,115,o),
(342,180,o),
(301,295,c)
);
},
{
closed = 1;
nodes = (
(326,833,o),
(383,901,o),
(476,927,c),
(414,925,l),
(446,913,o),
(479,904,o),
(530,895,c),
(564,888,ls),
(733,853,o),
(797,803,o),
(797,709,cs),
(797,618,o),
(749,561,o),
(654,537,c),
(716,531,l),
(695,543,o),
(651,555,o),
(623,561,cs),
(590,568,ls),
(400,611,o),
(326,660,o),
(326,748,cs)
);
}
);
width = 1125;
},
{
layerId = "B769F827-5E5D-44DC-BEA8-1B95CFBF39E3";
shapes = (
{
closed = 1;
nodes = (
(196,228,l),
(252,71,o),
(397,-18,o),
(583,-18,cs),
(793,-18,o),
(928,99,o),
(928,279,cs),
(928,377,o),
(884,452,o),
(798,503,c),
(798,465,l),
(884,521,o),
(928,604,o),
(928,705,cs),
(928,863,o),
(838,944,o),
(602,995,cs),
(569,1002,ls),
(435,1030,o),
(315,1054,o),
(315,1166,cs),
(315,1274,o),
(430,1357,o),
(562,1357,cs),
(690,1357,o),
(799,1303,o),
(848,1215,c),
(929,1282,l),
(863,1400,o),
(731,1468,o),
(564,1468,cs),
(366,1468,o),
(196,1340,o),
(196,1170,cs),
(196,1073,o),
(242,999,o),
(333,951,c),
(329,988,l),
(242,928,o),
(194,841,o),
(194,744,cs),
(194,586,o),
(289,510,o),
(555,452,c),
(587,444,l),
(745,409,o),
(809,355,o),
(809,255,cs),
(809,153,o),
(727,94,o),
(583,94,cs),
(446,94,o),
(344,161,o),
(301,284,c)
);
},
{
closed = 1;
nodes = (
(315,839,o),
(374,910,o),
(474,938,c),
(417,936,l),
(444,925,o),
(476,916,o),
(533,906,cs),
(567,900,ls),
(734,869,o),
(809,811,o),
(809,712,cs),
(809,615,o),
(756,552,o),
(652,524,c),
(717,520,l),
(698,531,o),
(654,542,o),
(626,548,cs),
(593,555,ls),
(404,595,o),
(315,655,o),
(315,746,cs)
);
}
);
width = 1129;
}
);
unicode = 167;
},
{
glyphname = dieresis;
layers = (
{
layerId = "F7413D4C-EAF4-4E43-8F2C-0DFA69218E69";
shapes = (
{
closed = 1;
nodes = (
(40,1230,l),
(260,1230,l,{name = .dv00;}),
(260,1470,l,{name = .dv07;}),
(40,1470,l,{name = .sh00;})
);
},
{
closed = 1;
nodes = (
(410,1230,l),
(630,1230,l,{name = .dv00;}),
(630,1470,l,{name = .dv07;}),
(410,1470,l,{name = .sh00;})
);
}
);
width = 670;
},
{
layerId = "FF7C99D0-C175-48E4-AC69-2B77C3BA1C9F";
shapes = (
{
closed = 1;
nodes = (
(60,1235,l),
(270,1235,l),
(270,1465,l),
(60,1465,l)
);
},
{
closed = 1;
nodes = (
(392,1235,l),
(602,1235,l),
(602,1465,l),
(392,1465,l)
);
}
);
width = 662;
},
{
layerId = "FD60B6D8-DC1B-493D-A036-B8A9A3BDE096";
shapes = (
{
closed = 1;
nodes = (
(75,1239,l),
(249,1239,l),
(249,1436,l),
(75,1436,l)
);
},
{
closed = 1;
nodes = (
(415,1239,l),
(589,1239,l),
(589,1436,l),
(415,1436,l)
);
}
);
width = 664;
},
{
layerId = "B769F827-5E5D-44DC-BEA8-1B95CFBF39E3";
shapes = (
{
closed = 1;
nodes = (
(80,1240,l),
(242,1240,l),
(242,1426,l),
(80,1426,l)
);
},
{
closed = 1;
nodes = (
(422,1240,l),
(584,1240,l),
(584,1426,l),
(422,1426,l)
);
}
);
width = 664;
}
);
leftKerningGroup = dieresis;
rightKerningGroup = dieresis1;
unicode = 168;
},
